<svg class="rich-terminal" viewBox="0 0 1238 782.0" xmlns="http://www.w3.org/2000/svg">
    <!-- Generated with Rich https://www.textualize.io -->
    <style>

    @font-face {
        font-family: "Fira Code";
        src: local("FiraCode-Regular"),
                url("https://cdnjs.cloudflare.com/ajax/libs/firacode/6.2.0/woff2/FiraCode-Regular.woff2") format("woff2"),
                url("https://cdnjs.cloudflare.com/ajax/libs/firacode/6.2.0/woff/FiraCode-Regular.woff") format("woff");
        font-style: normal;
        font-weight: 400;
    }
    @font-face {
        font-family: "Fira Code";
        src: local("FiraCode-Bold"),
                url("https://cdnjs.cloudflare.com/ajax/libs/firacode/6.2.0/woff2/FiraCode-Bold.woff2") format("woff2"),
                url("https://cdnjs.cloudflare.com/ajax/libs/firacode/6.2.0/woff/FiraCode-Bold.woff") format("woff");
        font-style: bold;
        font-weight: 700;
    }

    .terminal-4124072131-matrix {
        font-family: Fira Code, monospace;
        font-size: 20px;
        line-height: 24.4px;
        font-variant-east-asian: full-width;
    }

    .terminal-4124072131-title {
        font-size: 18px;
        font-weight: bold;
        font-family: arial;
    }

    .terminal-4124072131-r1 { fill: #c5c8c6 }
.terminal-4124072131-r2 { fill: #b2b2b2 }
.terminal-4124072131-r3 { fill: #141414 }
.terminal-4124072131-r4 { fill: #404040 }
.terminal-4124072131-r5 { fill: #727272 }
.terminal-4124072131-r6 { fill: #e0e0e0 }
.terminal-4124072131-r7 { fill: #e0e0e0;font-weight: bold }
.terminal-4124072131-r8 { fill: #ffffff;font-weight: bold }
.terminal-4124072131-r9 { fill: #1e1e1e }
.terminal-4124072131-r10 { fill: #282828 }
.terminal-4124072131-r11 { fill: #a6a6a6 }
.terminal-4124072131-r12 { fill: #bebebe;font-weight: bold }
.terminal-4124072131-r13 { fill: #c3c3c3;font-weight: bold }
.terminal-4124072131-r14 { fill: #ebebeb }
.terminal-4124072131-r15 { fill: #b0b0b0;font-weight: bold }
.terminal-4124072131-r16 { fill: #424242 }
    </style>

    <defs>
    <clipPath id="terminal-4124072131-clip-terminal">
      <rect x="0" y="0" width="1219.0" height="731.0" />
    </clipPath>
    <clipPath id="terminal-4124072131-line-0">
    <rect x="0" y="1.5" width="1220" height="24.65"/>
            </clipPath>
<clipPath id="terminal-4124072131-line-1">
    <rect x="0" y="25.9" width="1220" height="24.65"/>
            </clipPath>
<clipPath id="terminal-4124072131-line-2">
    <rect x="0" y="50.3" width="1220" height="24.65"/>
            </clipPath>
<clipPath id="terminal-4124072131-line-3">
    <rect x="0" y="74.7" width="1220" height="24.65"/>
            </clipPath>
<clipPath id="terminal-4124072131-line-4">
    <rect x="0" y="99.1" width="1220" height="24.65"/>
            </clipPath>
<clipPath id="terminal-4124072131-line-5">
    <rect x="0" y="123.5" width="1220" height="24.65"/>
            </clipPath>
<clipPath id="terminal-4124072131-line-6">
    <rect x="0" y="147.9" width="1220" height="24.65"/>
            </clipPath>
<clipPath id="terminal-4124072131-line-7">
    <rect x="0" y="172.3" width="1220" height="24.65"/>
            </clipPath>
<clipPath id="terminal-4124072131-line-8">
    <rect x="0" y="196.7" width="1220" height="24.65"/>
            </clipPath>
<clipPath id="terminal-4124072131-line-9">
    <rect x="0" y="221.1" width="1220" height="24.65"/>
            </clipPath>
<clipPath id="terminal-4124072131-line-10">
    <rect x="0" y="245.5" width="1220" height="24.65"/>
            </clipPath>
<clipPath id="terminal-4124072131-line-11">
    <rect x="0" y="269.9" width="1220" height="24.65"/>
            </clipPath>
<clipPath id="terminal-4124072131-line-12">
    <rect x="0" y="294.3" width="1220" height="24.65"/>
            </clipPath>
<clipPath id="terminal-4124072131-line-13">
    <rect x="0" y="318.7" width="1220" height="24.65"/>
            </clipPath>
<clipPath id="terminal-4124072131-line-14">
    <rect x="0" y="343.1" width="1220" height="24.65"/>
            </clipPath>
<clipPath id="terminal-4124072131-line-15">
    <rect x="0" y="367.5" width="1220" height="24.65"/>
            </clipPath>
<clipPath id="terminal-4124072131-line-16">
    <rect x="0" y="391.9" width="1220" height="24.65"/>
            </clipPath>
<clipPath id="terminal-4124072131-line-17">
    <rect x="0" y="416.3" width="1220" height="24.65"/>
            </clipPath>
<clipPath id="terminal-4124072131-line-18">
    <rect x="0" y="440.7" width="1220" height="24.65"/>
            </clipPath>
<clipPath id="terminal-4124072131-line-19">
    <rect x="0" y="465.1" width="1220" height="24.65"/>
            </clipPath>
<clipPath id="terminal-4124072131-line-20">
    <rect x="0" y="489.5" width="1220" height="24.65"/>
            </clipPath>
<clipPath id="terminal-4124072131-line-21">
    <rect x="0" y="513.9" width="1220" height="24.65"/>
            </clipPath>
<clipPath id="terminal-4124072131-line-22">
    <rect x="0" y="538.3" width="1220" height="24.65"/>
            </clipPath>
<clipPath id="terminal-4124072131-line-23">
    <rect x="0" y="562.7" width="1220" height="24.65"/>
            </clipPath>
<clipPath id="terminal-4124072131-line-24">
    <rect x="0" y="587.1" width="1220" height="24.65"/>
            </clipPath>
<clipPath id="terminal-4124072131-line-25">
    <rect x="0" y="611.5" width="1220" height="24.65"/>
            </clipPath>
<clipPath id="terminal-4124072131-line-26">
    <rect x="0" y="635.9" width="1220" height="24.65"/>
            </clipPath>
<clipPath id="terminal-4124072131-line-27">
    <rect x="0" y="660.3" width="1220" height="24.65"/>
            </clipPath>
<clipPath id="terminal-4124072131-line-28">
    <rect x="0" y="684.7" width="1220" height="24.65"/>
            </clipPath>
    </defs>

    <rect fill="#292929" stroke="rgba(255,255,255,0.35)" stroke-width="1" x="1" y="1" width="1236" height="780" rx="8"/><text class="terminal-4124072131-title" fill="#c5c8c6" text-anchor="middle" x="618" y="27">WF&#160;-&#160;Workflow&#160;Session&#160;Manager</text>
            <g transform="translate(26,22)">
            <circle cx="0" cy="0" r="7" fill="#ff5f57"/>
            <circle cx="22" cy="0" r="7" fill="#febc2e"/>
            <circle cx="44" cy="0" r="7" fill="#28c840"/>
            </g>
        
    <g transform="translate(9, 41)" clip-path="url(#terminal-4124072131-clip-terminal)">
    <rect fill="#1b1b1b" x="0" y="1.5" width="24.4" height="24.65" shape-rendering="crispEdges"/><rect fill="#1b1b1b" x="24.4" y="1.5" width="292.8" height="24.65" shape-rendering="crispEdges"/><rect fill="#1b1b1b" x="317.2" y="1.5" width="878.4" height="24.65" shape-rendering="crispEdges"/><rect fill="#1b1b1b" x="1195.6" y="1.5" width="24.4" height="24.65" shape-rendering="crispEdges"/><rect fill="#1b1b1b" x="0" y="25.9" width="24.4" height="24.65" shape-rendering="crispEdges"/><rect fill="#404040" x="24.4" y="25.9" width="12.2" height="24.65" shape-rendering="crispEdges"/><rect fill="#1b1b1b" x="36.6" y="25.9" width="1146.8" height="24.65" shape-rendering="crispEdges"/><rect fill="#141414" x="1183.4" y="25.9" width="12.2" height="24.65" shape-rendering="crispEdges"/><rect fill="#1b1b1b" x="1195.6" y="25.9" width="24.4" height="24.65" shape-rendering="crispEdges"/><rect fill="#141414" x="0" y="50.3" width="24.4" height="24.65" shape-rendering="crispEdges"/><rect fill="#404040" x="24.4" y="50.3" width="12.2" height="24.65" shape-rendering="crispEdges"/><rect fill="#1b1b1b" x="36.6" y="50.3" width="24.4" height="24.65" shape-rendering="crispEdges"/><rect fill="#1b1b1b" x="61" y="50.3" width="183" height="24.65" shape-rendering="crispEdges"/><rect fill="#1b1b1b" x="244" y="50.3" width="915" height="24.65" shape-rendering="crispEdges"/><rect fill="#1b1b1b" x="1159" y="50.3" width="24.4" height="24.65" shape-rendering="crispEdges"/><rect fill="#141414" x="1183.4" y="50.3" width="12.2" height="24.65" shape-rendering="crispEdges"/><rect fill="#141414" x="1195.6" y="50.3" width="24.4" height="24.65" shape-rendering="crispEdges"/><rect fill="#141414" x="0" y="74.7" width="24.4" height="24.65" shape-rendering="crispEdges"/><rect fill="#404040" x="24.4" y="74.7" width="12.2" height="24.65" shape-rendering="crispEdges"/><rect fill="#1b1b1b" x="36.6" y="74.7" width="1146.8" height="24.65" shape-rendering="crispEdges"/><rect fill="#141414" x="1183.4" y="74.7" width="12.2" height="24.65" shape-rendering="crispEdges"/><rect fill="#141414" x="1195.6" y="74.7" width="24.4" height="24.65" shape-rendering="crispEdges"/><rect fill="#141414" x="0" y="99.1" width="1220" height="24.65" shape-rendering="crispEdges"/><rect fill="#141414" x="0" y="123.5" width="24.4" height="24.65" shape-rendering="crispEdges"/><rect fill="#303030" x="24.4" y="123.5" width="36.6" height="24.65" shape-rendering="crispEdges"/><rect fill="#303030" x="61" y="123.5" width="427" height="24.65" shape-rendering="crispEdges"/><rect fill="#303030" x="488" y="123.5" width="97.6" height="24.65" shape-rendering="crispEdges"/><rect fill="#303030" x="585.6" y="123.5" width="122" height="24.65" shape-rendering="crispEdges"/><rect fill="#303030" x="707.6" y="123.5" width="488" height="24.65" shape-rendering="crispEdges"/><rect fill="#141414" x="1195.6" y="123.5" width="24.4" height="24.65" shape-rendering="crispEdges"/><rect fill="#141414" x="0" y="147.9" width="24.4" height="24.65" shape-rendering="crispEdges"/><rect fill="#3d3d3d" x="24.4" y="147.9" width="36.6" height="24.65" shape-rendering="crispEdges"/><rect fill="#3d3d3d" x="61" y="147.9" width="427" height="24.65" shape-rendering="crispEdges"/><rect fill="#3d3d3d" x="488" y="147.9" width="97.6" height="24.65" shape-rendering="crispEdges"/><rect fill="#3d3d3d" x="585.6" y="147.9" width="122" height="24.65" shape-rendering="crispEdges"/><rect fill="#3d3d3d" x="707.6" y="147.9" width="488" height="24.65" shape-rendering="crispEdges"/><rect fill="#141414" x="1195.6" y="147.9" width="24.4" height="24.65" shape-rendering="crispEdges"/><rect fill="#141414" x="0" y="172.3" width="24.4" height="24.65" shape-rendering="crispEdges"/><rect fill="#1e1e1e" x="24.4" y="172.3" width="36.6" height="24.65" shape-rendering="crispEdges"/><rect fill="#1e1e1e" x="61" y="172.3" width="427" height="24.65" shape-rendering="crispEdges"/><rect fill="#1e1e1e" x="488" y="172.3" width="97.6" height="24.65" shape-rendering="crispEdges"/><rect fill="#1e1e1e" x="585.6" y="172.3" width="122" height="24.65" shape-rendering="crispEdges"/><rect fill="#1e1e1e" x="707.6" y="172.3" width="488" height="24.65" shape-rendering="crispEdges"/><rect fill="#141414" x="1195.6" y="172.3" width="24.4" height="24.65" shape-rendering="crispEdges"/><rect fill="#141414" x="0" y="196.7" width="24.4" height="24.65" shape-rendering="crispEdges"/><rect fill="#171717" x="24.4" y="196.7" width="36.6" height="24.65" shape-rendering="crispEdges"/><rect fill="#171717" x="61" y="196.7" width="427" height="24.65" shape-rendering="crispEdges"/><rect fill="#171717" x="488" y="196.7" width="97.6" height="24.65" shape-rendering="crispEdges"/><rect fill="#171717" x="585.6" y="196.7" width="122" height="24.65" shape-rendering="crispEdges"/><rect fill="#171717" x="707.6" y="196.7" width="488" height="24.65" shape-rendering="crispEdges"/><rect fill="#141414" x="1195.6" y="196.7" width="24.4" height="24.65" shape-rendering="crispEdges"/><rect fill="#141414" x="0" y="221.1" width="24.4" height="24.65" shape-rendering="crispEdges"/><rect fill="#1e1e1e" x="24.4" y="221.1" width="36.6" height="24.65" shape-rendering="crispEdges"/><rect fill="#1e1e1e" x="61" y="221.1" width="427" height="24.65" shape-rendering="crispEdges"/><rect fill="#1e1e1e" x="488" y="221.1" width="97.6" height="24.65" shape-rendering="crispEdges"/><rect fill="#1e1e1e" x="585.6" y="221.1" width="122" height="24.65" shape-rendering="crispEdges"/><rect fill="#1e1e1e" x="707.6" y="221.1" width="488" height="24.65" shape-rendering="crispEdges"/><rect fill="#141414" x="1195.6" y="221.1" width="24.4" height="24.65" shape-rendering="crispEdges"/><rect fill="#141414" x="0" y="245.5" width="24.4" height="24.65" shape-rendering="crispEdges"/><rect fill="#171717" x="24.4" y="245.5" width="36.6" height="24.65" shape-rendering="crispEdges"/><rect fill="#171717" x="61" y="245.5" width="427" height="24.65" shape-rendering="crispEdges"/><rect fill="#171717" x="488" y="245.5" width="97.6" height="24.65" shape-rendering="crispEdges"/><rect fill="#171717" x="585.6" y="245.5" width="122" height="24.65" shape-rendering="crispEdges"/><rect fill="#171717" x="707.6" y="245.5" width="488" height="24.65" shape-rendering="crispEdges"/><rect fill="#141414" x="1195.6" y="245.5" width="24.4" height="24.65" shape-rendering="crispEdges"/><rect fill="#141414" x="0" y="269.9" width="24.4" height="24.65" shape-rendering="crispEdges"/><rect fill="#1e1e1e" x="24.4" y="269.9" width="1171.2" height="24.65" shape-rendering="crispEdges"/><rect fill="#141414" x="1195.6" y="269.9" width="24.4" height="24.65" shape-rendering="crispEdges"/><rect fill="#141414" x="0" y="294.3" width="24.4" height="24.65" shape-rendering="crispEdges"/><rect fill="#1e1e1e" x="24.4" y="294.3" width="1171.2" height="24.65" shape-rendering="crispEdges"/><rect fill="#141414" x="1195.6" y="294.3" width="24.4" height="24.65" shape-rendering="crispEdges"/><rect fill="#141414" x="0" y="318.7" width="24.4" height="24.65" shape-rendering="crispEdges"/><rect fill="#282828" x="24.4" y="318.7" width="12.2" height="24.65" shape-rendering="crispEdges"/><rect fill="#282828" x="36.6" y="318.7" width="12.2" height="24.65" shape-rendering="crispEdges"/><rect fill="#282828" x="48.8" y="318.7" width="12.2" height="24.65" shape-rendering="crispEdges"/><rect fill="#282828" x="61" y="318.7" width="12.2" height="24.65" shape-rendering="crispEdges"/><rect fill="#282828" x="73.2" y="318.7" width="12.2" height="24.65" shape-rendering="crispEdges"/><rect fill="#282828" x="85.4" y="318.7" width="12.2" height="24.65" shape-rendering="crispEdges"/><rect fill="#282828" x="97.6" y="318.7" width="12.2" height="24.65" shape-rendering="crispEdges"/><rect fill="#282828" x="109.8" y="318.7" width="12.2" height="24.65" shape-rendering="crispEdges"/><rect fill="#282828" x="122" y="318.7" width="12.2" height="24.65" shape-rendering="crispEdges"/><rect fill="#282828" x="134.2" y="318.7" width="12.2" height="24.65" shape-rendering="crispEdges"/><rect fill="#282828" x="146.4" y="318.7" width="12.2" height="24.65" shape-rendering="crispEdges"/><rect fill="#282828" x="158.6" y="318.7" width="12.2" height="24.65" shape-rendering="crispEdges"/><rect fill="#282828" x="170.8" y="318.7" width="12.2" height="24.65" shape-rendering="crispEdges"/><rect fill="#282828" x="183" y="318.7" width="12.2" height="24.65" shape-rendering="crispEdges"/><rect fill="#282828" x="195.2" y="318.7" width="12.2" height="24.65" shape-rendering="crispEdges"/><rect fill="#282828" x="207.4" y="318.7" width="12.2" height="24.65" shape-rendering="crispEdges"/><rect fill="#282828" x="219.6" y="318.7" width="12.2" height="24.65" shape-rendering="crispEdges"/><rect fill="#282828" x="231.8" y="318.7" width="12.2" height="24.65" shape-rendering="crispEdges"/><rect fill="#282828" x="244" y="318.7" width="12.2" height="24.65" shape-rendering="crispEdges"/><rect fill="#282828" x="256.2" y="318.7" width="12.2" height="24.65" shape-rendering="crispEdges"/><rect fill="#282828" x="268.4" y="318.7" width="12.2" height="24.65" shape-rendering="crispEdges"/><rect fill="#282828" x="280.6" y="318.7" width="12.2" height="24.65" shape-rendering="crispEdges"/><rect fill="#282828" x="292.8" y="318.7" width="12.2" height="24.65" shape-rendering="crispEdges"/><rect fill="#282828" x="305" y="318.7" width="12.2" height="24.65" shape-rendering="crispEdges"/><rect fill="#282828" x="317.2" y="318.7" width="12.2" height="24.65" shape-rendering="crispEdges"/><rect fill="#282828" x="329.4" y="318.7" width="12.2" height="24.65" shape-rendering="crispEdges"/><rect fill="#282828" x="341.6" y="318.7" width="12.2" height="24.65" shape-rendering="crispEdges"/><rect fill="#282828" x="353.8" y="318.7" width="12.2" height="24.65" shape-rendering="crispEdges"/><rect fill="#282828" x="366" y="318.7" width="12.2" height="24.65" shape-rendering="crispEdges"/><rect fill="#282828" x="378.2" y="318.7" width="12.2" height="24.65" shape-rendering="crispEdges"/><rect fill="#282828" x="390.4" y="318.7" width="12.2" height="24.65" shape-rendering="crispEdges"/><rect fill="#282828" x="402.6" y="318.7" width="12.2" height="24.65" shape-rendering="crispEdges"/><rect fill="#282828" x="414.8" y="318.7" width="12.2" height="24.65" shape-rendering="crispEdges"/><rect fill="#282828" x="427" y="318.7" width="12.2" height="24.65" shape-rendering="crispEdges"/><rect fill="#282828" x="439.2" y="318.7" width="12.2" height="24.65" shape-rendering="crispEdges"/><rect fill="#282828" x="451.4" y="318.7" width="12.2" height="24.65" shape-rendering="crispEdges"/><rect fill="#282828" x="463.6" y="318.7" width="12.2" height="24.65" shape-rendering="crispEdges"/><rect fill="#282828" x="475.8" y="318.7" width="12.2" height="24.65" shape-rendering="crispEdges"/><rect fill="#282828" x="488" y="318.7" width="12.2" height="24.65" shape-rendering="crispEdges"/><rect fill="#282828" x="500.2" y="318.7" width="12.2" height="24.65" shape-rendering="crispEdges"/><rect fill="#282828" x="512.4" y="318.7" width="12.2" height="24.65" shape-rendering="crispEdges"/><rect fill="#282828" x="524.6" y="318.7" width="12.2" height="24.65" shape-rendering="crispEdges"/><rect fill="#282828" x="536.8" y="318.7" width="12.2" height="24.65" shape-rendering="crispEdges"/><rect fill="#282828" x="549" y="318.7" width="12.2" height="24.65" shape-rendering="crispEdges"/><rect fill="#282828" x="561.2" y="318.7" width="12.2" height="24.65" shape-rendering="crispEdges"/><rect fill="#282828" x="573.4" y="318.7" width="12.2" height="24.65" shape-rendering="crispEdges"/><rect fill="#282828" x="585.6" y="318.7" width="12.2" height="24.65" shape-rendering="crispEdges"/><rect fill="#282828" x="597.8" y="318.7" width="12.2" height="24.65" shape-rendering="crispEdges"/><rect fill="#282828" x="610" y="318.7" width="12.2" height="24.65" shape-rendering="crispEdges"/><rect fill="#282828" x="622.2" y="318.7" width="12.2" height="24.65" shape-rendering="crispEdges"/><rect fill="#282828" x="634.4" y="318.7" width="12.2" height="24.65" shape-rendering="crispEdges"/><rect fill="#282828" x="646.6" y="318.7" width="12.2" height="24.65" shape-rendering="crispEdges"/><rect fill="#282828" x="658.8" y="318.7" width="12.2" height="24.65" shape-rendering="crispEdges"/><rect fill="#282828" x="671" y="318.7" width="12.2" height="24.65" shape-rendering="crispEdges"/><rect fill="#282828" x="683.2" y="318.7" width="12.2" height="24.65" shape-rendering="crispEdges"/><rect fill="#282828" x="695.4" y="318.7" width="12.2" height="24.65" shape-rendering="crispEdges"/><rect fill="#282828" x="707.6" y="318.7" width="12.2" height="24.65" shape-rendering="crispEdges"/><rect fill="#282828" x="719.8" y="318.7" width="12.2" height="24.65" shape-rendering="crispEdges"/><rect fill="#282828" x="732" y="318.7" width="12.2" height="24.65" shape-rendering="crispEdges"/><rect fill="#282828" x="744.2" y="318.7" width="12.2" height="24.65" shape-rendering="crispEdges"/><rect fill="#282828" x="756.4" y="318.7" width="12.2" height="24.65" shape-rendering="crispEdges"/><rect fill="#282828" x="768.6" y="318.7" width="12.2" height="24.65" shape-rendering="crispEdges"/><rect fill="#282828" x="780.8" y="318.7" width="12.2" height="24.65" shape-rendering="crispEdges"/><rect fill="#282828" x="793" y="318.7" width="12.2" height="24.65" shape-rendering="crispEdges"/><rect fill="#282828" x="805.2" y="318.7" width="12.2" height="24.65" shape-rendering="crispEdges"/><rect fill="#282828" x="817.4" y="318.7" width="12.2" height="24.65" shape-rendering="crispEdges"/><rect fill="#282828" x="829.6" y="318.7" width="12.2" height="24.65" shape-rendering="crispEdges"/><rect fill="#282828" x="841.8" y="318.7" width="12.2" height="24.65" shape-rendering="crispEdges"/><rect fill="#282828" x="854" y="318.7" width="12.2" height="24.65" shape-rendering="crispEdges"/><rect fill="#282828" x="866.2" y="318.7" width="12.2" height="24.65" shape-rendering="crispEdges"/><rect fill="#282828" x="878.4" y="318.7" width="12.2" height="24.65" shape-rendering="crispEdges"/><rect fill="#282828" x="890.6" y="318.7" width="12.2" height="24.65" shape-rendering="crispEdges"/><rect fill="#282828" x="902.8" y="318.7" width="12.2" height="24.65" shape-rendering="crispEdges"/><rect fill="#282828" x="915" y="318.7" width="12.2" height="24.65" shape-rendering="crispEdges"/><rect fill="#282828" x="927.2" y="318.7" width="12.2" height="24.65" shape-rendering="crispEdges"/><rect fill="#282828" x="939.4" y="318.7" width="12.2" height="24.65" shape-rendering="crispEdges"/><rect fill="#282828" x="951.6" y="318.7" width="12.2" height="24.65" shape-rendering="crispEdges"/><rect fill="#282828" x="963.8" y="318.7" width="12.2" height="24.65" shape-rendering="crispEdges"/><rect fill="#000000" x="976" y="318.7" width="12.2" height="24.65" shape-rendering="crispEdges"/><rect fill="#000000" x="988.2" y="318.7" width="12.2" height="24.65" shape-rendering="crispEdges"/><rect fill="#000000" x="1000.4" y="318.7" width="12.2" height="24.65" shape-rendering="crispEdges"/><rect fill="#000000" x="1012.6" y="318.7" width="12.2" height="24.65" shape-rendering="crispEdges"/><rect fill="#000000" x="1024.8" y="318.7" width="12.2" height="24.65" shape-rendering="crispEdges"/><rect fill="#000000" x="1037" y="318.7" width="12.2" height="24.65" shape-rendering="crispEdges"/><rect fill="#000000" x="1049.2" y="318.7" width="12.2" height="24.65" shape-rendering="crispEdges"/><rect fill="#000000" x="1061.4" y="318.7" width="12.2" height="24.65" shape-rendering="crispEdges"/><rect fill="#000000" x="1073.6" y="318.7" width="12.2" height="24.65" shape-rendering="crispEdges"/><rect fill="#000000" x="1085.8" y="318.7" width="12.2" height="24.65" shape-rendering="crispEdges"/><rect fill="#000000" x="1098" y="318.7" width="12.2" height="24.65" shape-rendering="crispEdges"/><rect fill="#000000" x="1110.2" y="318.7" width="12.2" height="24.65" shape-rendering="crispEdges"/><rect fill="#000000" x="1122.4" y="318.7" width="12.2" height="24.65" shape-rendering="crispEdges"/><rect fill="#000000" x="1134.6" y="318.7" width="12.2" height="24.65" shape-rendering="crispEdges"/><rect fill="#000000" x="1146.8" y="318.7" width="12.2" height="24.65" shape-rendering="crispEdges"/><rect fill="#000000" x="1159" y="318.7" width="12.2" height="24.65" shape-rendering="crispEdges"/><rect fill="#000000" x="1171.2" y="318.7" width="12.2" height="24.65" shape-rendering="crispEdges"/><rect fill="#000000" x="1183.4" y="318.7" width="12.2" height="24.65" shape-rendering="crispEdges"/><rect fill="#141414" x="1195.6" y="318.7" width="24.4" height="24.65" shape-rendering="crispEdges"/><rect fill="#141414" x="0" y="343.1" width="24.4" height="24.65" shape-rendering="crispEdges"/><rect fill="#141414" x="24.4" y="343.1" width="12.2" height="24.65" shape-rendering="crispEdges"/><rect fill="#141414" x="36.6" y="343.1" width="256.2" height="24.65" shape-rendering="crispEdges"/><rect fill="#141414" x="292.8" y="343.1" width="890.6" height="24.65" shape-rendering="crispEdges"/><rect fill="#141414" x="1183.4" y="343.1" width="12.2" height="24.65" shape-rendering="crispEdges"/><rect fill="#141414" x="1195.6" y="343.1" width="24.4" height="24.65" shape-rendering="crispEdges"/><rect fill="#141414" x="0" y="367.5" width="24.4" height="24.65" shape-rendering="crispEdges"/><rect fill="#141414" x="24.4" y="367.5" width="12.2" height="24.65" shape-rendering="crispEdges"/><rect fill="#141414" x="36.6" y="367.5" width="1146.8" height="24.65" shape-rendering="crispEdges"/><rect fill="#141414" x="1183.4" y="367.5" width="12.2" height="24.65" shape-rendering="crispEdges"/><rect fill="#141414" x="1195.6" y="367.5" width="24.4" height="24.65" shape-rendering="crispEdges"/><rect fill="#141414" x="0" y="391.9" width="24.4" height="24.65" shape-rendering="crispEdges"/><rect fill="#141414" x="24.4" y="391.9" width="1171.2" height="24.65" shape-rendering="crispEdges"/><rect fill="#141414" x="1195.6" y="391.9" width="24.4" height="24.65" shape-rendering="crispEdges"/><rect fill="#141414" x="0" y="416.3" width="24.4" height="24.65" shape-rendering="crispEdges"/><rect fill="#141414" x="24.4" y="416.3" width="1171.2" height="24.65" shape-rendering="crispEdges"/><rect fill="#141414" x="1195.6" y="416.3" width="24.4" height="24.65" shape-rendering="crispEdges"/><rect fill="#141414" x="0" y="440.7" width="24.4" height="24.65" shape-rendering="crispEdges"/><rect fill="#141414" x="24.4" y="440.7" width="1171.2" height="24.65" shape-rendering="crispEdges"/><rect fill="#141414" x="1195.6" y="440.7" width="24.4" height="24.65" shape-rendering="crispEdges"/><rect fill="#141414" x="0" y="465.1" width="24.4" height="24.65" shape-rendering="crispEdges"/><rect fill="#141414" x="24.4" y="465.1" width="402.6" height="24.65" shape-rendering="crispEdges"/><rect fill="#141414" x="427" y="465.1" width="768.6" height="24.65" shape-rendering="crispEdges"/><rect fill="#141414" x="1195.6" y="465.1" width="24.4" height="24.65" shape-rendering="crispEdges"/><rect fill="#141414" x="0" y="489.5" width="24.4" height="24.65" shape-rendering="crispEdges"/><rect fill="#141414" x="24.4" y="489.5" width="1171.2" height="24.65" shape-rendering="crispEdges"/><rect fill="#141414" x="1195.6" y="489.5" width="24.4" height="24.65" shape-rendering="crispEdges"/><rect fill="#141414" x="0" y="513.9" width="24.4" height="24.65" shape-rendering="crispEdges"/><rect fill="#141414" x="24.4" y="513.9" width="97.6" height="24.65" shape-rendering="crispEdges"/><rect fill="#141414" x="122" y="513.9" width="97.6" height="24.65" shape-rendering="crispEdges"/><rect fill="#141414" x="219.6" y="513.9" width="976" height="24.65" shape-rendering="crispEdges"/><rect fill="#141414" x="1195.6" y="513.9" width="24.4" height="24.65" shape-rendering="crispEdges"/><rect fill="#141414" x="0" y="538.3" width="24.4" height="24.65" shape-rendering="crispEdges"/><rect fill="#141414" x="24.4" y="538.3" width="73.2" height="24.65" shape-rendering="crispEdges"/><rect fill="#141414" x="97.6" y="538.3" width="73.2" height="24.65" shape-rendering="crispEdges"/><rect fill="#141414" x="170.8" y="538.3" width="1024.8" height="24.65" shape-rendering="crispEdges"/><rect fill="#141414" x="1195.6" y="538.3" width="24.4" height="24.65" shape-rendering="crispEdges"/><rect fill="#141414" x="0" y="562.7" width="24.4" height="24.65" shape-rendering="crispEdges"/><rect fill="#141414" x="24.4" y="562.7" width="134.2" height="24.65" shape-rendering="crispEdges"/><rect fill="#141414" x="158.6" y="562.7" width="158.6" height="24.65" shape-rendering="crispEdges"/><rect fill="#141414" x="317.2" y="562.7" width="878.4" height="24.65" shape-rendering="crispEdges"/><rect fill="#141414" x="1195.6" y="562.7" width="24.4" height="24.65" shape-rendering="crispEdges"/><rect fill="#141414" x="0" y="587.1" width="24.4" height="24.65" shape-rendering="crispEdges"/><rect fill="#141414" x="24.4" y="587.1" width="146.4" height="24.65" shape-rendering="crispEdges"/><rect fill="#141414" x="170.8" y="587.1" width="73.2" height="24.65" shape-rendering="crispEdges"/><rect fill="#141414" x="244" y="587.1" width="951.6" height="24.65" shape-rendering="crispEdges"/><rect fill="#141414" x="1195.6" y="587.1" width="24.4" height="24.65" shape-rendering="crispEdges"/><rect fill="#141414" x="0" y="611.5" width="24.4" height="24.65" shape-rendering="crispEdges"/><rect fill="#141414" x="24.4" y="611.5" width="134.2" height="24.65" shape-rendering="crispEdges"/><rect fill="#141414" x="158.6" y="611.5" width="732" height="24.65" shape-rendering="crispEdges"/><rect fill="#141414" x="890.6" y="611.5" width="305" height="24.65" shape-rendering="crispEdges"/><rect fill="#141414" x="1195.6" y="611.5" width="24.4" height="24.65" shape-rendering="crispEdges"/><rect fill="#141414" x="0" y="635.9" width="24.4" height="24.65" shape-rendering="crispEdges"/><rect fill="#141414" x="24.4" y="635.9" width="109.8" height="24.65" shape-rendering="crispEdges"/><rect fill="#141414" x="134.2" y="635.9" width="12.2" height="24.65" shape-rendering="crispEdges"/><rect fill="#141414" x="146.4" y="635.9" width="1049.2" height="24.65" shape-rendering="crispEdges"/><rect fill="#141414" x="1195.6" y="635.9" width="24.4" height="24.65" shape-rendering="crispEdges"/><rect fill="#141414" x="0" y="660.3" width="24.4" height="24.65" shape-rendering="crispEdges"/><rect fill="#141414" x="24.4" y="660.3" width="73.2" height="24.65" shape-rendering="crispEdges"/><rect fill="#141414" x="97.6" y="660.3" width="366" height="24.65" shape-rendering="crispEdges"/><rect fill="#141414" x="463.6" y="660.3" width="732" height="24.65" shape-rendering="crispEdges"/><rect fill="#141414" x="1195.6" y="660.3" width="24.4" height="24.65" shape-rendering="crispEdges"/><rect fill="#141414" x="0" y="684.7" width="1220" height="24.65" shape-rendering="crispEdges"/><rect fill="#1b1b1b" x="0" y="709.1" width="36.6" height="24.65" shape-rendering="crispEdges"/><rect fill="#1b1b1b" x="36.6" y="709.1" width="61" height="24.65" shape-rendering="crispEdges"/><rect fill="#1b1b1b" x="97.6" y="709.1" width="36.6" height="24.65" shape-rendering="crispEdges"/><rect fill="#1b1b1b" x="134.2" y="709.1" width="48.8" height="24.65" shape-rendering="crispEdges"/><rect fill="#1b1b1b" x="183" y="709.1" width="36.6" height="24.65" shape-rendering="crispEdges"/><rect fill="#1b1b1b" x="219.6" y="709.1" width="109.8" height="24.65" shape-rendering="crispEdges"/><rect fill="#1b1b1b" x="329.4" y="709.1" width="36.6" height="24.65" shape-rendering="crispEdges"/><rect fill="#1b1b1b" x="366" y="709.1" width="48.8" height="24.65" shape-rendering="crispEdges"/><rect fill="#1b1b1b" x="414.8" y="709.1" width="36.6" height="24.65" shape-rendering="crispEdges"/><rect fill="#1b1b1b" x="451.4" y="709.1" width="85.4" height="24.65" shape-rendering="crispEdges"/><rect fill="#1b1b1b" x="536.8" y="709.1" width="36.6" height="24.65" shape-rendering="crispEdges"/><rect fill="#1b1b1b" x="573.4" y="709.1" width="97.6" height="24.65" shape-rendering="crispEdges"/><rect fill="#1b1b1b" x="671" y="709.1" width="36.6" height="24.65" shape-rendering="crispEdges"/><rect fill="#1b1b1b" x="707.6" y="709.1" width="85.4" height="24.65" shape-rendering="crispEdges"/><rect fill="#1b1b1b" x="793" y="709.1" width="280.6" height="24.65" shape-rendering="crispEdges"/><rect fill="#1b1b1b" x="1073.6" y="709.1" width="12.2" height="24.65" shape-rendering="crispEdges"/><rect fill="#1b1b1b" x="1085.8" y="709.1" width="24.4" height="24.65" shape-rendering="crispEdges"/><rect fill="#1b1b1b" x="1110.2" y="709.1" width="97.6" height="24.65" shape-rendering="crispEdges"/><rect fill="#1b1b1b" x="1207.8" y="709.1" width="12.2" height="24.65" shape-rendering="crispEdges"/>
    <g class="terminal-4124072131-matrix">
    <text class="terminal-4124072131-r2" x="24.4" y="20" textLength="292.8" clip-path="url(#terminal-4124072131-line-0)">Workflow&#160;Session&#160;Manager</text><text class="terminal-4124072131-r1" x="1220" y="20" textLength="12.2" clip-path="url(#terminal-4124072131-line-0)">
</text><text class="terminal-4124072131-r3" x="24.4" y="44.4" textLength="12.2" clip-path="url(#terminal-4124072131-line-1)">▊</text><text class="terminal-4124072131-r4" x="36.6" y="44.4" textLength="1146.8" clip-path="url(#terminal-4124072131-line-1)">▔▔▔▔▔▔▔▔▔▔▔▔▔▔▔▔▔▔▔▔▔▔▔▔▔▔▔▔▔▔▔▔▔▔▔▔▔▔▔▔▔▔▔▔▔▔▔▔▔▔▔▔▔▔▔▔▔▔▔▔▔▔▔▔▔▔▔▔▔▔▔▔▔▔▔▔▔▔▔▔▔▔▔▔▔▔▔▔▔▔▔▔▔▔</text><text class="terminal-4124072131-r4" x="1183.4" y="44.4" textLength="12.2" clip-path="url(#terminal-4124072131-line-1)">▎</text><text class="terminal-4124072131-r1" x="1220" y="44.4" textLength="12.2" clip-path="url(#terminal-4124072131-line-1)">
</text><text class="terminal-4124072131-r3" x="24.4" y="68.8" textLength="12.2" clip-path="url(#terminal-4124072131-line-2)">▊</text><text class="terminal-4124072131-r5" x="61" y="68.8" textLength="183" clip-path="url(#terminal-4124072131-line-2)">Search&#160;sessions</text><text class="terminal-4124072131-r4" x="1183.4" y="68.8" textLength="12.2" clip-path="url(#terminal-4124072131-line-2)">▎</text><text class="terminal-4124072131-r1" x="1220" y="68.8" textLength="12.2" clip-path="url(#terminal-4124072131-line-2)">
</text><text class="terminal-4124072131-r3" x="24.4" y="93.2" textLength="12.2" clip-path="url(#terminal-4124072131-line-3)">▊</text><text class="terminal-4124072131-r4" x="36.6" y="93.2" textLength="1146.8" clip-path="url(#terminal-4124072131-line-3)">▁▁▁▁▁▁▁▁▁▁▁▁▁▁▁▁▁▁▁▁▁▁▁▁▁▁▁▁▁▁▁▁▁▁▁▁▁▁▁▁▁▁▁▁▁▁▁▁▁▁▁▁▁▁▁▁▁▁▁▁▁▁▁▁▁▁▁▁▁▁▁▁▁▁▁▁▁▁▁▁▁▁▁▁▁▁▁▁▁▁▁▁▁▁</text><text class="terminal-4124072131-r4" x="1183.4" y="93.2" textLength="12.2" clip-path="url(#terminal-4124072131-line-3)">▎</text><text class="terminal-4124072131-r1" x="1220" y="93.2" textLength="12.2" clip-path="url(#terminal-4124072131-line-3)">
</text><text class="terminal-4124072131-r1" x="1220" y="117.6" textLength="12.2" clip-path="url(#terminal-4124072131-line-4)">
</text><text class="terminal-4124072131-r7" x="61" y="142" textLength="427" clip-path="url(#terminal-4124072131-line-5)">&#160;Session&#160;&#160;&#160;&#160;&#160;&#160;&#160;&#160;&#160;&#160;&#160;&#160;&#160;&#160;&#160;&#160;&#160;&#160;&#160;&#160;&#160;&#160;&#160;&#160;&#160;&#160;&#160;</text><text class="terminal-4124072131-r7" x="488" y="142" textLength="97.6" clip-path="url(#terminal-4124072131-line-5)">&#160;Tool&#160;&#160;&#160;</text><text class="terminal-4124072131-r7" x="585.6" y="142" textLength="122" clip-path="url(#terminal-4124072131-line-5)">&#160;State&#160;&#160;&#160;&#160;</text><text class="terminal-4124072131-r7" x="707.6" y="142" textLength="488" clip-path="url(#terminal-4124072131-line-5)">&#160;Directory&#160;&#160;&#160;&#160;&#160;&#160;&#160;&#160;&#160;&#160;&#160;&#160;&#160;&#160;&#160;&#160;&#160;&#160;&#160;&#160;&#160;&#160;&#160;&#160;&#160;&#160;&#160;&#160;&#160;&#160;</text><text class="terminal-4124072131-r1" x="1220" y="142" textLength="12.2" clip-path="url(#terminal-4124072131-line-5)">
</text><text class="terminal-4124072131-r8" x="24.4" y="166.4" textLength="36.6" clip-path="url(#terminal-4124072131-line-6)">&#160;*&#160;</text><text class="terminal-4124072131-r8" x="61" y="166.4" textLength="427" clip-path="url(#terminal-4124072131-line-6)">&#160;claude-ff-astrology-pancha-pakshi&#160;</text><text class="terminal-4124072131-r8" x="488" y="166.4" textLength="97.6" clip-path="url(#terminal-4124072131-line-6)">&#160;claude&#160;</text><text class="terminal-4124072131-r8" x="585.6" y="166.4" textLength="122" clip-path="url(#terminal-4124072131-line-6)">&#160;attached&#160;</text><text class="terminal-4124072131-r8" x="707.6" y="166.4" textLength="488" clip-path="url(#terminal-4124072131-line-6)">&#160;/tmp/tmpatdz9ac6/workspace/projects/fer</text><text class="terminal-4124072131-r1" x="1220" y="166.4" textLength="12.2" clip-path="url(#terminal-4124072131-line-6)">
</text><text class="terminal-4124072131-r6" x="61" y="190.8" textLength="427" clip-path="url(#terminal-4124072131-line-7)">&#160;maintenance-shell&#160;&#160;&#160;&#160;&#160;&#160;&#160;&#160;&#160;&#160;&#160;&#160;&#160;&#160;&#160;&#160;&#160;</text><text class="terminal-4124072131-r6" x="488" y="190.8" textLength="97.6" clip-path="url(#terminal-4124072131-line-7)">&#160;shell&#160;&#160;</text><text class="terminal-4124072131-r6" x="585.6" y="190.8" textLength="122" clip-path="url(#terminal-4124072131-line-7)">&#160;paused&#160;&#160;&#160;</text><text class="terminal-4124072131-r6" x="707.6" y="190.8" textLength="488" clip-path="url(#terminal-4124072131-line-7)">&#160;/tmp/tmpatdz9ac6/workspace/projects/fer</text><text class="terminal-4124072131-r1" x="1220" y="190.8" textLength="12.2" clip-path="url(#terminal-4124072131-line-7)">
</text><text class="terminal-4124072131-r6" x="61" y="215.2" textLength="427" clip-path="url(#terminal-4124072131-line-8)">&#160;codex-tax-section&#160;&#160;&#160;&#160;&#160;&#160;&#160;&#160;&#160;&#160;&#160;&#160;&#160;&#160;&#160;&#160;&#160;</text><text class="terminal-4124072131-r6" x="488" y="215.2" textLength="97.6" clip-path="url(#terminal-4124072131-line-8)">&#160;codex&#160;&#160;</text><text class="terminal-4124072131-r6" x="585.6" y="215.2" textLength="122" clip-path="url(#terminal-4124072131-line-8)">&#160;blocked&#160;&#160;</text><text class="terminal-4124072131-r6" x="707.6" y="215.2" textLength="488" clip-path="url(#terminal-4124072131-line-8)">&#160;/tmp/tmpatdz9ac6/workspace/projects/fer</text><text class="terminal-4124072131-r1" x="1220" y="215.2" textLength="12.2" clip-path="url(#terminal-4124072131-line-8)">
</text><text class="terminal-4124072131-r6" x="61" y="239.6" textLength="427" clip-path="url(#terminal-4124072131-line-9)">&#160;codex-astrology-website&#160;&#160;&#160;&#160;&#160;&#160;&#160;&#160;&#160;&#160;&#160;</text><text class="terminal-4124072131-r6" x="488" y="239.6" textLength="97.6" clip-path="url(#terminal-4124072131-line-9)">&#160;codex&#160;&#160;</text><text class="terminal-4124072131-r6" x="585.6" y="239.6" textLength="122" clip-path="url(#terminal-4124072131-line-9)">&#160;active&#160;&#160;&#160;</text><text class="terminal-4124072131-r6" x="707.6" y="239.6" textLength="488" clip-path="url(#terminal-4124072131-line-9)">&#160;/tmp/tmpatdz9ac6/workspace/projects/fer</text><text class="terminal-4124072131-r1" x="1220" y="239.6" textLength="12.2" clip-path="url(#terminal-4124072131-line-9)">
</text><text class="terminal-4124072131-r6" x="61" y="264" textLength="427" clip-path="url(#terminal-4124072131-line-10)">&#160;claude-graphify&#160;&#160;&#160;&#160;&#160;&#160;&#160;&#160;&#160;&#160;&#160;&#160;&#160;&#160;&#160;&#160;&#160;&#160;&#160;</text><text class="terminal-4124072131-r6" x="488" y="264" textLength="97.6" clip-path="url(#terminal-4124072131-line-10)">&#160;claude&#160;</text><text class="terminal-4124072131-r6" x="585.6" y="264" textLength="122" clip-path="url(#terminal-4124072131-line-10)">&#160;waiting&#160;&#160;</text><text class="terminal-4124072131-r6" x="707.6" y="264" textLength="488" clip-path="url(#terminal-4124072131-line-10)">&#160;/tmp/tmpatdz9ac6/workspace/projects/fer</text><text class="terminal-4124072131-r1" x="1220" y="264" textLength="12.2" clip-path="url(#terminal-4124072131-line-10)">
</text><text class="terminal-4124072131-r1" x="1220" y="288.4" textLength="12.2" clip-path="url(#terminal-4124072131-line-11)">
</text><text class="terminal-4124072131-r1" x="1220" y="312.8" textLength="12.2" clip-path="url(#terminal-4124072131-line-12)">
</text><text class="terminal-4124072131-r10" x="976" y="337.2" textLength="12.2" clip-path="url(#terminal-4124072131-line-13)">▏</text><text class="terminal-4124072131-r1" x="1220" y="337.2" textLength="12.2" clip-path="url(#terminal-4124072131-line-13)">
</text><text class="terminal-4124072131-r11" x="36.6" y="361.6" textLength="256.2" clip-path="url(#terminal-4124072131-line-14)">5&#160;shown&#160;&#160;|&#160;&#160;5&#160;managed</text><text class="terminal-4124072131-r1" x="1220" y="361.6" textLength="12.2" clip-path="url(#terminal-4124072131-line-14)">
</text><text class="terminal-4124072131-r1" x="1220" y="386" textLength="12.2" clip-path="url(#terminal-4124072131-line-15)">
</text><text class="terminal-4124072131-r1" x="1220" y="410.4" textLength="12.2" clip-path="url(#terminal-4124072131-line-16)">
</text><text class="terminal-4124072131-r4" x="24.4" y="434.8" textLength="1171.2" clip-path="url(#terminal-4124072131-line-17)">────────────────────────────────────────────────────────────────────────────────────────────────</text><text class="terminal-4124072131-r1" x="1220" y="434.8" textLength="12.2" clip-path="url(#terminal-4124072131-line-17)">
</text><text class="terminal-4124072131-r1" x="1220" y="459.2" textLength="12.2" clip-path="url(#terminal-4124072131-line-18)">
</text><text class="terminal-4124072131-r12" x="24.4" y="483.6" textLength="402.6" clip-path="url(#terminal-4124072131-line-19)">claude-ff-astrology-pancha-pakshi</text><text class="terminal-4124072131-r1" x="1220" y="483.6" textLength="12.2" clip-path="url(#terminal-4124072131-line-19)">
</text><text class="terminal-4124072131-r1" x="1220" y="508" textLength="12.2" clip-path="url(#terminal-4124072131-line-20)">
</text><text class="terminal-4124072131-r13" x="24.4" y="532.4" textLength="97.6" clip-path="url(#terminal-4124072131-line-21)">Status:&#160;</text><text class="terminal-4124072131-r14" x="122" y="532.4" textLength="97.6" clip-path="url(#terminal-4124072131-line-21)">attached</text><text class="terminal-4124072131-r1" x="1220" y="532.4" textLength="12.2" clip-path="url(#terminal-4124072131-line-21)">
</text><text class="terminal-4124072131-r13" x="24.4" y="556.8" textLength="73.2" clip-path="url(#terminal-4124072131-line-22)">Tool:&#160;</text><text class="terminal-4124072131-r14" x="97.6" y="556.8" textLength="73.2" clip-path="url(#terminal-4124072131-line-22)">claude</text><text class="terminal-4124072131-r1" x="1220" y="556.8" textLength="12.2" clip-path="url(#terminal-4124072131-line-22)">
</text><text class="terminal-4124072131-r13" x="24.4" y="581.2" textLength="134.2" clip-path="url(#terminal-4124072131-line-23)">Ownership:&#160;</text><text class="terminal-4124072131-r14" x="158.6" y="581.2" textLength="158.6" clip-path="url(#terminal-4124072131-line-23)">managed&#160;by&#160;WF</text><text class="terminal-4124072131-r1" x="1220" y="581.2" textLength="12.2" clip-path="url(#terminal-4124072131-line-23)">
</text><text class="terminal-4124072131-r13" x="24.4" y="605.6" textLength="146.4" clip-path="url(#terminal-4124072131-line-24)">Task&#160;state:&#160;</text><text class="terminal-4124072131-r14" x="170.8" y="605.6" textLength="73.2" clip-path="url(#terminal-4124072131-line-24)">active</text><text class="terminal-4124072131-r1" x="1220" y="605.6" textLength="12.2" clip-path="url(#terminal-4124072131-line-24)">
</text><text class="terminal-4124072131-r13" x="24.4" y="630" textLength="134.2" clip-path="url(#terminal-4124072131-line-25)">Directory:&#160;</text><text class="terminal-4124072131-r14" x="158.6" y="630" textLength="732" clip-path="url(#terminal-4124072131-line-25)">/tmp/tmpatdz9ac6/workspace/projects/fernandofamily-astrology</text><text class="terminal-4124072131-r1" x="1220" y="630" textLength="12.2" clip-path="url(#terminal-4124072131-line-25)">
</text><text class="terminal-4124072131-r13" x="24.4" y="654.4" textLength="109.8" clip-path="url(#terminal-4124072131-line-26)">Windows:&#160;</text><text class="terminal-4124072131-r14" x="134.2" y="654.4" textLength="12.2" clip-path="url(#terminal-4124072131-line-26)">1</text><text class="terminal-4124072131-r1" x="1220" y="654.4" textLength="12.2" clip-path="url(#terminal-4124072131-line-26)">
</text><text class="terminal-4124072131-r13" x="24.4" y="678.8" textLength="73.2" clip-path="url(#terminal-4124072131-line-27)">Note:&#160;</text><text class="terminal-4124072131-r14" x="97.6" y="678.8" textLength="366" clip-path="url(#terminal-4124072131-line-27)">Build&#160;bilingual&#160;astrology&#160;site</text><text class="terminal-4124072131-r1" x="1220" y="678.8" textLength="12.2" clip-path="url(#terminal-4124072131-line-27)">
</text><text class="terminal-4124072131-r1" x="1220" y="703.2" textLength="12.2" clip-path="url(#terminal-4124072131-line-28)">
</text><text class="terminal-4124072131-r15" x="0" y="727.6" textLength="36.6" clip-path="url(#terminal-4124072131-line-29)">&#160;q&#160;</text><text class="terminal-4124072131-r6" x="36.6" y="727.6" textLength="61" clip-path="url(#terminal-4124072131-line-29)">Quit&#160;</text><text class="terminal-4124072131-r15" x="97.6" y="727.6" textLength="36.6" clip-path="url(#terminal-4124072131-line-29)">&#160;n&#160;</text><text class="terminal-4124072131-r6" x="134.2" y="727.6" textLength="48.8" clip-path="url(#terminal-4124072131-line-29)">New&#160;</text><text class="terminal-4124072131-r15" x="183" y="727.6" textLength="36.6" clip-path="url(#terminal-4124072131-line-29)">&#160;e&#160;</text><text class="terminal-4124072131-r6" x="219.6" y="727.6" textLength="109.8" clip-path="url(#terminal-4124072131-line-29)">Organize&#160;</text><text class="terminal-4124072131-r15" x="329.4" y="727.6" textLength="36.6" clip-path="url(#terminal-4124072131-line-29)">&#160;p&#160;</text><text class="terminal-4124072131-r6" x="366" y="727.6" textLength="48.8" clip-path="url(#terminal-4124072131-line-29)">Pin&#160;</text><text class="terminal-4124072131-r15" x="414.8" y="727.6" textLength="36.6" clip-path="url(#terminal-4124072131-line-29)">&#160;d&#160;</text><text class="terminal-4124072131-r6" x="451.4" y="727.6" textLength="85.4" clip-path="url(#terminal-4124072131-line-29)">Delete&#160;</text><text class="terminal-4124072131-r15" x="536.8" y="727.6" textLength="36.6" clip-path="url(#terminal-4124072131-line-29)">&#160;r&#160;</text><text class="terminal-4124072131-r6" x="573.4" y="727.6" textLength="97.6" clip-path="url(#terminal-4124072131-line-29)">Refresh&#160;</text><text class="terminal-4124072131-r15" x="671" y="727.6" textLength="36.6" clip-path="url(#terminal-4124072131-line-29)">&#160;/&#160;</text><text class="terminal-4124072131-r6" x="707.6" y="727.6" textLength="85.4" clip-path="url(#terminal-4124072131-line-29)">Search&#160;</text><text class="terminal-4124072131-r16" x="1073.6" y="727.6" textLength="12.2" clip-path="url(#terminal-4124072131-line-29)">▏</text><text class="terminal-4124072131-r15" x="1085.8" y="727.6" textLength="24.4" clip-path="url(#terminal-4124072131-line-29)">^p</text><text class="terminal-4124072131-r6" x="1110.2" y="727.6" textLength="97.6" clip-path="url(#terminal-4124072131-line-29)">&#160;palette</text>
    </g>
    </g>
</svg>
