<svg class="rich-terminal" viewBox="0 0 994 635.5999999999999" xmlns="http://www.w3.org/2000/svg">
    <!-- Generated with Rich https://www.textualize.io -->
    <style>

    @font-face {
        font-family: "Fira Code";
        src: local("FiraCode-Regular"),
                url("https://cdnjs.cloudflare.com/ajax/libs/firacode/6.2.0/woff2/FiraCode-Regular.woff2") format("woff2"),
                url("https://cdnjs.cloudflare.com/ajax/libs/firacode/6.2.0/woff/FiraCode-Regular.woff") format("woff");
        font-style: normal;
        font-weight: 400;
    }
    @font-face {
        font-family: "Fira Code";
        src: local("FiraCode-Bold"),
                url("https://cdnjs.cloudflare.com/ajax/libs/firacode/6.2.0/woff2/FiraCode-Bold.woff2") format("woff2"),
                url("https://cdnjs.cloudflare.com/ajax/libs/firacode/6.2.0/woff/FiraCode-Bold.woff") format("woff");
        font-style: bold;
        font-weight: 700;
    }

    .terminal-3348723253-matrix {
        font-family: Fira Code, monospace;
        font-size: 20px;
        line-height: 24.4px;
        font-variant-east-asian: full-width;
    }

    .terminal-3348723253-title {
        font-size: 18px;
        font-weight: bold;
        font-family: arial;
    }

    .terminal-3348723253-r1 { fill: #72c78e;font-weight: bold }
.terminal-3348723253-r2 { fill: #dce3e7 }
.terminal-3348723253-r3 { fill: #aab5bc }
.terminal-3348723253-r4 { fill: #c5c8c6 }
.terminal-3348723253-r5 { fill: #303941 }
.terminal-3348723253-r6 { fill: #7e8c95 }
.terminal-3348723253-r7 { fill: #8fa1ac;font-weight: bold }
.terminal-3348723253-r8 { fill: #e0e0e0 }
.terminal-3348723253-r9 { fill: #66aaff;font-weight: bold }
.terminal-3348723253-r10 { fill: #ffffff }
.terminal-3348723253-r11 { fill: #e9b44c }
.terminal-3348723253-r12 { fill: #c792ea;font-weight: bold }
.terminal-3348723253-r13 { fill: #eef3f6;font-weight: bold }
.terminal-3348723253-r14 { fill: #9aa6ad }
.terminal-3348723253-r15 { fill: #72c78e }
.terminal-3348723253-r16 { fill: #c4cdd2 }
    </style>

    <defs>
    <clipPath id="terminal-3348723253-clip-terminal">
      <rect x="0" y="0" width="975.0" height="584.5999999999999" />
    </clipPath>
    <clipPath id="terminal-3348723253-line-0">
    <rect x="0" y="1.5" width="976" height="24.65"/>
            </clipPath>
<clipPath id="terminal-3348723253-line-1">
    <rect x="0" y="25.9" width="976" height="24.65"/>
            </clipPath>
<clipPath id="terminal-3348723253-line-2">
    <rect x="0" y="50.3" width="976" height="24.65"/>
            </clipPath>
<clipPath id="terminal-3348723253-line-3">
    <rect x="0" y="74.7" width="976" height="24.65"/>
            </clipPath>
<clipPath id="terminal-3348723253-line-4">
    <rect x="0" y="99.1" width="976" height="24.65"/>
            </clipPath>
<clipPath id="terminal-3348723253-line-5">
    <rect x="0" y="123.5" width="976" height="24.65"/>
            </clipPath>
<clipPath id="terminal-3348723253-line-6">
    <rect x="0" y="147.9" width="976" height="24.65"/>
            </clipPath>
<clipPath id="terminal-3348723253-line-7">
    <rect x="0" y="172.3" width="976" height="24.65"/>
            </clipPath>
<clipPath id="terminal-3348723253-line-8">
    <rect x="0" y="196.7" width="976" height="24.65"/>
            </clipPath>
<clipPath id="terminal-3348723253-line-9">
    <rect x="0" y="221.1" width="976" height="24.65"/>
            </clipPath>
<clipPath id="terminal-3348723253-line-10">
    <rect x="0" y="245.5" width="976" height="24.65"/>
            </clipPath>
<clipPath id="terminal-3348723253-line-11">
    <rect x="0" y="269.9" width="976" height="24.65"/>
            </clipPath>
<clipPath id="terminal-3348723253-line-12">
    <rect x="0" y="294.3" width="976" height="24.65"/>
            </clipPath>
<clipPath id="terminal-3348723253-line-13">
    <rect x="0" y="318.7" width="976" height="24.65"/>
            </clipPath>
<clipPath id="terminal-3348723253-line-14">
    <rect x="0" y="343.1" width="976" height="24.65"/>
            </clipPath>
<clipPath id="terminal-3348723253-line-15">
    <rect x="0" y="367.5" width="976" height="24.65"/>
            </clipPath>
<clipPath id="terminal-3348723253-line-16">
    <rect x="0" y="391.9" width="976" height="24.65"/>
            </clipPath>
<clipPath id="terminal-3348723253-line-17">
    <rect x="0" y="416.3" width="976" height="24.65"/>
            </clipPath>
<clipPath id="terminal-3348723253-line-18">
    <rect x="0" y="440.7" width="976" height="24.65"/>
            </clipPath>
<clipPath id="terminal-3348723253-line-19">
    <rect x="0" y="465.1" width="976" height="24.65"/>
            </clipPath>
<clipPath id="terminal-3348723253-line-20">
    <rect x="0" y="489.5" width="976" height="24.65"/>
            </clipPath>
<clipPath id="terminal-3348723253-line-21">
    <rect x="0" y="513.9" width="976" height="24.65"/>
            </clipPath>
<clipPath id="terminal-3348723253-line-22">
    <rect x="0" y="538.3" width="976" height="24.65"/>
            </clipPath>
    </defs>

    <rect fill="#292929" stroke="rgba(255,255,255,0.35)" stroke-width="1" x="1" y="1" width="992" height="633.6" rx="8"/><text class="terminal-3348723253-title" fill="#c5c8c6" text-anchor="middle" x="496" y="27">WF&#160;-&#160;Workflow&#160;Session&#160;Manager</text>
            <g transform="translate(26,22)">
            <circle cx="0" cy="0" r="7" fill="#ff5f57"/>
            <circle cx="22" cy="0" r="7" fill="#febc2e"/>
            <circle cx="44" cy="0" r="7" fill="#28c840"/>
            </g>
        
    <g transform="translate(9, 41)" clip-path="url(#terminal-3348723253-clip-terminal)">
    <rect fill="#181d21" x="0" y="1.5" width="24.4" height="24.65" shape-rendering="crispEdges"/><rect fill="#181d21" x="24.4" y="1.5" width="414.8" height="24.65" shape-rendering="crispEdges"/><rect fill="#181d21" x="439.2" y="1.5" width="451.4" height="24.65" shape-rendering="crispEdges"/><rect fill="#181d21" x="890.6" y="1.5" width="85.4" height="24.65" shape-rendering="crispEdges"/><rect fill="#181d21" x="0" y="25.9" width="976" height="24.65" shape-rendering="crispEdges"/><rect fill="#1c2123" x="0" y="50.3" width="12.2" height="24.65" shape-rendering="crispEdges"/><rect fill="#12171a" x="12.2" y="50.3" width="12.2" height="24.65" shape-rendering="crispEdges"/><rect fill="#12171a" x="24.4" y="50.3" width="158.6" height="24.65" shape-rendering="crispEdges"/><rect fill="#12171a" x="183" y="50.3" width="768.6" height="24.65" shape-rendering="crispEdges"/><rect fill="#12171a" x="951.6" y="50.3" width="12.2" height="24.65" shape-rendering="crispEdges"/><rect fill="#1c2123" x="963.8" y="50.3" width="12.2" height="24.65" shape-rendering="crispEdges"/><rect fill="#1c2123" x="0" y="74.7" width="12.2" height="24.65" shape-rendering="crispEdges"/><rect fill="#1c2123" x="12.2" y="74.7" width="12.2" height="24.65" shape-rendering="crispEdges"/><rect fill="#1c2123" x="24.4" y="74.7" width="24.4" height="24.65" shape-rendering="crispEdges"/><rect fill="#1c2123" x="48.8" y="74.7" width="170.8" height="24.65" shape-rendering="crispEdges"/><rect fill="#1c2123" x="219.6" y="74.7" width="732" height="24.65" shape-rendering="crispEdges"/><rect fill="#1c2123" x="951.6" y="74.7" width="12.2" height="24.65" shape-rendering="crispEdges"/><rect fill="#1c2123" x="963.8" y="74.7" width="12.2" height="24.65" shape-rendering="crispEdges"/><rect fill="#1c2123" x="0" y="99.1" width="12.2" height="24.65" shape-rendering="crispEdges"/><rect fill="#1c2123" x="12.2" y="99.1" width="12.2" height="24.65" shape-rendering="crispEdges"/><rect fill="#1c2123" x="24.4" y="99.1" width="24.4" height="24.65" shape-rendering="crispEdges"/><rect fill="#1c2123" x="48.8" y="99.1" width="158.6" height="24.65" shape-rendering="crispEdges"/><rect fill="#1c2123" x="207.4" y="99.1" width="744.2" height="24.65" shape-rendering="crispEdges"/><rect fill="#1c2123" x="951.6" y="99.1" width="12.2" height="24.65" shape-rendering="crispEdges"/><rect fill="#1c2123" x="963.8" y="99.1" width="12.2" height="24.65" shape-rendering="crispEdges"/><rect fill="#1c2123" x="0" y="123.5" width="12.2" height="24.65" shape-rendering="crispEdges"/><rect fill="#1c2123" x="12.2" y="123.5" width="12.2" height="24.65" shape-rendering="crispEdges"/><rect fill="#1c2123" x="24.4" y="123.5" width="24.4" height="24.65" shape-rendering="crispEdges"/><rect fill="#1c2123" x="48.8" y="123.5" width="122" height="24.65" shape-rendering="crispEdges"/><rect fill="#1c2123" x="170.8" y="123.5" width="780.8" height="24.65" shape-rendering="crispEdges"/><rect fill="#1c2123" x="951.6" y="123.5" width="12.2" height="24.65" shape-rendering="crispEdges"/><rect fill="#1c2123" x="963.8" y="123.5" width="12.2" height="24.65" shape-rendering="crispEdges"/><rect fill="#1c2123" x="0" y="147.9" width="12.2" height="24.65" shape-rendering="crispEdges"/><rect fill="#1c2123" x="12.2" y="147.9" width="12.2" height="24.65" shape-rendering="crispEdges"/><rect fill="#1c2123" x="24.4" y="147.9" width="24.4" height="24.65" shape-rendering="crispEdges"/><rect fill="#1c2123" x="48.8" y="147.9" width="73.2" height="24.65" shape-rendering="crispEdges"/><rect fill="#1c2123" x="122" y="147.9" width="829.6" height="24.65" shape-rendering="crispEdges"/><rect fill="#1c2123" x="951.6" y="147.9" width="12.2" height="24.65" shape-rendering="crispEdges"/><rect fill="#1c2123" x="963.8" y="147.9" width="12.2" height="24.65" shape-rendering="crispEdges"/><rect fill="#1c2123" x="0" y="172.3" width="12.2" height="24.65" shape-rendering="crispEdges"/><rect fill="#12171a" x="12.2" y="172.3" width="12.2" height="24.65" shape-rendering="crispEdges"/><rect fill="#12171a" x="24.4" y="172.3" width="134.2" height="24.65" shape-rendering="crispEdges"/><rect fill="#12171a" x="158.6" y="172.3" width="793" height="24.65" shape-rendering="crispEdges"/><rect fill="#12171a" x="951.6" y="172.3" width="12.2" height="24.65" shape-rendering="crispEdges"/><rect fill="#1c2123" x="963.8" y="172.3" width="12.2" height="24.65" shape-rendering="crispEdges"/><rect fill="#1c2123" x="0" y="196.7" width="12.2" height="24.65" shape-rendering="crispEdges"/><rect fill="#24598a" x="12.2" y="196.7" width="12.2" height="24.65" shape-rendering="crispEdges"/><rect fill="#24598a" x="24.4" y="196.7" width="24.4" height="24.65" shape-rendering="crispEdges"/><rect fill="#24598a" x="48.8" y="196.7" width="85.4" height="24.65" shape-rendering="crispEdges"/><rect fill="#24598a" x="134.2" y="196.7" width="732" height="24.65" shape-rendering="crispEdges"/><rect fill="#24598a" x="866.2" y="196.7" width="36.6" height="24.65" shape-rendering="crispEdges"/><rect fill="#24598a" x="902.8" y="196.7" width="48.8" height="24.65" shape-rendering="crispEdges"/><rect fill="#24598a" x="951.6" y="196.7" width="12.2" height="24.65" shape-rendering="crispEdges"/><rect fill="#1c2123" x="963.8" y="196.7" width="12.2" height="24.65" shape-rendering="crispEdges"/><rect fill="#1c2123" x="0" y="221.1" width="12.2" height="24.65" shape-rendering="crispEdges"/><rect fill="#24598a" x="12.2" y="221.1" width="12.2" height="24.65" shape-rendering="crispEdges"/><rect fill="#24598a" x="24.4" y="221.1" width="24.4" height="24.65" shape-rendering="crispEdges"/><rect fill="#24598a" x="48.8" y="221.1" width="475.8" height="24.65" shape-rendering="crispEdges"/><rect fill="#24598a" x="524.6" y="221.1" width="427" height="24.65" shape-rendering="crispEdges"/><rect fill="#24598a" x="951.6" y="221.1" width="12.2" height="24.65" shape-rendering="crispEdges"/><rect fill="#1c2123" x="963.8" y="221.1" width="12.2" height="24.65" shape-rendering="crispEdges"/><rect fill="#1c2123" x="0" y="245.5" width="12.2" height="24.65" shape-rendering="crispEdges"/><rect fill="#12171a" x="12.2" y="245.5" width="12.2" height="24.65" shape-rendering="crispEdges"/><rect fill="#12171a" x="24.4" y="245.5" width="73.2" height="24.65" shape-rendering="crispEdges"/><rect fill="#12171a" x="97.6" y="245.5" width="854" height="24.65" shape-rendering="crispEdges"/><rect fill="#12171a" x="951.6" y="245.5" width="12.2" height="24.65" shape-rendering="crispEdges"/><rect fill="#1c2123" x="963.8" y="245.5" width="12.2" height="24.65" shape-rendering="crispEdges"/><rect fill="#1c2123" x="0" y="269.9" width="12.2" height="24.65" shape-rendering="crispEdges"/><rect fill="#1c2123" x="12.2" y="269.9" width="12.2" height="24.65" shape-rendering="crispEdges"/><rect fill="#1c2123" x="24.4" y="269.9" width="24.4" height="24.65" shape-rendering="crispEdges"/><rect fill="#1c2123" x="48.8" y="269.9" width="85.4" height="24.65" shape-rendering="crispEdges"/><rect fill="#1c2123" x="134.2" y="269.9" width="732" height="24.65" shape-rendering="crispEdges"/><rect fill="#1c2123" x="866.2" y="269.9" width="36.6" height="24.65" shape-rendering="crispEdges"/><rect fill="#1c2123" x="902.8" y="269.9" width="48.8" height="24.65" shape-rendering="crispEdges"/><rect fill="#1c2123" x="951.6" y="269.9" width="12.2" height="24.65" shape-rendering="crispEdges"/><rect fill="#1c2123" x="963.8" y="269.9" width="12.2" height="24.65" shape-rendering="crispEdges"/><rect fill="#1c2123" x="0" y="294.3" width="12.2" height="24.65" shape-rendering="crispEdges"/><rect fill="#1c2123" x="12.2" y="294.3" width="12.2" height="24.65" shape-rendering="crispEdges"/><rect fill="#1c2123" x="24.4" y="294.3" width="24.4" height="24.65" shape-rendering="crispEdges"/><rect fill="#1c2123" x="48.8" y="294.3" width="219.6" height="24.65" shape-rendering="crispEdges"/><rect fill="#1c2123" x="268.4" y="294.3" width="683.2" height="24.65" shape-rendering="crispEdges"/><rect fill="#1c2123" x="951.6" y="294.3" width="12.2" height="24.65" shape-rendering="crispEdges"/><rect fill="#1c2123" x="963.8" y="294.3" width="12.2" height="24.65" shape-rendering="crispEdges"/><rect fill="#1c2123" x="0" y="318.7" width="12.2" height="24.65" shape-rendering="crispEdges"/><rect fill="#12171a" x="12.2" y="318.7" width="12.2" height="24.65" shape-rendering="crispEdges"/><rect fill="#12171a" x="24.4" y="318.7" width="73.2" height="24.65" shape-rendering="crispEdges"/><rect fill="#12171a" x="97.6" y="318.7" width="854" height="24.65" shape-rendering="crispEdges"/><rect fill="#12171a" x="951.6" y="318.7" width="12.2" height="24.65" shape-rendering="crispEdges"/><rect fill="#1c2123" x="963.8" y="318.7" width="12.2" height="24.65" shape-rendering="crispEdges"/><rect fill="#1c2123" x="0" y="343.1" width="12.2" height="24.65" shape-rendering="crispEdges"/><rect fill="#1c2123" x="12.2" y="343.1" width="12.2" height="24.65" shape-rendering="crispEdges"/><rect fill="#1c2123" x="24.4" y="343.1" width="24.4" height="24.65" shape-rendering="crispEdges"/><rect fill="#1c2123" x="48.8" y="343.1" width="85.4" height="24.65" shape-rendering="crispEdges"/><rect fill="#1c2123" x="134.2" y="343.1" width="744.2" height="24.65" shape-rendering="crispEdges"/><rect fill="#1c2123" x="878.4" y="343.1" width="36.6" height="24.65" shape-rendering="crispEdges"/><rect fill="#1c2123" x="915" y="343.1" width="36.6" height="24.65" shape-rendering="crispEdges"/><rect fill="#1c2123" x="951.6" y="343.1" width="12.2" height="24.65" shape-rendering="crispEdges"/><rect fill="#1c2123" x="963.8" y="343.1" width="12.2" height="24.65" shape-rendering="crispEdges"/><rect fill="#1c2123" x="0" y="367.5" width="12.2" height="24.65" shape-rendering="crispEdges"/><rect fill="#1c2123" x="12.2" y="367.5" width="12.2" height="24.65" shape-rendering="crispEdges"/><rect fill="#1c2123" x="24.4" y="367.5" width="24.4" height="24.65" shape-rendering="crispEdges"/><rect fill="#1c2123" x="48.8" y="367.5" width="268.4" height="24.65" shape-rendering="crispEdges"/><rect fill="#1c2123" x="317.2" y="367.5" width="634.4" height="24.65" shape-rendering="crispEdges"/><rect fill="#1c2123" x="951.6" y="367.5" width="12.2" height="24.65" shape-rendering="crispEdges"/><rect fill="#1c2123" x="963.8" y="367.5" width="12.2" height="24.65" shape-rendering="crispEdges"/><rect fill="#1c2123" x="0" y="391.9" width="12.2" height="24.65" shape-rendering="crispEdges"/><rect fill="#1c2123" x="12.2" y="391.9" width="12.2" height="24.65" shape-rendering="crispEdges"/><rect fill="#1c2123" x="24.4" y="391.9" width="24.4" height="24.65" shape-rendering="crispEdges"/><rect fill="#1c2123" x="48.8" y="391.9" width="85.4" height="24.65" shape-rendering="crispEdges"/><rect fill="#1c2123" x="134.2" y="391.9" width="744.2" height="24.65" shape-rendering="crispEdges"/><rect fill="#1c2123" x="878.4" y="391.9" width="36.6" height="24.65" shape-rendering="crispEdges"/><rect fill="#1c2123" x="915" y="391.9" width="36.6" height="24.65" shape-rendering="crispEdges"/><rect fill="#1c2123" x="951.6" y="391.9" width="12.2" height="24.65" shape-rendering="crispEdges"/><rect fill="#1c2123" x="963.8" y="391.9" width="12.2" height="24.65" shape-rendering="crispEdges"/><rect fill="#1c2123" x="0" y="416.3" width="12.2" height="24.65" shape-rendering="crispEdges"/><rect fill="#1c2123" x="12.2" y="416.3" width="12.2" height="24.65" shape-rendering="crispEdges"/><rect fill="#1c2123" x="24.4" y="416.3" width="24.4" height="24.65" shape-rendering="crispEdges"/><rect fill="#1c2123" x="48.8" y="416.3" width="268.4" height="24.65" shape-rendering="crispEdges"/><rect fill="#1c2123" x="317.2" y="416.3" width="634.4" height="24.65" shape-rendering="crispEdges"/><rect fill="#1c2123" x="951.6" y="416.3" width="12.2" height="24.65" shape-rendering="crispEdges"/><rect fill="#1c2123" x="963.8" y="416.3" width="12.2" height="24.65" shape-rendering="crispEdges"/><rect fill="#1c2123" x="0" y="440.7" width="12.2" height="24.65" shape-rendering="crispEdges"/><rect fill="#12171a" x="12.2" y="440.7" width="12.2" height="24.65" shape-rendering="crispEdges"/><rect fill="#12171a" x="24.4" y="440.7" width="134.2" height="24.65" shape-rendering="crispEdges"/><rect fill="#12171a" x="158.6" y="440.7" width="793" height="24.65" shape-rendering="crispEdges"/><rect fill="#12171a" x="951.6" y="440.7" width="12.2" height="24.65" shape-rendering="crispEdges"/><rect fill="#1c2123" x="963.8" y="440.7" width="12.2" height="24.65" shape-rendering="crispEdges"/><rect fill="#1c2123" x="0" y="465.1" width="12.2" height="24.65" shape-rendering="crispEdges"/><rect fill="#1c2123" x="12.2" y="465.1" width="12.2" height="24.65" shape-rendering="crispEdges"/><rect fill="#1c2123" x="24.4" y="465.1" width="24.4" height="24.65" shape-rendering="crispEdges"/><rect fill="#1c2123" x="48.8" y="465.1" width="134.2" height="24.65" shape-rendering="crispEdges"/><rect fill="#1c2123" x="183" y="465.1" width="768.6" height="24.65" shape-rendering="crispEdges"/><rect fill="#1c2123" x="951.6" y="465.1" width="12.2" height="24.65" shape-rendering="crispEdges"/><rect fill="#1c2123" x="963.8" y="465.1" width="12.2" height="24.65" shape-rendering="crispEdges"/><rect fill="#1c2123" x="0" y="489.5" width="12.2" height="24.65" shape-rendering="crispEdges"/><rect fill="#1c2123" x="12.2" y="489.5" width="951.6" height="24.65" shape-rendering="crispEdges"/><rect fill="#1c2123" x="963.8" y="489.5" width="12.2" height="24.65" shape-rendering="crispEdges"/><rect fill="#1c2123" x="0" y="513.9" width="12.2" height="24.65" shape-rendering="crispEdges"/><rect fill="#1c2123" x="12.2" y="513.9" width="951.6" height="24.65" shape-rendering="crispEdges"/><rect fill="#1c2123" x="963.8" y="513.9" width="12.2" height="24.65" shape-rendering="crispEdges"/><rect fill="#181d21" x="0" y="538.3" width="976" height="24.65" shape-rendering="crispEdges"/><rect fill="#181d21" x="0" y="562.7" width="12.2" height="24.65" shape-rendering="crispEdges"/><rect fill="#181d21" x="12.2" y="562.7" width="927.2" height="24.65" shape-rendering="crispEdges"/><rect fill="#181d21" x="939.4" y="562.7" width="24.4" height="24.65" shape-rendering="crispEdges"/><rect fill="#181d21" x="963.8" y="562.7" width="12.2" height="24.65" shape-rendering="crispEdges"/>
    <g class="terminal-3348723253-matrix">
    <text class="terminal-3348723253-r1" x="0" y="20" textLength="24.4" clip-path="url(#terminal-3348723253-line-0)">WF</text><text class="terminal-3348723253-r2" x="24.4" y="20" textLength="414.8" clip-path="url(#terminal-3348723253-line-0)">&#160;&#160;Workflow&#160;Session&#160;Manager&#160;&#160;v0.2.0</text><text class="terminal-3348723253-r3" x="439.2" y="20" textLength="451.4" clip-path="url(#terminal-3348723253-line-0)">&#160;&#160;&#160;&#160;4&#160;sessions&#160;&#160;1&#160;attached&#160;&#160;1&#160;warning</text><text class="terminal-3348723253-r4" x="976" y="20" textLength="12.2" clip-path="url(#terminal-3348723253-line-0)">
</text><text class="terminal-3348723253-r5" x="0" y="44.4" textLength="976" clip-path="url(#terminal-3348723253-line-1)">────────────────────────────────────────────────────────────────────────────────</text><text class="terminal-3348723253-r4" x="976" y="44.4" textLength="12.2" clip-path="url(#terminal-3348723253-line-1)">
</text><text class="terminal-3348723253-r7" x="24.4" y="68.8" textLength="158.6" clip-path="url(#terminal-3348723253-line-2)">QUICK&#160;ACTIONS</text><text class="terminal-3348723253-r4" x="976" y="68.8" textLength="12.2" clip-path="url(#terminal-3348723253-line-2)">
</text><text class="terminal-3348723253-r9" x="24.4" y="93.2" textLength="24.4" clip-path="url(#terminal-3348723253-line-3)">+&#160;</text><text class="terminal-3348723253-r8" x="48.8" y="93.2" textLength="170.8" clip-path="url(#terminal-3348723253-line-3)">Create&#160;session</text><text class="terminal-3348723253-r4" x="976" y="93.2" textLength="12.2" clip-path="url(#terminal-3348723253-line-3)">
</text><text class="terminal-3348723253-r9" x="24.4" y="117.6" textLength="24.4" clip-path="url(#terminal-3348723253-line-4)">&gt;&#160;</text><text class="terminal-3348723253-r8" x="48.8" y="117.6" textLength="158.6" clip-path="url(#terminal-3348723253-line-4)">Resume&#160;recent</text><text class="terminal-3348723253-r4" x="976" y="117.6" textLength="12.2" clip-path="url(#terminal-3348723253-line-4)">
</text><text class="terminal-3348723253-r9" x="24.4" y="142" textLength="24.4" clip-path="url(#terminal-3348723253-line-5)">$&#160;</text><text class="terminal-3348723253-r8" x="48.8" y="142" textLength="122" clip-path="url(#terminal-3348723253-line-5)">Open&#160;shell</text><text class="terminal-3348723253-r4" x="976" y="142" textLength="12.2" clip-path="url(#terminal-3348723253-line-5)">
</text><text class="terminal-3348723253-r9" x="24.4" y="166.4" textLength="24.4" clip-path="url(#terminal-3348723253-line-6)">/&#160;</text><text class="terminal-3348723253-r8" x="48.8" y="166.4" textLength="73.2" clip-path="url(#terminal-3348723253-line-6)">Search</text><text class="terminal-3348723253-r4" x="976" y="166.4" textLength="12.2" clip-path="url(#terminal-3348723253-line-6)">
</text><text class="terminal-3348723253-r7" x="24.4" y="190.8" textLength="134.2" clip-path="url(#terminal-3348723253-line-7)">NEEDS&#160;INPUT</text><text class="terminal-3348723253-r4" x="976" y="190.8" textLength="12.2" clip-path="url(#terminal-3348723253-line-7)">
</text><text class="terminal-3348723253-r11" x="24.4" y="215.2" textLength="24.4" clip-path="url(#terminal-3348723253-line-8)">!&#160;</text><text class="terminal-3348723253-r12" x="48.8" y="215.2" textLength="85.4" clip-path="url(#terminal-3348723253-line-8)">CLAUDE&#160;</text><text class="terminal-3348723253-r13" x="134.2" y="215.2" textLength="732" clip-path="url(#terminal-3348723253-line-8)">claude-astrology-pancha-pakshi&#160;&#160;&#160;&#160;&#160;&#160;&#160;&#160;&#160;&#160;&#160;&#160;&#160;&#160;&#160;&#160;&#160;&#160;&#160;&#160;&#160;&#160;&#160;&#160;&#160;&#160;&#160;&#160;&#160;&#160;</text><text class="terminal-3348723253-r14" x="866.2" y="215.2" textLength="36.6" clip-path="url(#terminal-3348723253-line-8)">now</text><text class="terminal-3348723253-r4" x="976" y="215.2" textLength="12.2" clip-path="url(#terminal-3348723253-line-8)">
</text><text class="terminal-3348723253-r15" x="48.8" y="239.6" textLength="475.8" clip-path="url(#terminal-3348723253-line-9)">Attached&#160;·&#160;In&#160;progress&#160;·&#160;Input&#160;required</text><text class="terminal-3348723253-r4" x="976" y="239.6" textLength="12.2" clip-path="url(#terminal-3348723253-line-9)">
</text><text class="terminal-3348723253-r7" x="24.4" y="264" textLength="73.2" clip-path="url(#terminal-3348723253-line-10)">PINNED</text><text class="terminal-3348723253-r4" x="976" y="264" textLength="12.2" clip-path="url(#terminal-3348723253-line-10)">
</text><text class="terminal-3348723253-r11" x="24.4" y="288.4" textLength="24.4" clip-path="url(#terminal-3348723253-line-11)">*&#160;</text><text class="terminal-3348723253-r12" x="48.8" y="288.4" textLength="85.4" clip-path="url(#terminal-3348723253-line-11)">CLAUDE&#160;</text><text class="terminal-3348723253-r13" x="134.2" y="288.4" textLength="732" clip-path="url(#terminal-3348723253-line-11)">claude-graphify&#160;&#160;&#160;&#160;&#160;&#160;&#160;&#160;&#160;&#160;&#160;&#160;&#160;&#160;&#160;&#160;&#160;&#160;&#160;&#160;&#160;&#160;&#160;&#160;&#160;&#160;&#160;&#160;&#160;&#160;&#160;&#160;&#160;&#160;&#160;&#160;&#160;&#160;&#160;&#160;&#160;&#160;&#160;&#160;&#160;</text><text class="terminal-3348723253-r14" x="866.2" y="288.4" textLength="36.6" clip-path="url(#terminal-3348723253-line-11)">now</text><text class="terminal-3348723253-r4" x="976" y="288.4" textLength="12.2" clip-path="url(#terminal-3348723253-line-11)">
</text><text class="terminal-3348723253-r14" x="48.8" y="312.8" textLength="219.6" clip-path="url(#terminal-3348723253-line-12)">Detached&#160;·&#160;Waiting</text><text class="terminal-3348723253-r4" x="976" y="312.8" textLength="12.2" clip-path="url(#terminal-3348723253-line-12)">
</text><text class="terminal-3348723253-r7" x="24.4" y="337.2" textLength="73.2" clip-path="url(#terminal-3348723253-line-13)">RECENT</text><text class="terminal-3348723253-r4" x="976" y="337.2" textLength="12.2" clip-path="url(#terminal-3348723253-line-13)">
</text><text class="terminal-3348723253-r1" x="48.8" y="361.6" textLength="85.4" clip-path="url(#terminal-3348723253-line-14)">SHELL&#160;&#160;</text><text class="terminal-3348723253-r13" x="134.2" y="361.6" textLength="744.2" clip-path="url(#terminal-3348723253-line-14)">maintenance-shell&#160;&#160;&#160;&#160;&#160;&#160;&#160;&#160;&#160;&#160;&#160;&#160;&#160;&#160;&#160;&#160;&#160;&#160;&#160;&#160;&#160;&#160;&#160;&#160;&#160;&#160;&#160;&#160;&#160;&#160;&#160;&#160;&#160;&#160;&#160;&#160;&#160;&#160;&#160;&#160;&#160;&#160;&#160;&#160;</text><text class="terminal-3348723253-r14" x="878.4" y="361.6" textLength="36.6" clip-path="url(#terminal-3348723253-line-14)">now</text><text class="terminal-3348723253-r4" x="976" y="361.6" textLength="12.2" clip-path="url(#terminal-3348723253-line-14)">
</text><text class="terminal-3348723253-r14" x="48.8" y="386" textLength="268.4" clip-path="url(#terminal-3348723253-line-15)">Detached&#160;·&#160;Unspecified</text><text class="terminal-3348723253-r4" x="976" y="386" textLength="12.2" clip-path="url(#terminal-3348723253-line-15)">
</text><text class="terminal-3348723253-r9" x="48.8" y="410.4" textLength="85.4" clip-path="url(#terminal-3348723253-line-16)">CODEX&#160;&#160;</text><text class="terminal-3348723253-r13" x="134.2" y="410.4" textLength="744.2" clip-path="url(#terminal-3348723253-line-16)">codex-astrology-website&#160;&#160;&#160;&#160;&#160;&#160;&#160;&#160;&#160;&#160;&#160;&#160;&#160;&#160;&#160;&#160;&#160;&#160;&#160;&#160;&#160;&#160;&#160;&#160;&#160;&#160;&#160;&#160;&#160;&#160;&#160;&#160;&#160;&#160;&#160;&#160;&#160;&#160;</text><text class="terminal-3348723253-r14" x="878.4" y="410.4" textLength="36.6" clip-path="url(#terminal-3348723253-line-16)">now</text><text class="terminal-3348723253-r4" x="976" y="410.4" textLength="12.2" clip-path="url(#terminal-3348723253-line-16)">
</text><text class="terminal-3348723253-r14" x="48.8" y="434.8" textLength="268.4" clip-path="url(#terminal-3348723253-line-17)">Detached&#160;·&#160;In&#160;progress</text><text class="terminal-3348723253-r4" x="976" y="434.8" textLength="12.2" clip-path="url(#terminal-3348723253-line-17)">
</text><text class="terminal-3348723253-r7" x="24.4" y="459.2" textLength="134.2" clip-path="url(#terminal-3348723253-line-18)">MAINTENANCE</text><text class="terminal-3348723253-r4" x="976" y="459.2" textLength="12.2" clip-path="url(#terminal-3348723253-line-18)">
</text><text class="terminal-3348723253-r9" x="24.4" y="483.6" textLength="24.4" clip-path="url(#terminal-3348723253-line-19)">&gt;&#160;</text><text class="terminal-3348723253-r8" x="48.8" y="483.6" textLength="134.2" clip-path="url(#terminal-3348723253-line-19)">Diagnostics</text><text class="terminal-3348723253-r4" x="976" y="483.6" textLength="12.2" clip-path="url(#terminal-3348723253-line-19)">
</text><text class="terminal-3348723253-r4" x="976" y="508" textLength="12.2" clip-path="url(#terminal-3348723253-line-20)">
</text><text class="terminal-3348723253-r4" x="976" y="532.4" textLength="12.2" clip-path="url(#terminal-3348723253-line-21)">
</text><text class="terminal-3348723253-r5" x="0" y="556.8" textLength="976" clip-path="url(#terminal-3348723253-line-22)">────────────────────────────────────────────────────────────────────────────────</text><text class="terminal-3348723253-r4" x="976" y="556.8" textLength="12.2" clip-path="url(#terminal-3348723253-line-22)">
</text><text class="terminal-3348723253-r16" x="12.2" y="581.2" textLength="927.2" clip-path="url(#terminal-3348723253-line-23)">↑↓&#160;Navigate&#160;&#160;&#160;Enter&#160;Open&#160;&#160;&#160;c&#160;Create&#160;&#160;&#160;/&#160;Search&#160;&#160;&#160;p&#160;Palette&#160;&#160;&#160;?&#160;Help&#160;&#160;&#160;q&#160;Quit</text>
    </g>
    </g>
</svg>
