<svg class="rich-terminal" viewBox="0 0 1238 782.0" xmlns="http://www.w3.org/2000/svg">
    <!-- Generated with Rich https://www.textualize.io -->
    <style>

    @font-face {
        font-family: "Fira Code";
        src: local("FiraCode-Regular"),
                url("https://cdnjs.cloudflare.com/ajax/libs/firacode/6.2.0/woff2/FiraCode-Regular.woff2") format("woff2"),
                url("https://cdnjs.cloudflare.com/ajax/libs/firacode/6.2.0/woff/FiraCode-Regular.woff") format("woff");
        font-style: normal;
        font-weight: 400;
    }
    @font-face {
        font-family: "Fira Code";
        src: local("FiraCode-Bold"),
                url("https://cdnjs.cloudflare.com/ajax/libs/firacode/6.2.0/woff2/FiraCode-Bold.woff2") format("woff2"),
                url("https://cdnjs.cloudflare.com/ajax/libs/firacode/6.2.0/woff/FiraCode-Bold.woff") format("woff");
        font-style: bold;
        font-weight: 700;
    }

    .terminal-matrix {
        font-family: Fira Code, monospace;
        font-size: 20px;
        line-height: 24.4px;
        font-variant-east-asian: full-width;
    }

    .terminal-title {
        font-size: 18px;
        font-weight: bold;
        font-family: arial;
    }

    .terminal-r1 { fill: #c5c8c6 }
.terminal-r2 { fill: #72c78e;font-weight: bold }
.terminal-r3 { fill: #e8edf0 }
.terminal-r4 { fill: #a1a6a9 }
.terminal-r5 { fill: #303941 }
.terminal-r6 { fill: #7e8c95 }
.terminal-r7 { fill: #59646b;font-weight: bold }
.terminal-r8 { fill: #c792ea;font-weight: bold }
.terminal-r9 { fill: #e8edf0;font-weight: bold }
.terminal-r10 { fill: #fd971f;font-weight: bold }
.terminal-r11 { fill: #e0e0e0 }
.terminal-r12 { fill: #66aaff;font-weight: bold }
.terminal-r13 { fill: #72c78e }
.terminal-r14 { fill: #34424b }
.terminal-r15 { fill: #91a1aa;font-weight: bold }
.terminal-r16 { fill: #989ea2 }
.terminal-r17 { fill: #dce3e7 }
.terminal-r18 { fill: #ffffff }
.terminal-r19 { fill: #fd971f }
.terminal-r20 { fill: #ffffff;font-weight: bold }
.terminal-r21 { fill: #b4c6d7 }
.terminal-r22 { fill: #e0e0e0;font-weight: bold }
.terminal-r23 { fill: #9d9f9f }
.terminal-r24 { fill: #9aa6ad }
.terminal-r25 { fill: #c5903c }
.terminal-r26 { fill: #dce3e7;font-weight: bold }
.terminal-r27 { fill: #eef3f6;font-weight: bold }
.terminal-r28 { fill: #82919a;font-weight: bold }
.terminal-r29 { fill: #7f8d96 }
.terminal-r30 { fill: #273139 }
.terminal-r31 { fill: #0b0e10 }
.terminal-r32 { fill: #cbd3d8;font-weight: bold }
.terminal-r33 { fill: #c4cdd2 }
    </style>

    <defs>
    <clipPath id="terminal-clip-terminal">
      <rect x="0" y="0" width="1219.0" height="731.0" />
    </clipPath>
    <clipPath id="terminal-line-0">
    <rect x="0" y="1.5" width="1220" height="24.65"/>
            </clipPath>
<clipPath id="terminal-line-1">
    <rect x="0" y="25.9" width="1220" height="24.65"/>
            </clipPath>
<clipPath id="terminal-line-2">
    <rect x="0" y="50.3" width="1220" height="24.65"/>
            </clipPath>
<clipPath id="terminal-line-3">
    <rect x="0" y="74.7" width="1220" height="24.65"/>
            </clipPath>
<clipPath id="terminal-line-4">
    <rect x="0" y="99.1" width="1220" height="24.65"/>
            </clipPath>
<clipPath id="terminal-line-5">
    <rect x="0" y="123.5" width="1220" height="24.65"/>
            </clipPath>
<clipPath id="terminal-line-6">
    <rect x="0" y="147.9" width="1220" height="24.65"/>
            </clipPath>
<clipPath id="terminal-line-7">
    <rect x="0" y="172.3" width="1220" height="24.65"/>
            </clipPath>
<clipPath id="terminal-line-8">
    <rect x="0" y="196.7" width="1220" height="24.65"/>
            </clipPath>
<clipPath id="terminal-line-9">
    <rect x="0" y="221.1" width="1220" height="24.65"/>
            </clipPath>
<clipPath id="terminal-line-10">
    <rect x="0" y="245.5" width="1220" height="24.65"/>
            </clipPath>
<clipPath id="terminal-line-11">
    <rect x="0" y="269.9" width="1220" height="24.65"/>
            </clipPath>
<clipPath id="terminal-line-12">
    <rect x="0" y="294.3" width="1220" height="24.65"/>
            </clipPath>
<clipPath id="terminal-line-13">
    <rect x="0" y="318.7" width="1220" height="24.65"/>
            </clipPath>
<clipPath id="terminal-line-14">
    <rect x="0" y="343.1" width="1220" height="24.65"/>
            </clipPath>
<clipPath id="terminal-line-15">
    <rect x="0" y="367.5" width="1220" height="24.65"/>
            </clipPath>
<clipPath id="terminal-line-16">
    <rect x="0" y="391.9" width="1220" height="24.65"/>
            </clipPath>
<clipPath id="terminal-line-17">
    <rect x="0" y="416.3" width="1220" height="24.65"/>
            </clipPath>
<clipPath id="terminal-line-18">
    <rect x="0" y="440.7" width="1220" height="24.65"/>
            </clipPath>
<clipPath id="terminal-line-19">
    <rect x="0" y="465.1" width="1220" height="24.65"/>
            </clipPath>
<clipPath id="terminal-line-20">
    <rect x="0" y="489.5" width="1220" height="24.65"/>
            </clipPath>
<clipPath id="terminal-line-21">
    <rect x="0" y="513.9" width="1220" height="24.65"/>
            </clipPath>
<clipPath id="terminal-line-22">
    <rect x="0" y="538.3" width="1220" height="24.65"/>
            </clipPath>
<clipPath id="terminal-line-23">
    <rect x="0" y="562.7" width="1220" height="24.65"/>
            </clipPath>
<clipPath id="terminal-line-24">
    <rect x="0" y="587.1" width="1220" height="24.65"/>
            </clipPath>
<clipPath id="terminal-line-25">
    <rect x="0" y="611.5" width="1220" height="24.65"/>
            </clipPath>
<clipPath id="terminal-line-26">
    <rect x="0" y="635.9" width="1220" height="24.65"/>
            </clipPath>
<clipPath id="terminal-line-27">
    <rect x="0" y="660.3" width="1220" height="24.65"/>
            </clipPath>
<clipPath id="terminal-line-28">
    <rect x="0" y="684.7" width="1220" height="24.65"/>
            </clipPath>
    </defs>

    <rect fill="#292929" stroke="rgba(255,255,255,0.35)" stroke-width="1" x="1" y="1" width="1236" height="780" rx="8"/><text class="terminal-title" fill="#c5c8c6" text-anchor="middle" x="618" y="27">WF&#160;-&#160;Workflow&#160;Session&#160;Manager</text>
            <g transform="translate(26,22)">
            <circle cx="0" cy="0" r="7" fill="#ff5f57"/>
            <circle cx="22" cy="0" r="7" fill="#febc2e"/>
            <circle cx="44" cy="0" r="7" fill="#28c840"/>
            </g>
        
    <g transform="translate(9, 41)" clip-path="url(#terminal-clip-terminal)">
    <rect fill="#181d21" x="0" y="1.5" width="1220" height="24.65" shape-rendering="crispEdges"/><rect fill="#181d21" x="0" y="25.9" width="24.4" height="24.65" shape-rendering="crispEdges"/><rect fill="#181d21" x="24.4" y="25.9" width="24.4" height="24.65" shape-rendering="crispEdges"/><rect fill="#181d21" x="48.8" y="25.9" width="317.2" height="24.65" shape-rendering="crispEdges"/><rect fill="#181d21" x="366" y="25.9" width="854" height="24.65" shape-rendering="crispEdges"/><rect fill="#181d21" x="0" y="50.3" width="24.4" height="24.65" shape-rendering="crispEdges"/><rect fill="#181d21" x="24.4" y="50.3" width="585.6" height="24.65" shape-rendering="crispEdges"/><rect fill="#181d21" x="610" y="50.3" width="610" height="24.65" shape-rendering="crispEdges"/><rect fill="#181d21" x="0" y="74.7" width="1220" height="24.65" shape-rendering="crispEdges"/><rect fill="#1c2123" x="0" y="99.1" width="12.2" height="24.65" shape-rendering="crispEdges"/><rect fill="#12171a" x="12.2" y="99.1" width="12.2" height="24.65" shape-rendering="crispEdges"/><rect fill="#12171a" x="24.4" y="99.1" width="158.6" height="24.65" shape-rendering="crispEdges"/><rect fill="#12171a" x="183" y="99.1" width="305" height="24.65" shape-rendering="crispEdges"/><rect fill="#1c2123" x="488" y="99.1" width="12.2" height="24.65" shape-rendering="crispEdges"/><rect fill="#12171a" x="500.2" y="99.1" width="12.2" height="24.65" shape-rendering="crispEdges"/><rect fill="#161b1f" x="512.4" y="99.1" width="24.4" height="24.65" shape-rendering="crispEdges"/><rect fill="#161b1f" x="536.8" y="99.1" width="85.4" height="24.65" shape-rendering="crispEdges"/><rect fill="#161b1f" x="622.2" y="99.1" width="366" height="24.65" shape-rendering="crispEdges"/><rect fill="#161b1f" x="988.2" y="99.1" width="109.8" height="24.65" shape-rendering="crispEdges"/><rect fill="#161b1f" x="1098" y="99.1" width="122" height="24.65" shape-rendering="crispEdges"/><rect fill="#1c2123" x="0" y="123.5" width="12.2" height="24.65" shape-rendering="crispEdges"/><rect fill="#1c2123" x="12.2" y="123.5" width="12.2" height="24.65" shape-rendering="crispEdges"/><rect fill="#1c2123" x="24.4" y="123.5" width="24.4" height="24.65" shape-rendering="crispEdges"/><rect fill="#1c2123" x="48.8" y="123.5" width="170.8" height="24.65" shape-rendering="crispEdges"/><rect fill="#1c2123" x="219.6" y="123.5" width="268.4" height="24.65" shape-rendering="crispEdges"/><rect fill="#1c2123" x="488" y="123.5" width="12.2" height="24.65" shape-rendering="crispEdges"/><rect fill="#12171a" x="500.2" y="123.5" width="12.2" height="24.65" shape-rendering="crispEdges"/><rect fill="#161b1f" x="512.4" y="123.5" width="24.4" height="24.65" shape-rendering="crispEdges"/><rect fill="#161b1f" x="536.8" y="123.5" width="97.6" height="24.65" shape-rendering="crispEdges"/><rect fill="#161b1f" x="634.4" y="123.5" width="585.6" height="24.65" shape-rendering="crispEdges"/><rect fill="#1c2123" x="0" y="147.9" width="12.2" height="24.65" shape-rendering="crispEdges"/><rect fill="#1c2123" x="12.2" y="147.9" width="12.2" height="24.65" shape-rendering="crispEdges"/><rect fill="#1c2123" x="24.4" y="147.9" width="24.4" height="24.65" shape-rendering="crispEdges"/><rect fill="#1c2123" x="48.8" y="147.9" width="158.6" height="24.65" shape-rendering="crispEdges"/><rect fill="#1c2123" x="207.4" y="147.9" width="280.6" height="24.65" shape-rendering="crispEdges"/><rect fill="#1c2123" x="488" y="147.9" width="12.2" height="24.65" shape-rendering="crispEdges"/><rect fill="#12171a" x="500.2" y="147.9" width="12.2" height="24.65" shape-rendering="crispEdges"/><rect fill="#161b1f" x="512.4" y="147.9" width="24.4" height="24.65" shape-rendering="crispEdges"/><rect fill="#161b1f" x="536.8" y="147.9" width="536.8" height="24.65" shape-rendering="crispEdges"/><rect fill="#161b1f" x="1073.6" y="147.9" width="146.4" height="24.65" shape-rendering="crispEdges"/><rect fill="#1c2123" x="0" y="172.3" width="12.2" height="24.65" shape-rendering="crispEdges"/><rect fill="#1c2123" x="12.2" y="172.3" width="12.2" height="24.65" shape-rendering="crispEdges"/><rect fill="#1c2123" x="24.4" y="172.3" width="24.4" height="24.65" shape-rendering="crispEdges"/><rect fill="#1c2123" x="48.8" y="172.3" width="122" height="24.65" shape-rendering="crispEdges"/><rect fill="#1c2123" x="170.8" y="172.3" width="317.2" height="24.65" shape-rendering="crispEdges"/><rect fill="#1c2123" x="488" y="172.3" width="12.2" height="24.65" shape-rendering="crispEdges"/><rect fill="#12171a" x="500.2" y="172.3" width="12.2" height="24.65" shape-rendering="crispEdges"/><rect fill="#161b1f" x="512.4" y="172.3" width="707.6" height="24.65" shape-rendering="crispEdges"/><rect fill="#1c2123" x="0" y="196.7" width="12.2" height="24.65" shape-rendering="crispEdges"/><rect fill="#1c2123" x="12.2" y="196.7" width="12.2" height="24.65" shape-rendering="crispEdges"/><rect fill="#1c2123" x="24.4" y="196.7" width="24.4" height="24.65" shape-rendering="crispEdges"/><rect fill="#1c2123" x="48.8" y="196.7" width="73.2" height="24.65" shape-rendering="crispEdges"/><rect fill="#1c2123" x="122" y="196.7" width="366" height="24.65" shape-rendering="crispEdges"/><rect fill="#1c2123" x="488" y="196.7" width="12.2" height="24.65" shape-rendering="crispEdges"/><rect fill="#12171a" x="500.2" y="196.7" width="12.2" height="24.65" shape-rendering="crispEdges"/><rect fill="#151a1e" x="512.4" y="196.7" width="12.2" height="24.65" shape-rendering="crispEdges"/><rect fill="#151a1e" x="524.6" y="196.7" width="97.6" height="24.65" shape-rendering="crispEdges"/><rect fill="#151a1e" x="622.2" y="196.7" width="597.8" height="24.65" shape-rendering="crispEdges"/><rect fill="#1c2123" x="0" y="221.1" width="12.2" height="24.65" shape-rendering="crispEdges"/><rect fill="#1c2123" x="12.2" y="221.1" width="12.2" height="24.65" shape-rendering="crispEdges"/><rect fill="#1c2123" x="24.4" y="221.1" width="24.4" height="24.65" shape-rendering="crispEdges"/><rect fill="#1c2123" x="48.8" y="221.1" width="183" height="24.65" shape-rendering="crispEdges"/><rect fill="#1c2123" x="231.8" y="221.1" width="256.2" height="24.65" shape-rendering="crispEdges"/><rect fill="#1c2123" x="488" y="221.1" width="12.2" height="24.65" shape-rendering="crispEdges"/><rect fill="#12171a" x="500.2" y="221.1" width="12.2" height="24.65" shape-rendering="crispEdges"/><rect fill="#151a1e" x="512.4" y="221.1" width="12.2" height="24.65" shape-rendering="crispEdges"/><rect fill="#151a1e" x="524.6" y="221.1" width="146.4" height="24.65" shape-rendering="crispEdges"/><rect fill="#151a1e" x="671" y="221.1" width="280.6" height="24.65" shape-rendering="crispEdges"/><rect fill="#151a1e" x="951.6" y="221.1" width="268.4" height="24.65" shape-rendering="crispEdges"/><rect fill="#1c2123" x="0" y="245.5" width="12.2" height="24.65" shape-rendering="crispEdges"/><rect fill="#1c2123" x="12.2" y="245.5" width="12.2" height="24.65" shape-rendering="crispEdges"/><rect fill="#1c2123" x="24.4" y="245.5" width="24.4" height="24.65" shape-rendering="crispEdges"/><rect fill="#1c2123" x="48.8" y="245.5" width="183" height="24.65" shape-rendering="crispEdges"/><rect fill="#1c2123" x="231.8" y="245.5" width="256.2" height="24.65" shape-rendering="crispEdges"/><rect fill="#1c2123" x="488" y="245.5" width="12.2" height="24.65" shape-rendering="crispEdges"/><rect fill="#12171a" x="500.2" y="245.5" width="12.2" height="24.65" shape-rendering="crispEdges"/><rect fill="#151a1e" x="512.4" y="245.5" width="12.2" height="24.65" shape-rendering="crispEdges"/><rect fill="#151a1e" x="524.6" y="245.5" width="0" height="24.65" shape-rendering="crispEdges"/><rect fill="#151a1e" x="524.6" y="245.5" width="695.4" height="24.65" shape-rendering="crispEdges"/><rect fill="#1c2123" x="0" y="269.9" width="12.2" height="24.65" shape-rendering="crispEdges"/><rect fill="#12171a" x="12.2" y="269.9" width="12.2" height="24.65" shape-rendering="crispEdges"/><rect fill="#12171a" x="24.4" y="269.9" width="134.2" height="24.65" shape-rendering="crispEdges"/><rect fill="#12171a" x="158.6" y="269.9" width="329.4" height="24.65" shape-rendering="crispEdges"/><rect fill="#1c2123" x="488" y="269.9" width="12.2" height="24.65" shape-rendering="crispEdges"/><rect fill="#12171a" x="500.2" y="269.9" width="12.2" height="24.65" shape-rendering="crispEdges"/><rect fill="#151a1e" x="512.4" y="269.9" width="12.2" height="24.65" shape-rendering="crispEdges"/><rect fill="#151a1e" x="524.6" y="269.9" width="73.2" height="24.65" shape-rendering="crispEdges"/><rect fill="#151a1e" x="597.8" y="269.9" width="622.2" height="24.65" shape-rendering="crispEdges"/><rect fill="#1c2123" x="0" y="294.3" width="12.2" height="24.65" shape-rendering="crispEdges"/><rect fill="#24598a" x="12.2" y="294.3" width="12.2" height="24.65" shape-rendering="crispEdges"/><rect fill="#24598a" x="24.4" y="294.3" width="24.4" height="24.65" shape-rendering="crispEdges"/><rect fill="#24598a" x="48.8" y="294.3" width="85.4" height="24.65" shape-rendering="crispEdges"/><rect fill="#24598a" x="134.2" y="294.3" width="268.4" height="24.65" shape-rendering="crispEdges"/><rect fill="#24598a" x="402.6" y="294.3" width="36.6" height="24.65" shape-rendering="crispEdges"/><rect fill="#24598a" x="439.2" y="294.3" width="48.8" height="24.65" shape-rendering="crispEdges"/><rect fill="#1c2123" x="488" y="294.3" width="12.2" height="24.65" shape-rendering="crispEdges"/><rect fill="#12171a" x="500.2" y="294.3" width="12.2" height="24.65" shape-rendering="crispEdges"/><rect fill="#151a1e" x="512.4" y="294.3" width="12.2" height="24.65" shape-rendering="crispEdges"/><rect fill="#151a1e" x="524.6" y="294.3" width="146.4" height="24.65" shape-rendering="crispEdges"/><rect fill="#151a1e" x="671" y="294.3" width="97.6" height="24.65" shape-rendering="crispEdges"/><rect fill="#151a1e" x="768.6" y="294.3" width="451.4" height="24.65" shape-rendering="crispEdges"/><rect fill="#1c2123" x="0" y="318.7" width="12.2" height="24.65" shape-rendering="crispEdges"/><rect fill="#24598a" x="12.2" y="318.7" width="12.2" height="24.65" shape-rendering="crispEdges"/><rect fill="#24598a" x="24.4" y="318.7" width="24.4" height="24.65" shape-rendering="crispEdges"/><rect fill="#24598a" x="48.8" y="318.7" width="414.8" height="24.65" shape-rendering="crispEdges"/><rect fill="#24598a" x="463.6" y="318.7" width="24.4" height="24.65" shape-rendering="crispEdges"/><rect fill="#1c2123" x="488" y="318.7" width="12.2" height="24.65" shape-rendering="crispEdges"/><rect fill="#12171a" x="500.2" y="318.7" width="12.2" height="24.65" shape-rendering="crispEdges"/><rect fill="#151a1e" x="512.4" y="318.7" width="12.2" height="24.65" shape-rendering="crispEdges"/><rect fill="#151a1e" x="524.6" y="318.7" width="146.4" height="24.65" shape-rendering="crispEdges"/><rect fill="#151a1e" x="671" y="318.7" width="134.2" height="24.65" shape-rendering="crispEdges"/><rect fill="#151a1e" x="805.2" y="318.7" width="414.8" height="24.65" shape-rendering="crispEdges"/><rect fill="#1c2123" x="0" y="343.1" width="12.2" height="24.65" shape-rendering="crispEdges"/><rect fill="#12171a" x="12.2" y="343.1" width="12.2" height="24.65" shape-rendering="crispEdges"/><rect fill="#12171a" x="24.4" y="343.1" width="73.2" height="24.65" shape-rendering="crispEdges"/><rect fill="#12171a" x="97.6" y="343.1" width="390.4" height="24.65" shape-rendering="crispEdges"/><rect fill="#1c2123" x="488" y="343.1" width="12.2" height="24.65" shape-rendering="crispEdges"/><rect fill="#12171a" x="500.2" y="343.1" width="12.2" height="24.65" shape-rendering="crispEdges"/><rect fill="#151a1e" x="512.4" y="343.1" width="12.2" height="24.65" shape-rendering="crispEdges"/><rect fill="#151a1e" x="524.6" y="343.1" width="146.4" height="24.65" shape-rendering="crispEdges"/><rect fill="#151a1e" x="671" y="343.1" width="85.4" height="24.65" shape-rendering="crispEdges"/><rect fill="#151a1e" x="756.4" y="343.1" width="463.6" height="24.65" shape-rendering="crispEdges"/><rect fill="#1c2123" x="0" y="367.5" width="12.2" height="24.65" shape-rendering="crispEdges"/><rect fill="#1c2123" x="12.2" y="367.5" width="12.2" height="24.65" shape-rendering="crispEdges"/><rect fill="#1c2123" x="24.4" y="367.5" width="24.4" height="24.65" shape-rendering="crispEdges"/><rect fill="#1c2123" x="48.8" y="367.5" width="85.4" height="24.65" shape-rendering="crispEdges"/><rect fill="#1c2123" x="134.2" y="367.5" width="268.4" height="24.65" shape-rendering="crispEdges"/><rect fill="#1c2123" x="402.6" y="367.5" width="36.6" height="24.65" shape-rendering="crispEdges"/><rect fill="#1c2123" x="439.2" y="367.5" width="48.8" height="24.65" shape-rendering="crispEdges"/><rect fill="#1c2123" x="488" y="367.5" width="12.2" height="24.65" shape-rendering="crispEdges"/><rect fill="#12171a" x="500.2" y="367.5" width="12.2" height="24.65" shape-rendering="crispEdges"/><rect fill="#151a1e" x="512.4" y="367.5" width="12.2" height="24.65" shape-rendering="crispEdges"/><rect fill="#151a1e" x="524.6" y="367.5" width="146.4" height="24.65" shape-rendering="crispEdges"/><rect fill="#151a1e" x="671" y="367.5" width="97.6" height="24.65" shape-rendering="crispEdges"/><rect fill="#151a1e" x="768.6" y="367.5" width="451.4" height="24.65" shape-rendering="crispEdges"/><rect fill="#1c2123" x="0" y="391.9" width="12.2" height="24.65" shape-rendering="crispEdges"/><rect fill="#1c2123" x="12.2" y="391.9" width="12.2" height="24.65" shape-rendering="crispEdges"/><rect fill="#1c2123" x="24.4" y="391.9" width="24.4" height="24.65" shape-rendering="crispEdges"/><rect fill="#1c2123" x="48.8" y="391.9" width="219.6" height="24.65" shape-rendering="crispEdges"/><rect fill="#1c2123" x="268.4" y="391.9" width="219.6" height="24.65" shape-rendering="crispEdges"/><rect fill="#1c2123" x="488" y="391.9" width="12.2" height="24.65" shape-rendering="crispEdges"/><rect fill="#12171a" x="500.2" y="391.9" width="12.2" height="24.65" shape-rendering="crispEdges"/><rect fill="#151a1e" x="512.4" y="391.9" width="12.2" height="24.65" shape-rendering="crispEdges"/><rect fill="#151a1e" x="524.6" y="391.9" width="0" height="24.65" shape-rendering="crispEdges"/><rect fill="#151a1e" x="524.6" y="391.9" width="695.4" height="24.65" shape-rendering="crispEdges"/><rect fill="#1c2123" x="0" y="416.3" width="12.2" height="24.65" shape-rendering="crispEdges"/><rect fill="#12171a" x="12.2" y="416.3" width="12.2" height="24.65" shape-rendering="crispEdges"/><rect fill="#12171a" x="24.4" y="416.3" width="97.6" height="24.65" shape-rendering="crispEdges"/><rect fill="#12171a" x="122" y="416.3" width="366" height="24.65" shape-rendering="crispEdges"/><rect fill="#1c2123" x="488" y="416.3" width="12.2" height="24.65" shape-rendering="crispEdges"/><rect fill="#12171a" x="500.2" y="416.3" width="12.2" height="24.65" shape-rendering="crispEdges"/><rect fill="#1d1b15" x="512.4" y="416.3" width="12.2" height="24.65" shape-rendering="crispEdges"/><rect fill="#1d1b15" x="524.6" y="416.3" width="97.6" height="24.65" shape-rendering="crispEdges"/><rect fill="#1d1b15" x="622.2" y="416.3" width="597.8" height="24.65" shape-rendering="crispEdges"/><rect fill="#1c2123" x="0" y="440.7" width="12.2" height="24.65" shape-rendering="crispEdges"/><rect fill="#1c2123" x="12.2" y="440.7" width="12.2" height="24.65" shape-rendering="crispEdges"/><rect fill="#1c2123" x="24.4" y="440.7" width="24.4" height="24.65" shape-rendering="crispEdges"/><rect fill="#1c2123" x="48.8" y="440.7" width="85.4" height="24.65" shape-rendering="crispEdges"/><rect fill="#1c2123" x="134.2" y="440.7" width="280.6" height="24.65" shape-rendering="crispEdges"/><rect fill="#1c2123" x="414.8" y="440.7" width="36.6" height="24.65" shape-rendering="crispEdges"/><rect fill="#1c2123" x="451.4" y="440.7" width="36.6" height="24.65" shape-rendering="crispEdges"/><rect fill="#1c2123" x="488" y="440.7" width="12.2" height="24.65" shape-rendering="crispEdges"/><rect fill="#12171a" x="500.2" y="440.7" width="12.2" height="24.65" shape-rendering="crispEdges"/><rect fill="#1d1b15" x="512.4" y="440.7" width="12.2" height="24.65" shape-rendering="crispEdges"/><rect fill="#1d1b15" x="524.6" y="440.7" width="170.8" height="24.65" shape-rendering="crispEdges"/><rect fill="#1d1b15" x="695.4" y="440.7" width="524.6" height="24.65" shape-rendering="crispEdges"/><rect fill="#1c2123" x="0" y="465.1" width="12.2" height="24.65" shape-rendering="crispEdges"/><rect fill="#1c2123" x="12.2" y="465.1" width="12.2" height="24.65" shape-rendering="crispEdges"/><rect fill="#1c2123" x="24.4" y="465.1" width="24.4" height="24.65" shape-rendering="crispEdges"/><rect fill="#1c2123" x="48.8" y="465.1" width="268.4" height="24.65" shape-rendering="crispEdges"/><rect fill="#1c2123" x="317.2" y="465.1" width="170.8" height="24.65" shape-rendering="crispEdges"/><rect fill="#1c2123" x="488" y="465.1" width="12.2" height="24.65" shape-rendering="crispEdges"/><rect fill="#12171a" x="500.2" y="465.1" width="12.2" height="24.65" shape-rendering="crispEdges"/><rect fill="#1d1b15" x="512.4" y="465.1" width="12.2" height="24.65" shape-rendering="crispEdges"/><rect fill="#1d1b15" x="524.6" y="465.1" width="573.4" height="24.65" shape-rendering="crispEdges"/><rect fill="#1d1b15" x="1098" y="465.1" width="122" height="24.65" shape-rendering="crispEdges"/><rect fill="#1c2123" x="0" y="489.5" width="12.2" height="24.65" shape-rendering="crispEdges"/><rect fill="#1c2123" x="12.2" y="489.5" width="12.2" height="24.65" shape-rendering="crispEdges"/><rect fill="#1c2123" x="24.4" y="489.5" width="24.4" height="24.65" shape-rendering="crispEdges"/><rect fill="#1c2123" x="48.8" y="489.5" width="85.4" height="24.65" shape-rendering="crispEdges"/><rect fill="#1c2123" x="134.2" y="489.5" width="280.6" height="24.65" shape-rendering="crispEdges"/><rect fill="#1c2123" x="414.8" y="489.5" width="36.6" height="24.65" shape-rendering="crispEdges"/><rect fill="#1c2123" x="451.4" y="489.5" width="36.6" height="24.65" shape-rendering="crispEdges"/><rect fill="#1c2123" x="488" y="489.5" width="12.2" height="24.65" shape-rendering="crispEdges"/><rect fill="#12171a" x="500.2" y="489.5" width="12.2" height="24.65" shape-rendering="crispEdges"/><rect fill="#151a1e" x="512.4" y="489.5" width="12.2" height="24.65" shape-rendering="crispEdges"/><rect fill="#151a1e" x="524.6" y="489.5" width="158.6" height="24.65" shape-rendering="crispEdges"/><rect fill="#151a1e" x="683.2" y="489.5" width="536.8" height="24.65" shape-rendering="crispEdges"/><rect fill="#1c2123" x="0" y="513.9" width="12.2" height="24.65" shape-rendering="crispEdges"/><rect fill="#1c2123" x="12.2" y="513.9" width="12.2" height="24.65" shape-rendering="crispEdges"/><rect fill="#1c2123" x="24.4" y="513.9" width="24.4" height="24.65" shape-rendering="crispEdges"/><rect fill="#1c2123" x="48.8" y="513.9" width="268.4" height="24.65" shape-rendering="crispEdges"/><rect fill="#1c2123" x="317.2" y="513.9" width="170.8" height="24.65" shape-rendering="crispEdges"/><rect fill="#1c2123" x="488" y="513.9" width="12.2" height="24.65" shape-rendering="crispEdges"/><rect fill="#12171a" x="500.2" y="513.9" width="12.2" height="24.65" shape-rendering="crispEdges"/><rect fill="#151a1e" x="512.4" y="513.9" width="12.2" height="24.65" shape-rendering="crispEdges"/><rect fill="#151a1e" x="524.6" y="513.9" width="219.6" height="24.65" shape-rendering="crispEdges"/><rect fill="#2c4c68" x="744.2" y="513.9" width="12.2" height="24.65" shape-rendering="crispEdges"/><rect fill="#2c4c68" x="756.4" y="513.9" width="109.8" height="24.65" shape-rendering="crispEdges"/><rect fill="#2c4c68" x="866.2" y="513.9" width="12.2" height="24.65" shape-rendering="crispEdges"/><rect fill="#151a1e" x="878.4" y="513.9" width="36.6" height="24.65" shape-rendering="crispEdges"/><rect fill="#151a1e" x="915" y="513.9" width="61" height="24.65" shape-rendering="crispEdges"/><rect fill="#151a1e" x="976" y="513.9" width="48.8" height="24.65" shape-rendering="crispEdges"/><rect fill="#151a1e" x="1024.8" y="513.9" width="195.2" height="24.65" shape-rendering="crispEdges"/><rect fill="#1c2123" x="0" y="538.3" width="12.2" height="24.65" shape-rendering="crispEdges"/><rect fill="#12171a" x="12.2" y="538.3" width="12.2" height="24.65" shape-rendering="crispEdges"/><rect fill="#12171a" x="24.4" y="538.3" width="134.2" height="24.65" shape-rendering="crispEdges"/><rect fill="#12171a" x="158.6" y="538.3" width="329.4" height="24.65" shape-rendering="crispEdges"/><rect fill="#1c2123" x="488" y="538.3" width="12.2" height="24.65" shape-rendering="crispEdges"/><rect fill="#12171a" x="500.2" y="538.3" width="12.2" height="24.65" shape-rendering="crispEdges"/><rect fill="#151a1e" x="512.4" y="538.3" width="12.2" height="24.65" shape-rendering="crispEdges"/><rect fill="#0b0e10" x="524.6" y="538.3" width="695.4" height="24.65" shape-rendering="crispEdges"/><rect fill="#1c2123" x="0" y="562.7" width="12.2" height="24.65" shape-rendering="crispEdges"/><rect fill="#1c2123" x="12.2" y="562.7" width="12.2" height="24.65" shape-rendering="crispEdges"/><rect fill="#1c2123" x="24.4" y="562.7" width="24.4" height="24.65" shape-rendering="crispEdges"/><rect fill="#1c2123" x="48.8" y="562.7" width="134.2" height="24.65" shape-rendering="crispEdges"/><rect fill="#1c2123" x="183" y="562.7" width="305" height="24.65" shape-rendering="crispEdges"/><rect fill="#1c2123" x="488" y="562.7" width="12.2" height="24.65" shape-rendering="crispEdges"/><rect fill="#12171a" x="500.2" y="562.7" width="12.2" height="24.65" shape-rendering="crispEdges"/><rect fill="#151a1e" x="512.4" y="562.7" width="12.2" height="24.65" shape-rendering="crispEdges"/><rect fill="#0b0e10" x="524.6" y="562.7" width="671" height="24.65" shape-rendering="crispEdges"/><rect fill="#47545c" x="1195.6" y="562.7" width="24.4" height="24.65" shape-rendering="crispEdges"/><rect fill="#1c2123" x="0" y="587.1" width="12.2" height="24.65" shape-rendering="crispEdges"/><rect fill="#1c2123" x="12.2" y="587.1" width="475.8" height="24.65" shape-rendering="crispEdges"/><rect fill="#1c2123" x="488" y="587.1" width="12.2" height="24.65" shape-rendering="crispEdges"/><rect fill="#12171a" x="500.2" y="587.1" width="12.2" height="24.65" shape-rendering="crispEdges"/><rect fill="#151a1e" x="512.4" y="587.1" width="12.2" height="24.65" shape-rendering="crispEdges"/><rect fill="#0b0e10" x="524.6" y="587.1" width="12.2" height="24.65" shape-rendering="crispEdges"/><rect fill="#0b0e10" x="536.8" y="587.1" width="268.4" height="24.65" shape-rendering="crispEdges"/><rect fill="#0b0e10" x="805.2" y="587.1" width="390.4" height="24.65" shape-rendering="crispEdges"/><rect fill="#47545c" x="1195.6" y="587.1" width="24.4" height="24.65" shape-rendering="crispEdges"/><rect fill="#1c2123" x="0" y="611.5" width="12.2" height="24.65" shape-rendering="crispEdges"/><rect fill="#1c2123" x="12.2" y="611.5" width="475.8" height="24.65" shape-rendering="crispEdges"/><rect fill="#1c2123" x="488" y="611.5" width="12.2" height="24.65" shape-rendering="crispEdges"/><rect fill="#12171a" x="500.2" y="611.5" width="12.2" height="24.65" shape-rendering="crispEdges"/><rect fill="#151a1e" x="512.4" y="611.5" width="707.6" height="24.65" shape-rendering="crispEdges"/><rect fill="#1c2123" x="0" y="635.9" width="12.2" height="24.65" shape-rendering="crispEdges"/><rect fill="#1c2123" x="12.2" y="635.9" width="475.8" height="24.65" shape-rendering="crispEdges"/><rect fill="#1c2123" x="488" y="635.9" width="12.2" height="24.65" shape-rendering="crispEdges"/><rect fill="#12171a" x="500.2" y="635.9" width="12.2" height="24.65" shape-rendering="crispEdges"/><rect fill="#151a1e" x="512.4" y="635.9" width="24.4" height="24.65" shape-rendering="crispEdges"/><rect fill="#151a1e" x="536.8" y="635.9" width="85.4" height="24.65" shape-rendering="crispEdges"/><rect fill="#151a1e" x="622.2" y="635.9" width="597.8" height="24.65" shape-rendering="crispEdges"/><rect fill="#1c2123" x="0" y="660.3" width="12.2" height="24.65" shape-rendering="crispEdges"/><rect fill="#1c2123" x="12.2" y="660.3" width="475.8" height="24.65" shape-rendering="crispEdges"/><rect fill="#1c2123" x="488" y="660.3" width="12.2" height="24.65" shape-rendering="crispEdges"/><rect fill="#12171a" x="500.2" y="660.3" width="12.2" height="24.65" shape-rendering="crispEdges"/><rect fill="#151a1e" x="512.4" y="660.3" width="24.4" height="24.65" shape-rendering="crispEdges"/><rect fill="#151a1e" x="536.8" y="660.3" width="622.2" height="24.65" shape-rendering="crispEdges"/><rect fill="#151a1e" x="1159" y="660.3" width="61" height="24.65" shape-rendering="crispEdges"/><rect fill="#181d21" x="0" y="684.7" width="1220" height="24.65" shape-rendering="crispEdges"/><rect fill="#181d21" x="0" y="709.1" width="24.4" height="24.65" shape-rendering="crispEdges"/><rect fill="#181d21" x="24.4" y="709.1" width="1049.2" height="24.65" shape-rendering="crispEdges"/><rect fill="#181d21" x="1073.6" y="709.1" width="122" height="24.65" shape-rendering="crispEdges"/><rect fill="#181d21" x="1195.6" y="709.1" width="24.4" height="24.65" shape-rendering="crispEdges"/>
    <g class="terminal-matrix">
    <text class="terminal-r1" x="1220" y="20" textLength="12.2" clip-path="url(#terminal-line-0)">
</text><text class="terminal-r2" x="24.4" y="44.4" textLength="24.4" clip-path="url(#terminal-line-1)">WF</text><text class="terminal-r3" x="48.8" y="44.4" textLength="317.2" clip-path="url(#terminal-line-1)">&#160;&#160;Workflow&#160;Session&#160;Manager</text><text class="terminal-r1" x="1220" y="44.4" textLength="12.2" clip-path="url(#terminal-line-1)">
</text><text class="terminal-r4" x="24.4" y="68.8" textLength="585.6" clip-path="url(#terminal-line-2)">4&#160;sessions&#160;•&#160;1&#160;attached&#160;•&#160;3&#160;detached&#160;•&#160;1&#160;warning</text><text class="terminal-r1" x="1220" y="68.8" textLength="12.2" clip-path="url(#terminal-line-2)">
</text><text class="terminal-r5" x="0" y="93.2" textLength="1220" clip-path="url(#terminal-line-3)">────────────────────────────────────────────────────────────────────────────────────────────────────</text><text class="terminal-r1" x="1220" y="93.2" textLength="12.2" clip-path="url(#terminal-line-3)">
</text><text class="terminal-r7" x="24.4" y="117.6" textLength="158.6" clip-path="url(#terminal-line-4)">QUICK&#160;ACTIONS</text><text class="terminal-r5" x="500.2" y="117.6" textLength="12.2" clip-path="url(#terminal-line-4)">│</text><text class="terminal-r8" x="536.8" y="117.6" textLength="85.4" clip-path="url(#terminal-line-4)">CLAUDE&#160;</text><text class="terminal-r9" x="622.2" y="117.6" textLength="366" clip-path="url(#terminal-line-4)">claude-astrology-pancha-pakshi</text><text class="terminal-r10" x="988.2" y="117.6" textLength="109.8" clip-path="url(#terminal-line-4)">&#160;&#160;!&#160;Input</text><text class="terminal-r1" x="1220" y="117.6" textLength="12.2" clip-path="url(#terminal-line-4)">
</text><text class="terminal-r12" x="24.4" y="142" textLength="24.4" clip-path="url(#terminal-line-5)">+&#160;</text><text class="terminal-r11" x="48.8" y="142" textLength="170.8" clip-path="url(#terminal-line-5)">Create&#160;session</text><text class="terminal-r5" x="500.2" y="142" textLength="12.2" clip-path="url(#terminal-line-5)">│</text><text class="terminal-r10" x="536.8" y="142" textLength="97.6" clip-path="url(#terminal-line-5)">required</text><text class="terminal-r1" x="1220" y="142" textLength="12.2" clip-path="url(#terminal-line-5)">
</text><text class="terminal-r12" x="24.4" y="166.4" textLength="24.4" clip-path="url(#terminal-line-6)">&gt;&#160;</text><text class="terminal-r11" x="48.8" y="166.4" textLength="158.6" clip-path="url(#terminal-line-6)">Resume&#160;recent</text><text class="terminal-r5" x="500.2" y="166.4" textLength="12.2" clip-path="url(#terminal-line-6)">│</text><text class="terminal-r13" x="536.8" y="166.4" textLength="536.8" clip-path="url(#terminal-line-6)">Attached&#160;·&#160;In&#160;progress&#160;·&#160;Last&#160;active&#160;&lt;1m&#160;ago</text><text class="terminal-r1" x="1220" y="166.4" textLength="12.2" clip-path="url(#terminal-line-6)">
</text><text class="terminal-r12" x="24.4" y="190.8" textLength="24.4" clip-path="url(#terminal-line-7)">$&#160;</text><text class="terminal-r11" x="48.8" y="190.8" textLength="122" clip-path="url(#terminal-line-7)">Open&#160;shell</text><text class="terminal-r5" x="500.2" y="190.8" textLength="12.2" clip-path="url(#terminal-line-7)">│</text><text class="terminal-r5" x="512.4" y="190.8" textLength="707.6" clip-path="url(#terminal-line-7)">──────────────────────────────────────────────────────────</text><text class="terminal-r1" x="1220" y="190.8" textLength="12.2" clip-path="url(#terminal-line-7)">
</text><text class="terminal-r12" x="24.4" y="215.2" textLength="24.4" clip-path="url(#terminal-line-8)">/&#160;</text><text class="terminal-r11" x="48.8" y="215.2" textLength="73.2" clip-path="url(#terminal-line-8)">Search</text><text class="terminal-r5" x="500.2" y="215.2" textLength="12.2" clip-path="url(#terminal-line-8)">│</text><text class="terminal-r14" x="512.4" y="215.2" textLength="12.2" clip-path="url(#terminal-line-8)">│</text><text class="terminal-r15" x="524.6" y="215.2" textLength="97.6" clip-path="url(#terminal-line-8)">OVERVIEW</text><text class="terminal-r1" x="1220" y="215.2" textLength="12.2" clip-path="url(#terminal-line-8)">
</text><text class="terminal-r12" x="24.4" y="239.6" textLength="24.4" clip-path="url(#terminal-line-9)">=&#160;</text><text class="terminal-r11" x="48.8" y="239.6" textLength="183" clip-path="url(#terminal-line-9)">Filter&#160;sessions</text><text class="terminal-r5" x="500.2" y="239.6" textLength="12.2" clip-path="url(#terminal-line-9)">│</text><text class="terminal-r14" x="512.4" y="239.6" textLength="12.2" clip-path="url(#terminal-line-9)">│</text><text class="terminal-r16" x="524.6" y="239.6" textLength="146.4" clip-path="url(#terminal-line-9)">Display&#160;name</text><text class="terminal-r17" x="671" y="239.6" textLength="280.6" clip-path="url(#terminal-line-9)">astrology-pancha-pakshi</text><text class="terminal-r1" x="1220" y="239.6" textLength="12.2" clip-path="url(#terminal-line-9)">
</text><text class="terminal-r12" x="24.4" y="264" textLength="24.4" clip-path="url(#terminal-line-10)">@&#160;</text><text class="terminal-r11" x="48.8" y="264" textLength="183" clip-path="url(#terminal-line-10)">Recent&#160;activity</text><text class="terminal-r5" x="500.2" y="264" textLength="12.2" clip-path="url(#terminal-line-10)">│</text><text class="terminal-r14" x="512.4" y="264" textLength="12.2" clip-path="url(#terminal-line-10)">│</text><text class="terminal-r1" x="1220" y="264" textLength="12.2" clip-path="url(#terminal-line-10)">
</text><text class="terminal-r7" x="24.4" y="288.4" textLength="134.2" clip-path="url(#terminal-line-11)">NEEDS&#160;INPUT</text><text class="terminal-r5" x="500.2" y="288.4" textLength="12.2" clip-path="url(#terminal-line-11)">│</text><text class="terminal-r14" x="512.4" y="288.4" textLength="12.2" clip-path="url(#terminal-line-11)">│</text><text class="terminal-r15" x="524.6" y="288.4" textLength="73.2" clip-path="url(#terminal-line-11)">STATUS</text><text class="terminal-r1" x="1220" y="288.4" textLength="12.2" clip-path="url(#terminal-line-11)">
</text><text class="terminal-r19" x="24.4" y="312.8" textLength="24.4" clip-path="url(#terminal-line-12)">!&#160;</text><text class="terminal-r8" x="48.8" y="312.8" textLength="85.4" clip-path="url(#terminal-line-12)">CLAUDE&#160;</text><text class="terminal-r20" x="134.2" y="312.8" textLength="268.4" clip-path="url(#terminal-line-12)">claude-astrology-pan…&#160;</text><text class="terminal-r21" x="402.6" y="312.8" textLength="36.6" clip-path="url(#terminal-line-12)">&lt;1m</text><text class="terminal-r5" x="500.2" y="312.8" textLength="12.2" clip-path="url(#terminal-line-12)">│</text><text class="terminal-r14" x="512.4" y="312.8" textLength="12.2" clip-path="url(#terminal-line-12)">│</text><text class="terminal-r16" x="524.6" y="312.8" textLength="146.4" clip-path="url(#terminal-line-12)">Runtime&#160;&#160;&#160;&#160;&#160;</text><text class="terminal-r17" x="671" y="312.8" textLength="97.6" clip-path="url(#terminal-line-12)">Attached</text><text class="terminal-r1" x="1220" y="312.8" textLength="12.2" clip-path="url(#terminal-line-12)">
</text><text class="terminal-r13" x="48.8" y="337.2" textLength="414.8" clip-path="url(#terminal-line-13)">Attached&#160;·&#160;In&#160;progress&#160;·&#160;Input&#160;re…</text><text class="terminal-r5" x="500.2" y="337.2" textLength="12.2" clip-path="url(#terminal-line-13)">│</text><text class="terminal-r14" x="512.4" y="337.2" textLength="12.2" clip-path="url(#terminal-line-13)">│</text><text class="terminal-r16" x="524.6" y="337.2" textLength="146.4" clip-path="url(#terminal-line-13)">Task&#160;&#160;&#160;&#160;&#160;&#160;&#160;&#160;</text><text class="terminal-r17" x="671" y="337.2" textLength="134.2" clip-path="url(#terminal-line-13)">In&#160;progress</text><text class="terminal-r1" x="1220" y="337.2" textLength="12.2" clip-path="url(#terminal-line-13)">
</text><text class="terminal-r7" x="24.4" y="361.6" textLength="73.2" clip-path="url(#terminal-line-14)">PINNED</text><text class="terminal-r5" x="500.2" y="361.6" textLength="12.2" clip-path="url(#terminal-line-14)">│</text><text class="terminal-r14" x="512.4" y="361.6" textLength="12.2" clip-path="url(#terminal-line-14)">│</text><text class="terminal-r16" x="524.6" y="361.6" textLength="146.4" clip-path="url(#terminal-line-14)">Agent&#160;&#160;&#160;&#160;&#160;&#160;&#160;</text><text class="terminal-r17" x="671" y="361.6" textLength="85.4" clip-path="url(#terminal-line-14)">Waiting</text><text class="terminal-r1" x="1220" y="361.6" textLength="12.2" clip-path="url(#terminal-line-14)">
</text><text class="terminal-r19" x="24.4" y="386" textLength="24.4" clip-path="url(#terminal-line-15)">★&#160;</text><text class="terminal-r8" x="48.8" y="386" textLength="85.4" clip-path="url(#terminal-line-15)">CLAUDE&#160;</text><text class="terminal-r22" x="134.2" y="386" textLength="268.4" clip-path="url(#terminal-line-15)">claude-graphify&#160;&#160;&#160;&#160;&#160;&#160;&#160;</text><text class="terminal-r23" x="402.6" y="386" textLength="36.6" clip-path="url(#terminal-line-15)">&lt;1m</text><text class="terminal-r5" x="500.2" y="386" textLength="12.2" clip-path="url(#terminal-line-15)">│</text><text class="terminal-r14" x="512.4" y="386" textLength="12.2" clip-path="url(#terminal-line-15)">│</text><text class="terminal-r16" x="524.6" y="386" textLength="146.4" clip-path="url(#terminal-line-15)">Input&#160;&#160;&#160;&#160;&#160;&#160;&#160;</text><text class="terminal-r17" x="671" y="386" textLength="97.6" clip-path="url(#terminal-line-15)">Required</text><text class="terminal-r1" x="1220" y="386" textLength="12.2" clip-path="url(#terminal-line-15)">
</text><text class="terminal-r24" x="48.8" y="410.4" textLength="219.6" clip-path="url(#terminal-line-16)">Detached&#160;·&#160;Waiting</text><text class="terminal-r5" x="500.2" y="410.4" textLength="12.2" clip-path="url(#terminal-line-16)">│</text><text class="terminal-r14" x="512.4" y="410.4" textLength="12.2" clip-path="url(#terminal-line-16)">│</text><text class="terminal-r1" x="1220" y="410.4" textLength="12.2" clip-path="url(#terminal-line-16)">
</text><text class="terminal-r7" x="24.4" y="434.8" textLength="97.6" clip-path="url(#terminal-line-17)">DETACHED</text><text class="terminal-r5" x="500.2" y="434.8" textLength="12.2" clip-path="url(#terminal-line-17)">│</text><text class="terminal-r25" x="512.4" y="434.8" textLength="12.2" clip-path="url(#terminal-line-17)">│</text><text class="terminal-r15" x="524.6" y="434.8" textLength="97.6" clip-path="url(#terminal-line-17)">ACTIVITY</text><text class="terminal-r1" x="1220" y="434.8" textLength="12.2" clip-path="url(#terminal-line-17)">
</text><text class="terminal-r2" x="48.8" y="459.2" textLength="85.4" clip-path="url(#terminal-line-18)">SHELL&#160;&#160;</text><text class="terminal-r22" x="134.2" y="459.2" textLength="280.6" clip-path="url(#terminal-line-18)">maintenance-shell&#160;&#160;&#160;&#160;&#160;&#160;</text><text class="terminal-r23" x="414.8" y="459.2" textLength="36.6" clip-path="url(#terminal-line-18)">&lt;1m</text><text class="terminal-r5" x="500.2" y="459.2" textLength="12.2" clip-path="url(#terminal-line-18)">│</text><text class="terminal-r25" x="512.4" y="459.2" textLength="12.2" clip-path="url(#terminal-line-18)">│</text><text class="terminal-r10" x="524.6" y="459.2" textLength="170.8" clip-path="url(#terminal-line-18)">Input&#160;required</text><text class="terminal-r1" x="1220" y="459.2" textLength="12.2" clip-path="url(#terminal-line-18)">
</text><text class="terminal-r24" x="48.8" y="483.6" textLength="268.4" clip-path="url(#terminal-line-19)">Detached&#160;·&#160;Unspecified</text><text class="terminal-r5" x="500.2" y="483.6" textLength="12.2" clip-path="url(#terminal-line-19)">│</text><text class="terminal-r25" x="512.4" y="483.6" textLength="12.2" clip-path="url(#terminal-line-19)">│</text><text class="terminal-r26" x="524.6" y="483.6" textLength="573.4" clip-path="url(#terminal-line-19)">This&#160;status&#160;was&#160;explicitly&#160;set&#160;for&#160;the&#160;session.</text><text class="terminal-r1" x="1220" y="483.6" textLength="12.2" clip-path="url(#terminal-line-19)">
</text><text class="terminal-r12" x="48.8" y="508" textLength="85.4" clip-path="url(#terminal-line-20)">CODEX&#160;&#160;</text><text class="terminal-r22" x="134.2" y="508" textLength="280.6" clip-path="url(#terminal-line-20)">codex-astrology-websi…&#160;</text><text class="terminal-r23" x="414.8" y="508" textLength="36.6" clip-path="url(#terminal-line-20)">&lt;1m</text><text class="terminal-r5" x="500.2" y="508" textLength="12.2" clip-path="url(#terminal-line-20)">│</text><text class="terminal-r14" x="512.4" y="508" textLength="12.2" clip-path="url(#terminal-line-20)">│</text><text class="terminal-r15" x="524.6" y="508" textLength="158.6" clip-path="url(#terminal-line-20)">RECENT&#160;OUTPUT</text><text class="terminal-r1" x="1220" y="508" textLength="12.2" clip-path="url(#terminal-line-20)">
</text><text class="terminal-r24" x="48.8" y="532.4" textLength="268.4" clip-path="url(#terminal-line-21)">Detached&#160;·&#160;In&#160;progress</text><text class="terminal-r5" x="500.2" y="532.4" textLength="12.2" clip-path="url(#terminal-line-21)">│</text><text class="terminal-r14" x="512.4" y="532.4" textLength="12.2" clip-path="url(#terminal-line-21)">│</text><text class="terminal-r27" x="756.4" y="532.4" textLength="109.8" clip-path="url(#terminal-line-21)">&#160;Summary&#160;</text><text class="terminal-r28" x="915" y="532.4" textLength="61" clip-path="url(#terminal-line-21)">&#160;Raw&#160;</text><text class="terminal-r29" x="1024.8" y="532.4" textLength="195.2" clip-path="url(#terminal-line-21)">Summary&#160;&#160;4&#160;lines</text><text class="terminal-r1" x="1220" y="532.4" textLength="12.2" clip-path="url(#terminal-line-21)">
</text><text class="terminal-r7" x="24.4" y="556.8" textLength="134.2" clip-path="url(#terminal-line-22)">MAINTENANCE</text><text class="terminal-r5" x="500.2" y="556.8" textLength="12.2" clip-path="url(#terminal-line-22)">│</text><text class="terminal-r14" x="512.4" y="556.8" textLength="12.2" clip-path="url(#terminal-line-22)">│</text><text class="terminal-r30" x="524.6" y="556.8" textLength="695.4" clip-path="url(#terminal-line-22)">─────────────────────────────────────────────────────────</text><text class="terminal-r1" x="1220" y="556.8" textLength="12.2" clip-path="url(#terminal-line-22)">
</text><text class="terminal-r12" x="24.4" y="581.2" textLength="24.4" clip-path="url(#terminal-line-23)">&gt;&#160;</text><text class="terminal-r11" x="48.8" y="581.2" textLength="134.2" clip-path="url(#terminal-line-23)">Diagnostics</text><text class="terminal-r5" x="500.2" y="581.2" textLength="12.2" clip-path="url(#terminal-line-23)">│</text><text class="terminal-r14" x="512.4" y="581.2" textLength="12.2" clip-path="url(#terminal-line-23)">│</text><text class="terminal-r1" x="1220" y="581.2" textLength="12.2" clip-path="url(#terminal-line-23)">
</text><text class="terminal-r5" x="500.2" y="605.6" textLength="12.2" clip-path="url(#terminal-line-24)">│</text><text class="terminal-r14" x="512.4" y="605.6" textLength="12.2" clip-path="url(#terminal-line-24)">│</text><text class="terminal-r32" x="536.8" y="605.6" textLength="268.4" clip-path="url(#terminal-line-24)">Last&#160;meaningful&#160;output</text><text class="terminal-r1" x="1220" y="605.6" textLength="12.2" clip-path="url(#terminal-line-24)">
</text><text class="terminal-r5" x="500.2" y="630" textLength="12.2" clip-path="url(#terminal-line-25)">│</text><text class="terminal-r5" x="512.4" y="630" textLength="707.6" clip-path="url(#terminal-line-25)">──────────────────────────────────────────────────────────</text><text class="terminal-r1" x="1220" y="630" textLength="12.2" clip-path="url(#terminal-line-25)">
</text><text class="terminal-r5" x="500.2" y="654.4" textLength="12.2" clip-path="url(#terminal-line-26)">│</text><text class="terminal-r15" x="536.8" y="654.4" textLength="85.4" clip-path="url(#terminal-line-26)">ACTIONS</text><text class="terminal-r1" x="1220" y="654.4" textLength="12.2" clip-path="url(#terminal-line-26)">
</text><text class="terminal-r5" x="500.2" y="678.8" textLength="12.2" clip-path="url(#terminal-line-27)">│</text><text class="terminal-r17" x="536.8" y="678.8" textLength="622.2" clip-path="url(#terminal-line-27)">Enter&#160;Attach&#160;&#160;&#160;e&#160;Edit&#160;&#160;&#160;n&#160;Task&#160;&#160;&#160;l&#160;Logs&#160;&#160;&#160;r&#160;Refresh</text><text class="terminal-r1" x="1220" y="678.8" textLength="12.2" clip-path="url(#terminal-line-27)">
</text><text class="terminal-r5" x="0" y="703.2" textLength="1220" clip-path="url(#terminal-line-28)">────────────────────────────────────────────────────────────────────────────────────────────────────</text><text class="terminal-r1" x="1220" y="703.2" textLength="12.2" clip-path="url(#terminal-line-28)">
</text><text class="terminal-r33" x="24.4" y="727.6" textLength="1049.2" clip-path="url(#terminal-line-29)">↑↓/jk&#160;Nav&#160;&#160;&#160;Enter&#160;Attach&#160;&#160;&#160;c&#160;Create&#160;&#160;&#160;/&#160;Search&#160;&#160;&#160;f&#160;Filter&#160;&#160;&#160;d&#160;Manage&#160;&#160;&#160;?&#160;Help&#160;&#160;&#160;q&#160;Quit</text>
    </g>
    </g>
</svg>
