<svg class="rich-terminal" viewBox="0 0 1238 782.0" xmlns="http://www.w3.org/2000/svg">
    <!-- Generated with Rich https://www.textualize.io -->
    <style>

    @font-face {
        font-family: "Fira Code";
        src: local("FiraCode-Regular"),
                url("https://cdnjs.cloudflare.com/ajax/libs/firacode/6.2.0/woff2/FiraCode-Regular.woff2") format("woff2"),
                url("https://cdnjs.cloudflare.com/ajax/libs/firacode/6.2.0/woff/FiraCode-Regular.woff") format("woff");
        font-style: normal;
        font-weight: 400;
    }
    @font-face {
        font-family: "Fira Code";
        src: local("FiraCode-Bold"),
                url("https://cdnjs.cloudflare.com/ajax/libs/firacode/6.2.0/woff2/FiraCode-Bold.woff2") format("woff2"),
                url("https://cdnjs.cloudflare.com/ajax/libs/firacode/6.2.0/woff/FiraCode-Bold.woff") format("woff");
        font-style: bold;
        font-weight: 700;
    }

    .terminal-matrix {
        font-family: Fira Code, monospace;
        font-size: 20px;
        line-height: 24.4px;
        font-variant-east-asian: full-width;
    }

    .terminal-title {
        font-size: 18px;
        font-weight: bold;
        font-family: arial;
    }

    .terminal-r1 { fill: #c5c8c6 }
.terminal-r2 { fill: #72c78e;font-weight: bold }
.terminal-r3 { fill: #c9d8e0 }
.terminal-r4 { fill: #96a1aa }
.terminal-r5 { fill: #3f8a9d }
.terminal-r6 { fill: #c792ea;font-weight: bold }
.terminal-r7 { fill: #c9d8e0;font-weight: bold }
.terminal-r8 { fill: #e8b44c;font-weight: bold }
.terminal-r9 { fill: #b4c3ca;font-weight: bold }
.terminal-r10 { fill: #72c78e }
.terminal-r11 { fill: #8a949c }
.terminal-r12 { fill: #555a67 }
.terminal-r13 { fill: #8a949c;font-weight: bold }
.terminal-r14 { fill: #6a727a;font-weight: bold }
.terminal-r15 { fill: #859198 }
.terminal-r16 { fill: #b4c3ca }
.terminal-r17 { fill: #ffffff }
.terminal-r18 { fill: #e8b44c }
.terminal-r19 { fill: #ffffff;font-weight: bold }
.terminal-r20 { fill: #bdd7dd }
.terminal-r21 { fill: #98e024;font-weight: bold }
.terminal-r22 { fill: #fd971f;font-weight: bold }
.terminal-r23 { fill: #9fa39e;font-weight: bold }
.terminal-r24 { fill: #deedf5;font-weight: bold }
.terminal-r25 { fill: #aaacaf;font-weight: bold }
.terminal-r26 { fill: #050a14 }
.terminal-r27 { fill: #181c23 }
.terminal-r28 { fill: #2c3038 }
.terminal-r29 { fill: #373b46 }
    </style>

    <defs>
    <clipPath id="terminal-clip-terminal">
      <rect x="0" y="0" width="1219.0" height="731.0" />
    </clipPath>
    <clipPath id="terminal-line-0">
    <rect x="0" y="1.5" width="1220" height="24.65"/>
            </clipPath>
<clipPath id="terminal-line-1">
    <rect x="0" y="25.9" width="1220" height="24.65"/>
            </clipPath>
<clipPath id="terminal-line-2">
    <rect x="0" y="50.3" width="1220" height="24.65"/>
            </clipPath>
<clipPath id="terminal-line-3">
    <rect x="0" y="74.7" width="1220" height="24.65"/>
            </clipPath>
<clipPath id="terminal-line-4">
    <rect x="0" y="99.1" width="1220" height="24.65"/>
            </clipPath>
<clipPath id="terminal-line-5">
    <rect x="0" y="123.5" width="1220" height="24.65"/>
            </clipPath>
<clipPath id="terminal-line-6">
    <rect x="0" y="147.9" width="1220" height="24.65"/>
            </clipPath>
<clipPath id="terminal-line-7">
    <rect x="0" y="172.3" width="1220" height="24.65"/>
            </clipPath>
<clipPath id="terminal-line-8">
    <rect x="0" y="196.7" width="1220" height="24.65"/>
            </clipPath>
<clipPath id="terminal-line-9">
    <rect x="0" y="221.1" width="1220" height="24.65"/>
            </clipPath>
<clipPath id="terminal-line-10">
    <rect x="0" y="245.5" width="1220" height="24.65"/>
            </clipPath>
<clipPath id="terminal-line-11">
    <rect x="0" y="269.9" width="1220" height="24.65"/>
            </clipPath>
<clipPath id="terminal-line-12">
    <rect x="0" y="294.3" width="1220" height="24.65"/>
            </clipPath>
<clipPath id="terminal-line-13">
    <rect x="0" y="318.7" width="1220" height="24.65"/>
            </clipPath>
<clipPath id="terminal-line-14">
    <rect x="0" y="343.1" width="1220" height="24.65"/>
            </clipPath>
<clipPath id="terminal-line-15">
    <rect x="0" y="367.5" width="1220" height="24.65"/>
            </clipPath>
<clipPath id="terminal-line-16">
    <rect x="0" y="391.9" width="1220" height="24.65"/>
            </clipPath>
<clipPath id="terminal-line-17">
    <rect x="0" y="416.3" width="1220" height="24.65"/>
            </clipPath>
<clipPath id="terminal-line-18">
    <rect x="0" y="440.7" width="1220" height="24.65"/>
            </clipPath>
<clipPath id="terminal-line-19">
    <rect x="0" y="465.1" width="1220" height="24.65"/>
            </clipPath>
<clipPath id="terminal-line-20">
    <rect x="0" y="489.5" width="1220" height="24.65"/>
            </clipPath>
<clipPath id="terminal-line-21">
    <rect x="0" y="513.9" width="1220" height="24.65"/>
            </clipPath>
<clipPath id="terminal-line-22">
    <rect x="0" y="538.3" width="1220" height="24.65"/>
            </clipPath>
<clipPath id="terminal-line-23">
    <rect x="0" y="562.7" width="1220" height="24.65"/>
            </clipPath>
<clipPath id="terminal-line-24">
    <rect x="0" y="587.1" width="1220" height="24.65"/>
            </clipPath>
<clipPath id="terminal-line-25">
    <rect x="0" y="611.5" width="1220" height="24.65"/>
            </clipPath>
<clipPath id="terminal-line-26">
    <rect x="0" y="635.9" width="1220" height="24.65"/>
            </clipPath>
<clipPath id="terminal-line-27">
    <rect x="0" y="660.3" width="1220" height="24.65"/>
            </clipPath>
<clipPath id="terminal-line-28">
    <rect x="0" y="684.7" width="1220" height="24.65"/>
            </clipPath>
    </defs>

    <rect fill="#292929" stroke="rgba(255,255,255,0.35)" stroke-width="1" x="1" y="1" width="1236" height="780" rx="8"/><text class="terminal-title" fill="#c5c8c6" text-anchor="middle" x="618" y="27">Workspace</text>
            <g transform="translate(26,22)">
            <circle cx="0" cy="0" r="7" fill="#ff5f57"/>
            <circle cx="22" cy="0" r="7" fill="#febc2e"/>
            <circle cx="44" cy="0" r="7" fill="#28c840"/>
            </g>
        
    <g transform="translate(9, 41)" clip-path="url(#terminal-clip-terminal)">
    <rect fill="#333844" x="0" y="1.5" width="1220" height="24.65" shape-rendering="crispEdges"/><rect fill="#333844" x="0" y="25.9" width="24.4" height="24.65" shape-rendering="crispEdges"/><rect fill="#333844" x="24.4" y="25.9" width="24.4" height="24.65" shape-rendering="crispEdges"/><rect fill="#333844" x="48.8" y="25.9" width="329.4" height="24.65" shape-rendering="crispEdges"/><rect fill="#333844" x="378.2" y="25.9" width="841.8" height="24.65" shape-rendering="crispEdges"/><rect fill="#333844" x="0" y="50.3" width="24.4" height="24.65" shape-rendering="crispEdges"/><rect fill="#333844" x="24.4" y="50.3" width="878.4" height="24.65" shape-rendering="crispEdges"/><rect fill="#333844" x="902.8" y="50.3" width="317.2" height="24.65" shape-rendering="crispEdges"/><rect fill="#333844" x="0" y="74.7" width="1220" height="24.65" shape-rendering="crispEdges"/><rect fill="#2c3038" x="0" y="99.1" width="500.2" height="24.65" shape-rendering="crispEdges"/><rect fill="#2c3038" x="500.2" y="99.1" width="12.2" height="24.65" shape-rendering="crispEdges"/><rect fill="#434855" x="512.4" y="99.1" width="24.4" height="24.65" shape-rendering="crispEdges"/><rect fill="#434855" x="536.8" y="99.1" width="85.4" height="24.65" shape-rendering="crispEdges"/><rect fill="#434855" x="622.2" y="99.1" width="366" height="24.65" shape-rendering="crispEdges"/><rect fill="#434855" x="988.2" y="99.1" width="109.8" height="24.65" shape-rendering="crispEdges"/><rect fill="#434855" x="1098" y="99.1" width="122" height="24.65" shape-rendering="crispEdges"/><rect fill="#2c3038" x="0" y="123.5" width="12.2" height="24.65" shape-rendering="crispEdges"/><rect fill="#434855" x="12.2" y="123.5" width="12.2" height="24.65" shape-rendering="crispEdges"/><rect fill="#434855" x="24.4" y="123.5" width="122" height="24.65" shape-rendering="crispEdges"/><rect fill="#434855" x="146.4" y="123.5" width="12.2" height="24.65" shape-rendering="crispEdges"/><rect fill="#2c3038" x="158.6" y="123.5" width="12.2" height="24.65" shape-rendering="crispEdges"/><rect fill="#434855" x="170.8" y="123.5" width="12.2" height="24.65" shape-rendering="crispEdges"/><rect fill="#434855" x="183" y="123.5" width="97.6" height="24.65" shape-rendering="crispEdges"/><rect fill="#434855" x="280.6" y="123.5" width="12.2" height="24.65" shape-rendering="crispEdges"/><rect fill="#2c3038" x="292.8" y="123.5" width="12.2" height="24.65" shape-rendering="crispEdges"/><rect fill="#434855" x="305" y="123.5" width="12.2" height="24.65" shape-rendering="crispEdges"/><rect fill="#434855" x="317.2" y="123.5" width="97.6" height="24.65" shape-rendering="crispEdges"/><rect fill="#434855" x="414.8" y="123.5" width="12.2" height="24.65" shape-rendering="crispEdges"/><rect fill="#2c3038" x="427" y="123.5" width="12.2" height="24.65" shape-rendering="crispEdges"/><rect fill="#434855" x="439.2" y="123.5" width="12.2" height="24.65" shape-rendering="crispEdges"/><rect fill="#434855" x="451.4" y="123.5" width="36.6" height="24.65" shape-rendering="crispEdges"/><rect fill="#2c3038" x="488" y="123.5" width="12.2" height="24.65" shape-rendering="crispEdges"/><rect fill="#2c3038" x="500.2" y="123.5" width="12.2" height="24.65" shape-rendering="crispEdges"/><rect fill="#434855" x="512.4" y="123.5" width="24.4" height="24.65" shape-rendering="crispEdges"/><rect fill="#434855" x="536.8" y="123.5" width="97.6" height="24.65" shape-rendering="crispEdges"/><rect fill="#434855" x="634.4" y="123.5" width="585.6" height="24.65" shape-rendering="crispEdges"/><rect fill="#2c3038" x="0" y="147.9" width="500.2" height="24.65" shape-rendering="crispEdges"/><rect fill="#2c3038" x="500.2" y="147.9" width="12.2" height="24.65" shape-rendering="crispEdges"/><rect fill="#434855" x="512.4" y="147.9" width="24.4" height="24.65" shape-rendering="crispEdges"/><rect fill="#434855" x="536.8" y="147.9" width="536.8" height="24.65" shape-rendering="crispEdges"/><rect fill="#434855" x="1073.6" y="147.9" width="146.4" height="24.65" shape-rendering="crispEdges"/><rect fill="#2c3038" x="0" y="172.3" width="24.4" height="24.65" shape-rendering="crispEdges"/><rect fill="#2c3038" x="24.4" y="172.3" width="402.6" height="24.65" shape-rendering="crispEdges"/><rect fill="#2c3038" x="427" y="172.3" width="73.2" height="24.65" shape-rendering="crispEdges"/><rect fill="#2c3038" x="500.2" y="172.3" width="12.2" height="24.65" shape-rendering="crispEdges"/><rect fill="#2c3038" x="512.4" y="172.3" width="12.2" height="24.65" shape-rendering="crispEdges"/><rect fill="#2c3038" x="524.6" y="172.3" width="97.6" height="24.65" shape-rendering="crispEdges"/><rect fill="#2c3038" x="622.2" y="172.3" width="597.8" height="24.65" shape-rendering="crispEdges"/><rect fill="#333840" x="0" y="196.7" width="12.2" height="24.65" shape-rendering="crispEdges"/><rect fill="#2c3038" x="12.2" y="196.7" width="12.2" height="24.65" shape-rendering="crispEdges"/><rect fill="#2c3038" x="24.4" y="196.7" width="256.2" height="24.65" shape-rendering="crispEdges"/><rect fill="#2c3038" x="280.6" y="196.7" width="207.4" height="24.65" shape-rendering="crispEdges"/><rect fill="#333840" x="488" y="196.7" width="12.2" height="24.65" shape-rendering="crispEdges"/><rect fill="#2c3038" x="500.2" y="196.7" width="12.2" height="24.65" shape-rendering="crispEdges"/><rect fill="#2c3038" x="512.4" y="196.7" width="12.2" height="24.65" shape-rendering="crispEdges"/><rect fill="#2c3038" x="524.6" y="196.7" width="170.8" height="24.65" shape-rendering="crispEdges"/><rect fill="#2c3038" x="695.4" y="196.7" width="280.6" height="24.65" shape-rendering="crispEdges"/><rect fill="#2c3038" x="976" y="196.7" width="244" height="24.65" shape-rendering="crispEdges"/><rect fill="#333840" x="0" y="221.1" width="12.2" height="24.65" shape-rendering="crispEdges"/><rect fill="#3f8a9d" x="12.2" y="221.1" width="12.2" height="24.65" shape-rendering="crispEdges"/><rect fill="#3f8a9d" x="24.4" y="221.1" width="24.4" height="24.65" shape-rendering="crispEdges"/><rect fill="#3f8a9d" x="48.8" y="221.1" width="85.4" height="24.65" shape-rendering="crispEdges"/><rect fill="#3f8a9d" x="134.2" y="221.1" width="268.4" height="24.65" shape-rendering="crispEdges"/><rect fill="#3f8a9d" x="402.6" y="221.1" width="36.6" height="24.65" shape-rendering="crispEdges"/><rect fill="#3f8a9d" x="439.2" y="221.1" width="48.8" height="24.65" shape-rendering="crispEdges"/><rect fill="#333840" x="488" y="221.1" width="12.2" height="24.65" shape-rendering="crispEdges"/><rect fill="#2c3038" x="500.2" y="221.1" width="12.2" height="24.65" shape-rendering="crispEdges"/><rect fill="#2c3038" x="512.4" y="221.1" width="12.2" height="24.65" shape-rendering="crispEdges"/><rect fill="#2c3038" x="524.6" y="221.1" width="0" height="24.65" shape-rendering="crispEdges"/><rect fill="#2c3038" x="524.6" y="221.1" width="695.4" height="24.65" shape-rendering="crispEdges"/><rect fill="#333840" x="0" y="245.5" width="12.2" height="24.65" shape-rendering="crispEdges"/><rect fill="#3f8a9d" x="12.2" y="245.5" width="12.2" height="24.65" shape-rendering="crispEdges"/><rect fill="#3f8a9d" x="24.4" y="245.5" width="24.4" height="24.65" shape-rendering="crispEdges"/><rect fill="#3f8a9d" x="48.8" y="245.5" width="122" height="24.65" shape-rendering="crispEdges"/><rect fill="#3f8a9d" x="170.8" y="245.5" width="24.4" height="24.65" shape-rendering="crispEdges"/><rect fill="#3f8a9d" x="195.2" y="245.5" width="195.2" height="24.65" shape-rendering="crispEdges"/><rect fill="#3f8a9d" x="390.4" y="245.5" width="48.8" height="24.65" shape-rendering="crispEdges"/><rect fill="#3f8a9d" x="439.2" y="245.5" width="48.8" height="24.65" shape-rendering="crispEdges"/><rect fill="#333840" x="488" y="245.5" width="12.2" height="24.65" shape-rendering="crispEdges"/><rect fill="#2c3038" x="500.2" y="245.5" width="12.2" height="24.65" shape-rendering="crispEdges"/><rect fill="#2c3038" x="512.4" y="245.5" width="12.2" height="24.65" shape-rendering="crispEdges"/><rect fill="#2c3038" x="524.6" y="245.5" width="73.2" height="24.65" shape-rendering="crispEdges"/><rect fill="#2c3038" x="597.8" y="245.5" width="622.2" height="24.65" shape-rendering="crispEdges"/><rect fill="#333840" x="0" y="269.9" width="12.2" height="24.65" shape-rendering="crispEdges"/><rect fill="#3f8a9d" x="12.2" y="269.9" width="12.2" height="24.65" shape-rendering="crispEdges"/><rect fill="#3f8a9d" x="24.4" y="269.9" width="97.6" height="24.65" shape-rendering="crispEdges"/><rect fill="#3f8a9d" x="122" y="269.9" width="366" height="24.65" shape-rendering="crispEdges"/><rect fill="#333840" x="488" y="269.9" width="12.2" height="24.65" shape-rendering="crispEdges"/><rect fill="#2c3038" x="500.2" y="269.9" width="12.2" height="24.65" shape-rendering="crispEdges"/><rect fill="#2c3038" x="512.4" y="269.9" width="12.2" height="24.65" shape-rendering="crispEdges"/><rect fill="#2c3038" x="524.6" y="269.9" width="170.8" height="24.65" shape-rendering="crispEdges"/><rect fill="#2c3038" x="695.4" y="269.9" width="97.6" height="24.65" shape-rendering="crispEdges"/><rect fill="#2c3038" x="793" y="269.9" width="427" height="24.65" shape-rendering="crispEdges"/><rect fill="#333840" x="0" y="294.3" width="12.2" height="24.65" shape-rendering="crispEdges"/><rect fill="#333840" x="12.2" y="294.3" width="475.8" height="24.65" shape-rendering="crispEdges"/><rect fill="#333840" x="488" y="294.3" width="12.2" height="24.65" shape-rendering="crispEdges"/><rect fill="#2c3038" x="500.2" y="294.3" width="12.2" height="24.65" shape-rendering="crispEdges"/><rect fill="#2c3038" x="512.4" y="294.3" width="12.2" height="24.65" shape-rendering="crispEdges"/><rect fill="#2c3038" x="524.6" y="294.3" width="170.8" height="24.65" shape-rendering="crispEdges"/><rect fill="#2c3038" x="695.4" y="294.3" width="134.2" height="24.65" shape-rendering="crispEdges"/><rect fill="#2c3038" x="829.6" y="294.3" width="390.4" height="24.65" shape-rendering="crispEdges"/><rect fill="#333840" x="0" y="318.7" width="12.2" height="24.65" shape-rendering="crispEdges"/><rect fill="#333840" x="12.2" y="318.7" width="475.8" height="24.65" shape-rendering="crispEdges"/><rect fill="#333840" x="488" y="318.7" width="12.2" height="24.65" shape-rendering="crispEdges"/><rect fill="#2c3038" x="500.2" y="318.7" width="12.2" height="24.65" shape-rendering="crispEdges"/><rect fill="#2c3038" x="512.4" y="318.7" width="12.2" height="24.65" shape-rendering="crispEdges"/><rect fill="#2c3038" x="524.6" y="318.7" width="170.8" height="24.65" shape-rendering="crispEdges"/><rect fill="#2c3038" x="695.4" y="318.7" width="85.4" height="24.65" shape-rendering="crispEdges"/><rect fill="#2c3038" x="780.8" y="318.7" width="439.2" height="24.65" shape-rendering="crispEdges"/><rect fill="#333840" x="0" y="343.1" width="12.2" height="24.65" shape-rendering="crispEdges"/><rect fill="#333840" x="12.2" y="343.1" width="475.8" height="24.65" shape-rendering="crispEdges"/><rect fill="#333840" x="488" y="343.1" width="12.2" height="24.65" shape-rendering="crispEdges"/><rect fill="#2c3038" x="500.2" y="343.1" width="12.2" height="24.65" shape-rendering="crispEdges"/><rect fill="#2c3038" x="512.4" y="343.1" width="12.2" height="24.65" shape-rendering="crispEdges"/><rect fill="#2c3038" x="524.6" y="343.1" width="170.8" height="24.65" shape-rendering="crispEdges"/><rect fill="#2c3038" x="695.4" y="343.1" width="97.6" height="24.65" shape-rendering="crispEdges"/><rect fill="#2c3038" x="793" y="343.1" width="427" height="24.65" shape-rendering="crispEdges"/><rect fill="#333840" x="0" y="367.5" width="12.2" height="24.65" shape-rendering="crispEdges"/><rect fill="#333840" x="12.2" y="367.5" width="475.8" height="24.65" shape-rendering="crispEdges"/><rect fill="#333840" x="488" y="367.5" width="12.2" height="24.65" shape-rendering="crispEdges"/><rect fill="#2c3038" x="500.2" y="367.5" width="12.2" height="24.65" shape-rendering="crispEdges"/><rect fill="#2c3038" x="512.4" y="367.5" width="12.2" height="24.65" shape-rendering="crispEdges"/><rect fill="#2c3038" x="524.6" y="367.5" width="0" height="24.65" shape-rendering="crispEdges"/><rect fill="#2c3038" x="524.6" y="367.5" width="695.4" height="24.65" shape-rendering="crispEdges"/><rect fill="#333840" x="0" y="391.9" width="12.2" height="24.65" shape-rendering="crispEdges"/><rect fill="#333840" x="12.2" y="391.9" width="475.8" height="24.65" shape-rendering="crispEdges"/><rect fill="#333840" x="488" y="391.9" width="12.2" height="24.65" shape-rendering="crispEdges"/><rect fill="#2c3038" x="500.2" y="391.9" width="12.2" height="24.65" shape-rendering="crispEdges"/><rect fill="#61543b" x="512.4" y="391.9" width="12.2" height="24.65" shape-rendering="crispEdges"/><rect fill="#61543b" x="524.6" y="391.9" width="97.6" height="24.65" shape-rendering="crispEdges"/><rect fill="#61543b" x="622.2" y="391.9" width="597.8" height="24.65" shape-rendering="crispEdges"/><rect fill="#333840" x="0" y="416.3" width="12.2" height="24.65" shape-rendering="crispEdges"/><rect fill="#333840" x="12.2" y="416.3" width="475.8" height="24.65" shape-rendering="crispEdges"/><rect fill="#333840" x="488" y="416.3" width="12.2" height="24.65" shape-rendering="crispEdges"/><rect fill="#2c3038" x="500.2" y="416.3" width="12.2" height="24.65" shape-rendering="crispEdges"/><rect fill="#61543b" x="512.4" y="416.3" width="12.2" height="24.65" shape-rendering="crispEdges"/><rect fill="#61543b" x="524.6" y="416.3" width="170.8" height="24.65" shape-rendering="crispEdges"/><rect fill="#61543b" x="695.4" y="416.3" width="524.6" height="24.65" shape-rendering="crispEdges"/><rect fill="#333840" x="0" y="440.7" width="12.2" height="24.65" shape-rendering="crispEdges"/><rect fill="#333840" x="12.2" y="440.7" width="475.8" height="24.65" shape-rendering="crispEdges"/><rect fill="#333840" x="488" y="440.7" width="12.2" height="24.65" shape-rendering="crispEdges"/><rect fill="#2c3038" x="500.2" y="440.7" width="12.2" height="24.65" shape-rendering="crispEdges"/><rect fill="#61543b" x="512.4" y="440.7" width="12.2" height="24.65" shape-rendering="crispEdges"/><rect fill="#61543b" x="524.6" y="440.7" width="573.4" height="24.65" shape-rendering="crispEdges"/><rect fill="#61543b" x="1098" y="440.7" width="122" height="24.65" shape-rendering="crispEdges"/><rect fill="#333840" x="0" y="465.1" width="12.2" height="24.65" shape-rendering="crispEdges"/><rect fill="#333840" x="12.2" y="465.1" width="475.8" height="24.65" shape-rendering="crispEdges"/><rect fill="#333840" x="488" y="465.1" width="12.2" height="24.65" shape-rendering="crispEdges"/><rect fill="#2c3038" x="500.2" y="465.1" width="12.2" height="24.65" shape-rendering="crispEdges"/><rect fill="#2c3038" x="512.4" y="465.1" width="12.2" height="24.65" shape-rendering="crispEdges"/><rect fill="#2c3038" x="524.6" y="465.1" width="158.6" height="24.65" shape-rendering="crispEdges"/><rect fill="#2c3038" x="683.2" y="465.1" width="536.8" height="24.65" shape-rendering="crispEdges"/><rect fill="#333840" x="0" y="489.5" width="12.2" height="24.65" shape-rendering="crispEdges"/><rect fill="#333840" x="12.2" y="489.5" width="475.8" height="24.65" shape-rendering="crispEdges"/><rect fill="#333840" x="488" y="489.5" width="12.2" height="24.65" shape-rendering="crispEdges"/><rect fill="#2c3038" x="500.2" y="489.5" width="12.2" height="24.65" shape-rendering="crispEdges"/><rect fill="#2c3038" x="512.4" y="489.5" width="12.2" height="24.65" shape-rendering="crispEdges"/><rect fill="#2c3038" x="524.6" y="489.5" width="219.6" height="24.65" shape-rendering="crispEdges"/><rect fill="#2e4853" x="744.2" y="489.5" width="12.2" height="24.65" shape-rendering="crispEdges"/><rect fill="#2e4853" x="756.4" y="489.5" width="109.8" height="24.65" shape-rendering="crispEdges"/><rect fill="#2e4853" x="866.2" y="489.5" width="12.2" height="24.65" shape-rendering="crispEdges"/><rect fill="#2c3038" x="878.4" y="489.5" width="36.6" height="24.65" shape-rendering="crispEdges"/><rect fill="#2c3038" x="915" y="489.5" width="61" height="24.65" shape-rendering="crispEdges"/><rect fill="#2c3038" x="976" y="489.5" width="48.8" height="24.65" shape-rendering="crispEdges"/><rect fill="#2c3038" x="1024.8" y="489.5" width="195.2" height="24.65" shape-rendering="crispEdges"/><rect fill="#333840" x="0" y="513.9" width="12.2" height="24.65" shape-rendering="crispEdges"/><rect fill="#333840" x="12.2" y="513.9" width="475.8" height="24.65" shape-rendering="crispEdges"/><rect fill="#333840" x="488" y="513.9" width="12.2" height="24.65" shape-rendering="crispEdges"/><rect fill="#2c3038" x="500.2" y="513.9" width="12.2" height="24.65" shape-rendering="crispEdges"/><rect fill="#2c3038" x="512.4" y="513.9" width="12.2" height="24.65" shape-rendering="crispEdges"/><rect fill="#050a14" x="524.6" y="513.9" width="695.4" height="24.65" shape-rendering="crispEdges"/><rect fill="#333840" x="0" y="538.3" width="12.2" height="24.65" shape-rendering="crispEdges"/><rect fill="#333840" x="12.2" y="538.3" width="475.8" height="24.65" shape-rendering="crispEdges"/><rect fill="#333840" x="488" y="538.3" width="12.2" height="24.65" shape-rendering="crispEdges"/><rect fill="#2c3038" x="500.2" y="538.3" width="12.2" height="24.65" shape-rendering="crispEdges"/><rect fill="#2c3038" x="512.4" y="538.3" width="12.2" height="24.65" shape-rendering="crispEdges"/><rect fill="#050a14" x="524.6" y="538.3" width="671" height="24.65" shape-rendering="crispEdges"/><rect fill="#274853" x="1195.6" y="538.3" width="24.4" height="24.65" shape-rendering="crispEdges"/><rect fill="#333840" x="0" y="562.7" width="12.2" height="24.65" shape-rendering="crispEdges"/><rect fill="#333840" x="12.2" y="562.7" width="475.8" height="24.65" shape-rendering="crispEdges"/><rect fill="#333840" x="488" y="562.7" width="12.2" height="24.65" shape-rendering="crispEdges"/><rect fill="#2c3038" x="500.2" y="562.7" width="12.2" height="24.65" shape-rendering="crispEdges"/><rect fill="#2c3038" x="512.4" y="562.7" width="12.2" height="24.65" shape-rendering="crispEdges"/><rect fill="#050a14" x="524.6" y="562.7" width="12.2" height="24.65" shape-rendering="crispEdges"/><rect fill="#050a14" x="536.8" y="562.7" width="268.4" height="24.65" shape-rendering="crispEdges"/><rect fill="#050a14" x="805.2" y="562.7" width="390.4" height="24.65" shape-rendering="crispEdges"/><rect fill="#274853" x="1195.6" y="562.7" width="24.4" height="24.65" shape-rendering="crispEdges"/><rect fill="#333840" x="0" y="587.1" width="12.2" height="24.65" shape-rendering="crispEdges"/><rect fill="#333840" x="12.2" y="587.1" width="475.8" height="24.65" shape-rendering="crispEdges"/><rect fill="#333840" x="488" y="587.1" width="12.2" height="24.65" shape-rendering="crispEdges"/><rect fill="#2c3038" x="500.2" y="587.1" width="12.2" height="24.65" shape-rendering="crispEdges"/><rect fill="#2c3038" x="512.4" y="587.1" width="12.2" height="24.65" shape-rendering="crispEdges"/><rect fill="#050a14" x="524.6" y="587.1" width="12.2" height="24.65" shape-rendering="crispEdges"/><rect fill="#050a14" x="536.8" y="587.1" width="280.6" height="24.65" shape-rendering="crispEdges"/><rect fill="#050a14" x="817.4" y="587.1" width="378.2" height="24.65" shape-rendering="crispEdges"/><rect fill="#274853" x="1195.6" y="587.1" width="24.4" height="24.65" shape-rendering="crispEdges"/><rect fill="#333840" x="0" y="611.5" width="12.2" height="24.65" shape-rendering="crispEdges"/><rect fill="#333840" x="12.2" y="611.5" width="475.8" height="24.65" shape-rendering="crispEdges"/><rect fill="#333840" x="488" y="611.5" width="12.2" height="24.65" shape-rendering="crispEdges"/><rect fill="#2c3038" x="500.2" y="611.5" width="12.2" height="24.65" shape-rendering="crispEdges"/><rect fill="#2c3038" x="512.4" y="611.5" width="24.4" height="24.65" shape-rendering="crispEdges"/><rect fill="#2c3038" x="536.8" y="611.5" width="85.4" height="24.65" shape-rendering="crispEdges"/><rect fill="#2c3038" x="622.2" y="611.5" width="597.8" height="24.65" shape-rendering="crispEdges"/><rect fill="#333840" x="0" y="635.9" width="12.2" height="24.65" shape-rendering="crispEdges"/><rect fill="#333840" x="12.2" y="635.9" width="475.8" height="24.65" shape-rendering="crispEdges"/><rect fill="#333840" x="488" y="635.9" width="12.2" height="24.65" shape-rendering="crispEdges"/><rect fill="#2c3038" x="500.2" y="635.9" width="12.2" height="24.65" shape-rendering="crispEdges"/><rect fill="#2c3038" x="512.4" y="635.9" width="24.4" height="24.65" shape-rendering="crispEdges"/><rect fill="#2c3038" x="536.8" y="635.9" width="122" height="24.65" shape-rendering="crispEdges"/><rect fill="#2c3038" x="658.8" y="635.9" width="12.2" height="24.65" shape-rendering="crispEdges"/><rect fill="#373b46" x="671" y="635.9" width="12.2" height="24.65" shape-rendering="crispEdges"/><rect fill="#272b35" x="683.2" y="635.9" width="122" height="24.65" shape-rendering="crispEdges"/><rect fill="#2c3038" x="805.2" y="635.9" width="12.2" height="24.65" shape-rendering="crispEdges"/><rect fill="#2c3038" x="817.4" y="635.9" width="24.4" height="24.65" shape-rendering="crispEdges"/><rect fill="#2c3038" x="841.8" y="635.9" width="73.2" height="24.65" shape-rendering="crispEdges"/><rect fill="#2c3038" x="915" y="635.9" width="61" height="24.65" shape-rendering="crispEdges"/><rect fill="#2c3038" x="976" y="635.9" width="61" height="24.65" shape-rendering="crispEdges"/><rect fill="#2c3038" x="1037" y="635.9" width="36.6" height="24.65" shape-rendering="crispEdges"/><rect fill="#2c3038" x="1073.6" y="635.9" width="97.6" height="24.65" shape-rendering="crispEdges"/><rect fill="#2c3038" x="1171.2" y="635.9" width="48.8" height="24.65" shape-rendering="crispEdges"/><rect fill="#333840" x="0" y="660.3" width="12.2" height="24.65" shape-rendering="crispEdges"/><rect fill="#333840" x="12.2" y="660.3" width="475.8" height="24.65" shape-rendering="crispEdges"/><rect fill="#333840" x="488" y="660.3" width="12.2" height="24.65" shape-rendering="crispEdges"/><rect fill="#2c3038" x="500.2" y="660.3" width="12.2" height="24.65" shape-rendering="crispEdges"/><rect fill="#2c3038" x="512.4" y="660.3" width="707.6" height="24.65" shape-rendering="crispEdges"/><rect fill="#333844" x="0" y="684.7" width="1220" height="24.65" shape-rendering="crispEdges"/><rect fill="#333844" x="0" y="709.1" width="24.4" height="24.65" shape-rendering="crispEdges"/><rect fill="#333844" x="24.4" y="709.1" width="1037" height="24.65" shape-rendering="crispEdges"/><rect fill="#333844" x="1061.4" y="709.1" width="134.2" height="24.65" shape-rendering="crispEdges"/><rect fill="#333844" x="1195.6" y="709.1" width="24.4" height="24.65" shape-rendering="crispEdges"/>
    <g class="terminal-matrix">
    <text class="terminal-r1" x="1220" y="20" textLength="12.2" clip-path="url(#terminal-line-0)">
</text><text class="terminal-r2" x="24.4" y="44.4" textLength="24.4" clip-path="url(#terminal-line-1)">ws</text><text class="terminal-r3" x="48.8" y="44.4" textLength="329.4" clip-path="url(#terminal-line-1)">&#160;&#160;Workspace&#160;Session&#160;Manager</text><text class="terminal-r1" x="1220" y="44.4" textLength="12.2" clip-path="url(#terminal-line-1)">
</text><text class="terminal-r4" x="24.4" y="68.8" textLength="878.4" clip-path="url(#terminal-line-2)">4&#160;sessions&#160;•&#160;1&#160;attached&#160;•&#160;3&#160;detached&#160;•&#160;0&#160;stopped&#160;•&#160;1&#160;warning&#160;•&#160;Attention</text><text class="terminal-r1" x="1220" y="68.8" textLength="12.2" clip-path="url(#terminal-line-2)">
</text><text class="terminal-r5" x="0" y="93.2" textLength="1220" clip-path="url(#terminal-line-3)">────────────────────────────────────────────────────────────────────────────────────────────────────</text><text class="terminal-r1" x="1220" y="93.2" textLength="12.2" clip-path="url(#terminal-line-3)">
</text><text class="terminal-r5" x="500.2" y="117.6" textLength="12.2" clip-path="url(#terminal-line-4)">│</text><text class="terminal-r6" x="536.8" y="117.6" textLength="85.4" clip-path="url(#terminal-line-4)">CLAUDE&#160;</text><text class="terminal-r7" x="622.2" y="117.6" textLength="366" clip-path="url(#terminal-line-4)">claude-sample-release-workflow</text><text class="terminal-r8" x="988.2" y="117.6" textLength="109.8" clip-path="url(#terminal-line-4)">&#160;&#160;!&#160;Input</text><text class="terminal-r1" x="1220" y="117.6" textLength="12.2" clip-path="url(#terminal-line-4)">
</text><text class="terminal-r9" x="24.4" y="142" textLength="122" clip-path="url(#terminal-line-5)">&#160;+&#160;Create&#160;</text><text class="terminal-r9" x="183" y="142" textLength="97.6" clip-path="url(#terminal-line-5)">&#160;Resume&#160;</text><text class="terminal-r9" x="317.2" y="142" textLength="97.6" clip-path="url(#terminal-line-5)">&#160;Filter&#160;</text><text class="terminal-r9" x="451.4" y="142" textLength="36.6" clip-path="url(#terminal-line-5)">&#160;Gr</text><text class="terminal-r5" x="500.2" y="142" textLength="12.2" clip-path="url(#terminal-line-5)">│</text><text class="terminal-r8" x="536.8" y="142" textLength="97.6" clip-path="url(#terminal-line-5)">required</text><text class="terminal-r1" x="1220" y="142" textLength="12.2" clip-path="url(#terminal-line-5)">
</text><text class="terminal-r5" x="500.2" y="166.4" textLength="12.2" clip-path="url(#terminal-line-6)">│</text><text class="terminal-r10" x="536.8" y="166.4" textLength="536.8" clip-path="url(#terminal-line-6)">Attached&#160;·&#160;In&#160;progress&#160;·&#160;Last&#160;active&#160;&lt;1m&#160;ago</text><text class="terminal-r1" x="1220" y="166.4" textLength="12.2" clip-path="url(#terminal-line-6)">
</text><text class="terminal-r11" x="24.4" y="190.8" textLength="402.6" clip-path="url(#terminal-line-7)">Sessions&#160;·&#160;Group:&#160;Attention&#160;(g)&#160;·</text><text class="terminal-r5" x="500.2" y="190.8" textLength="12.2" clip-path="url(#terminal-line-7)">│</text><text class="terminal-r12" x="512.4" y="190.8" textLength="12.2" clip-path="url(#terminal-line-7)">│</text><text class="terminal-r13" x="524.6" y="190.8" textLength="97.6" clip-path="url(#terminal-line-7)">OVERVIEW</text><text class="terminal-r1" x="1220" y="190.8" textLength="12.2" clip-path="url(#terminal-line-7)">
</text><text class="terminal-r14" x="24.4" y="215.2" textLength="256.2" clip-path="url(#terminal-line-8)">WAITING&#160;FOR&#160;INPUT&#160;(1)</text><text class="terminal-r5" x="500.2" y="215.2" textLength="12.2" clip-path="url(#terminal-line-8)">│</text><text class="terminal-r12" x="512.4" y="215.2" textLength="12.2" clip-path="url(#terminal-line-8)">│</text><text class="terminal-r15" x="524.6" y="215.2" textLength="170.8" clip-path="url(#terminal-line-8)">Display&#160;name&#160;&#160;</text><text class="terminal-r16" x="695.4" y="215.2" textLength="280.6" clip-path="url(#terminal-line-8)">sample-release-workflow</text><text class="terminal-r1" x="1220" y="215.2" textLength="12.2" clip-path="url(#terminal-line-8)">
</text><text class="terminal-r18" x="24.4" y="239.6" textLength="24.4" clip-path="url(#terminal-line-9)">!&#160;</text><text class="terminal-r6" x="48.8" y="239.6" textLength="85.4" clip-path="url(#terminal-line-9)">CLAUDE&#160;</text><text class="terminal-r19" x="134.2" y="239.6" textLength="268.4" clip-path="url(#terminal-line-9)">claude-sample-releas…&#160;</text><text class="terminal-r20" x="402.6" y="239.6" textLength="36.6" clip-path="url(#terminal-line-9)">&lt;1m</text><text class="terminal-r5" x="500.2" y="239.6" textLength="12.2" clip-path="url(#terminal-line-9)">│</text><text class="terminal-r12" x="512.4" y="239.6" textLength="12.2" clip-path="url(#terminal-line-9)">│</text><text class="terminal-r1" x="1220" y="239.6" textLength="12.2" clip-path="url(#terminal-line-9)">
</text><text class="terminal-r21" x="48.8" y="264" textLength="122" clip-path="url(#terminal-line-10)">●&#160;Attached</text><text class="terminal-r22" x="195.2" y="264" textLength="195.2" clip-path="url(#terminal-line-10)">?&#160;Input&#160;required</text><text class="terminal-r20" x="390.4" y="264" textLength="48.8" clip-path="url(#terminal-line-10)">&#160;&#160;In</text><text class="terminal-r5" x="500.2" y="264" textLength="12.2" clip-path="url(#terminal-line-10)">│</text><text class="terminal-r12" x="512.4" y="264" textLength="12.2" clip-path="url(#terminal-line-10)">│</text><text class="terminal-r13" x="524.6" y="264" textLength="73.2" clip-path="url(#terminal-line-10)">STATUS</text><text class="terminal-r1" x="1220" y="264" textLength="12.2" clip-path="url(#terminal-line-10)">
</text><text class="terminal-r20" x="24.4" y="288.4" textLength="97.6" clip-path="url(#terminal-line-11)">progress</text><text class="terminal-r5" x="500.2" y="288.4" textLength="12.2" clip-path="url(#terminal-line-11)">│</text><text class="terminal-r12" x="512.4" y="288.4" textLength="12.2" clip-path="url(#terminal-line-11)">│</text><text class="terminal-r15" x="524.6" y="288.4" textLength="170.8" clip-path="url(#terminal-line-11)">Runtime&#160;&#160;&#160;&#160;&#160;&#160;&#160;</text><text class="terminal-r16" x="695.4" y="288.4" textLength="97.6" clip-path="url(#terminal-line-11)">Attached</text><text class="terminal-r1" x="1220" y="288.4" textLength="12.2" clip-path="url(#terminal-line-11)">
</text><text class="terminal-r5" x="500.2" y="312.8" textLength="12.2" clip-path="url(#terminal-line-12)">│</text><text class="terminal-r12" x="512.4" y="312.8" textLength="12.2" clip-path="url(#terminal-line-12)">│</text><text class="terminal-r15" x="524.6" y="312.8" textLength="170.8" clip-path="url(#terminal-line-12)">Task&#160;&#160;&#160;&#160;&#160;&#160;&#160;&#160;&#160;&#160;</text><text class="terminal-r16" x="695.4" y="312.8" textLength="134.2" clip-path="url(#terminal-line-12)">In&#160;progress</text><text class="terminal-r1" x="1220" y="312.8" textLength="12.2" clip-path="url(#terminal-line-12)">
</text><text class="terminal-r5" x="500.2" y="337.2" textLength="12.2" clip-path="url(#terminal-line-13)">│</text><text class="terminal-r12" x="512.4" y="337.2" textLength="12.2" clip-path="url(#terminal-line-13)">│</text><text class="terminal-r15" x="524.6" y="337.2" textLength="170.8" clip-path="url(#terminal-line-13)">Agent&#160;&#160;&#160;&#160;&#160;&#160;&#160;&#160;&#160;</text><text class="terminal-r16" x="695.4" y="337.2" textLength="85.4" clip-path="url(#terminal-line-13)">Waiting</text><text class="terminal-r1" x="1220" y="337.2" textLength="12.2" clip-path="url(#terminal-line-13)">
</text><text class="terminal-r5" x="500.2" y="361.6" textLength="12.2" clip-path="url(#terminal-line-14)">│</text><text class="terminal-r12" x="512.4" y="361.6" textLength="12.2" clip-path="url(#terminal-line-14)">│</text><text class="terminal-r15" x="524.6" y="361.6" textLength="170.8" clip-path="url(#terminal-line-14)">Input&#160;&#160;&#160;&#160;&#160;&#160;&#160;&#160;&#160;</text><text class="terminal-r16" x="695.4" y="361.6" textLength="97.6" clip-path="url(#terminal-line-14)">Required</text><text class="terminal-r1" x="1220" y="361.6" textLength="12.2" clip-path="url(#terminal-line-14)">
</text><text class="terminal-r5" x="500.2" y="386" textLength="12.2" clip-path="url(#terminal-line-15)">│</text><text class="terminal-r12" x="512.4" y="386" textLength="12.2" clip-path="url(#terminal-line-15)">│</text><text class="terminal-r1" x="1220" y="386" textLength="12.2" clip-path="url(#terminal-line-15)">
</text><text class="terminal-r5" x="500.2" y="410.4" textLength="12.2" clip-path="url(#terminal-line-16)">│</text><text class="terminal-r18" x="512.4" y="410.4" textLength="12.2" clip-path="url(#terminal-line-16)">│</text><text class="terminal-r23" x="524.6" y="410.4" textLength="97.6" clip-path="url(#terminal-line-16)">ACTIVITY</text><text class="terminal-r1" x="1220" y="410.4" textLength="12.2" clip-path="url(#terminal-line-16)">
</text><text class="terminal-r5" x="500.2" y="434.8" textLength="12.2" clip-path="url(#terminal-line-17)">│</text><text class="terminal-r18" x="512.4" y="434.8" textLength="12.2" clip-path="url(#terminal-line-17)">│</text><text class="terminal-r8" x="524.6" y="434.8" textLength="170.8" clip-path="url(#terminal-line-17)">Input&#160;required</text><text class="terminal-r1" x="1220" y="434.8" textLength="12.2" clip-path="url(#terminal-line-17)">
</text><text class="terminal-r5" x="500.2" y="459.2" textLength="12.2" clip-path="url(#terminal-line-18)">│</text><text class="terminal-r18" x="512.4" y="459.2" textLength="12.2" clip-path="url(#terminal-line-18)">│</text><text class="terminal-r9" x="524.6" y="459.2" textLength="573.4" clip-path="url(#terminal-line-18)">This&#160;status&#160;was&#160;explicitly&#160;set&#160;for&#160;the&#160;session.</text><text class="terminal-r1" x="1220" y="459.2" textLength="12.2" clip-path="url(#terminal-line-18)">
</text><text class="terminal-r5" x="500.2" y="483.6" textLength="12.2" clip-path="url(#terminal-line-19)">│</text><text class="terminal-r12" x="512.4" y="483.6" textLength="12.2" clip-path="url(#terminal-line-19)">│</text><text class="terminal-r13" x="524.6" y="483.6" textLength="158.6" clip-path="url(#terminal-line-19)">RECENT&#160;OUTPUT</text><text class="terminal-r1" x="1220" y="483.6" textLength="12.2" clip-path="url(#terminal-line-19)">
</text><text class="terminal-r5" x="500.2" y="508" textLength="12.2" clip-path="url(#terminal-line-20)">│</text><text class="terminal-r12" x="512.4" y="508" textLength="12.2" clip-path="url(#terminal-line-20)">│</text><text class="terminal-r24" x="756.4" y="508" textLength="109.8" clip-path="url(#terminal-line-20)">&#160;Summary&#160;</text><text class="terminal-r25" x="915" y="508" textLength="61" clip-path="url(#terminal-line-20)">&#160;Raw&#160;</text><text class="terminal-r11" x="1024.8" y="508" textLength="195.2" clip-path="url(#terminal-line-20)">Summary&#160;&#160;4&#160;lines</text><text class="terminal-r1" x="1220" y="508" textLength="12.2" clip-path="url(#terminal-line-20)">
</text><text class="terminal-r5" x="500.2" y="532.4" textLength="12.2" clip-path="url(#terminal-line-21)">│</text><text class="terminal-r12" x="512.4" y="532.4" textLength="12.2" clip-path="url(#terminal-line-21)">│</text><text class="terminal-r5" x="524.6" y="532.4" textLength="695.4" clip-path="url(#terminal-line-21)">─────────────────────────────────────────────────────────</text><text class="terminal-r1" x="1220" y="532.4" textLength="12.2" clip-path="url(#terminal-line-21)">
</text><text class="terminal-r5" x="500.2" y="556.8" textLength="12.2" clip-path="url(#terminal-line-22)">│</text><text class="terminal-r12" x="512.4" y="556.8" textLength="12.2" clip-path="url(#terminal-line-22)">│</text><text class="terminal-r1" x="1220" y="556.8" textLength="12.2" clip-path="url(#terminal-line-22)">
</text><text class="terminal-r5" x="500.2" y="581.2" textLength="12.2" clip-path="url(#terminal-line-23)">│</text><text class="terminal-r12" x="512.4" y="581.2" textLength="12.2" clip-path="url(#terminal-line-23)">│</text><text class="terminal-r9" x="536.8" y="581.2" textLength="268.4" clip-path="url(#terminal-line-23)">Last&#160;meaningful&#160;output</text><text class="terminal-r1" x="1220" y="581.2" textLength="12.2" clip-path="url(#terminal-line-23)">
</text><text class="terminal-r5" x="500.2" y="605.6" textLength="12.2" clip-path="url(#terminal-line-24)">│</text><text class="terminal-r12" x="512.4" y="605.6" textLength="12.2" clip-path="url(#terminal-line-24)">│</text><text class="terminal-r16" x="536.8" y="605.6" textLength="280.6" clip-path="url(#terminal-line-24)">Loading&#160;project&#160;context</text><text class="terminal-r27" x="1195.6" y="605.6" textLength="24.4" clip-path="url(#terminal-line-24)">▁▁</text><text class="terminal-r1" x="1220" y="605.6" textLength="12.2" clip-path="url(#terminal-line-24)">
</text><text class="terminal-r5" x="500.2" y="630" textLength="12.2" clip-path="url(#terminal-line-25)">│</text><text class="terminal-r13" x="536.8" y="630" textLength="85.4" clip-path="url(#terminal-line-25)">ACTIONS</text><text class="terminal-r1" x="1220" y="630" textLength="12.2" clip-path="url(#terminal-line-25)">
</text><text class="terminal-r5" x="500.2" y="654.4" textLength="12.2" clip-path="url(#terminal-line-26)">│</text><text class="terminal-r7" x="536.8" y="654.4" textLength="122" clip-path="url(#terminal-line-26)">&#160;↗&#160;Attach&#160;</text><text class="terminal-r28" x="671" y="654.4" textLength="12.2" clip-path="url(#terminal-line-26)">▊</text><text class="terminal-r29" x="683.2" y="654.4" textLength="122" clip-path="url(#terminal-line-26)">▔▔▔▔▔▔▔▔▔▔</text><text class="terminal-r29" x="805.2" y="654.4" textLength="12.2" clip-path="url(#terminal-line-26)">▎</text><text class="terminal-r7" x="841.8" y="654.4" textLength="73.2" clip-path="url(#terminal-line-26)">&#160;Logs&#160;</text><text class="terminal-r7" x="976" y="654.4" textLength="61" clip-path="url(#terminal-line-26)">&#160;Pin&#160;</text><text class="terminal-r7" x="1073.6" y="654.4" textLength="97.6" clip-path="url(#terminal-line-26)">&#160;Manage&#160;</text><text class="terminal-r1" x="1220" y="654.4" textLength="12.2" clip-path="url(#terminal-line-26)">
</text><text class="terminal-r5" x="500.2" y="678.8" textLength="12.2" clip-path="url(#terminal-line-27)">│</text><text class="terminal-r1" x="1220" y="678.8" textLength="12.2" clip-path="url(#terminal-line-27)">
</text><text class="terminal-r5" x="0" y="703.2" textLength="1220" clip-path="url(#terminal-line-28)">────────────────────────────────────────────────────────────────────────────────────────────────────</text><text class="terminal-r1" x="1220" y="703.2" textLength="12.2" clip-path="url(#terminal-line-28)">
</text><text class="terminal-r16" x="24.4" y="727.6" textLength="1037" clip-path="url(#terminal-line-29)">ATTENTION&#160;&#160;↑↓/jk&#160;Nav&#160;&#160;&#160;Enter&#160;Open&#160;&#160;&#160;Esc&#160;Back&#160;&#160;&#160;f&#160;Filter&#160;&#160;&#160;r&#160;Refresh&#160;&#160;&#160;?&#160;Help&#160;&#160;&#160;q&#160;Quit</text>
    </g>
    </g>
</svg>
