<svg class="rich-terminal" viewBox="0 0 1226 782.0" xmlns="http://www.w3.org/2000/svg">
    <!-- Generated with Rich https://www.textualize.io -->
    <style>

    @font-face {
        font-family: "Fira Code";
        src: local("FiraCode-Regular"),
                url("https://cdnjs.cloudflare.com/ajax/libs/firacode/6.2.0/woff2/FiraCode-Regular.woff2") format("woff2"),
                url("https://cdnjs.cloudflare.com/ajax/libs/firacode/6.2.0/woff/FiraCode-Regular.woff") format("woff");
        font-style: normal;
        font-weight: 400;
    }
    @font-face {
        font-family: "Fira Code";
        src: local("FiraCode-Bold"),
                url("https://cdnjs.cloudflare.com/ajax/libs/firacode/6.2.0/woff2/FiraCode-Bold.woff2") format("woff2"),
                url("https://cdnjs.cloudflare.com/ajax/libs/firacode/6.2.0/woff/FiraCode-Bold.woff") format("woff");
        font-style: bold;
        font-weight: 700;
    }

    .terminal-matrix {
        font-family: Fira Code, monospace;
        font-size: 20px;
        line-height: 24.4px;
        font-variant-east-asian: full-width;
    }

    .terminal-title {
        font-size: 18px;
        font-weight: bold;
        font-family: arial;
    }

    .terminal-r1 { fill: #c5c8c6 }
.terminal-r2 { fill: #72c78e;font-weight: bold }
.terminal-r3 { fill: #a1a6a9 }
.terminal-r4 { fill: #c792ea;font-weight: bold }
.terminal-r5 { fill: #e8edf0;font-weight: bold }
.terminal-r6 { fill: #303941 }
.terminal-r7 { fill: #9aa6ad }
.terminal-r8 { fill: #3f6e9d }
.terminal-r9 { fill: #34424b }
.terminal-r10 { fill: #91a1aa;font-weight: bold }
.terminal-r11 { fill: #101316 }
.terminal-r12 { fill: #989ea2 }
.terminal-r13 { fill: #dce3e7 }
.terminal-r14 { fill: #477c59 }
.terminal-r15 { fill: #dce3e7;font-weight: bold }
.terminal-r16 { fill: #e8edf0 }
.terminal-r17 { fill: #eef3f6;font-weight: bold }
.terminal-r18 { fill: #82919a;font-weight: bold }
.terminal-r19 { fill: #273139 }
.terminal-r20 { fill: #c4cdd2 }
    </style>

    <defs>
    <clipPath id="terminal-clip-terminal">
      <rect x="0" y="0" width="1206.8" height="731.0" />
    </clipPath>
    <clipPath id="terminal-line-0">
    <rect x="0" y="1.5" width="1207.8" height="24.65"/>
            </clipPath>
<clipPath id="terminal-line-1">
    <rect x="0" y="25.9" width="1207.8" height="24.65"/>
            </clipPath>
<clipPath id="terminal-line-2">
    <rect x="0" y="50.3" width="1207.8" height="24.65"/>
            </clipPath>
<clipPath id="terminal-line-3">
    <rect x="0" y="74.7" width="1207.8" height="24.65"/>
            </clipPath>
<clipPath id="terminal-line-4">
    <rect x="0" y="99.1" width="1207.8" height="24.65"/>
            </clipPath>
<clipPath id="terminal-line-5">
    <rect x="0" y="123.5" width="1207.8" height="24.65"/>
            </clipPath>
<clipPath id="terminal-line-6">
    <rect x="0" y="147.9" width="1207.8" height="24.65"/>
            </clipPath>
<clipPath id="terminal-line-7">
    <rect x="0" y="172.3" width="1207.8" height="24.65"/>
            </clipPath>
<clipPath id="terminal-line-8">
    <rect x="0" y="196.7" width="1207.8" height="24.65"/>
            </clipPath>
<clipPath id="terminal-line-9">
    <rect x="0" y="221.1" width="1207.8" height="24.65"/>
            </clipPath>
<clipPath id="terminal-line-10">
    <rect x="0" y="245.5" width="1207.8" height="24.65"/>
            </clipPath>
<clipPath id="terminal-line-11">
    <rect x="0" y="269.9" width="1207.8" height="24.65"/>
            </clipPath>
<clipPath id="terminal-line-12">
    <rect x="0" y="294.3" width="1207.8" height="24.65"/>
            </clipPath>
<clipPath id="terminal-line-13">
    <rect x="0" y="318.7" width="1207.8" height="24.65"/>
            </clipPath>
<clipPath id="terminal-line-14">
    <rect x="0" y="343.1" width="1207.8" height="24.65"/>
            </clipPath>
<clipPath id="terminal-line-15">
    <rect x="0" y="367.5" width="1207.8" height="24.65"/>
            </clipPath>
<clipPath id="terminal-line-16">
    <rect x="0" y="391.9" width="1207.8" height="24.65"/>
            </clipPath>
<clipPath id="terminal-line-17">
    <rect x="0" y="416.3" width="1207.8" height="24.65"/>
            </clipPath>
<clipPath id="terminal-line-18">
    <rect x="0" y="440.7" width="1207.8" height="24.65"/>
            </clipPath>
<clipPath id="terminal-line-19">
    <rect x="0" y="465.1" width="1207.8" height="24.65"/>
            </clipPath>
<clipPath id="terminal-line-20">
    <rect x="0" y="489.5" width="1207.8" height="24.65"/>
            </clipPath>
<clipPath id="terminal-line-21">
    <rect x="0" y="513.9" width="1207.8" height="24.65"/>
            </clipPath>
<clipPath id="terminal-line-22">
    <rect x="0" y="538.3" width="1207.8" height="24.65"/>
            </clipPath>
<clipPath id="terminal-line-23">
    <rect x="0" y="562.7" width="1207.8" height="24.65"/>
            </clipPath>
<clipPath id="terminal-line-24">
    <rect x="0" y="587.1" width="1207.8" height="24.65"/>
            </clipPath>
<clipPath id="terminal-line-25">
    <rect x="0" y="611.5" width="1207.8" height="24.65"/>
            </clipPath>
<clipPath id="terminal-line-26">
    <rect x="0" y="635.9" width="1207.8" height="24.65"/>
            </clipPath>
<clipPath id="terminal-line-27">
    <rect x="0" y="660.3" width="1207.8" height="24.65"/>
            </clipPath>
<clipPath id="terminal-line-28">
    <rect x="0" y="684.7" width="1207.8" height="24.65"/>
            </clipPath>
    </defs>

    <rect fill="#292929" stroke="rgba(255,255,255,0.35)" stroke-width="1" x="1" y="1" width="1224" height="780" rx="8"/><text class="terminal-title" fill="#c5c8c6" text-anchor="middle" x="612" y="27">WF&#160;-&#160;Workflow&#160;Session&#160;Manager</text>
            <g transform="translate(26,22)">
            <circle cx="0" cy="0" r="7" fill="#ff5f57"/>
            <circle cx="22" cy="0" r="7" fill="#febc2e"/>
            <circle cx="44" cy="0" r="7" fill="#28c840"/>
            </g>
        
    <g transform="translate(9, 41)" clip-path="url(#terminal-clip-terminal)">
    <rect fill="#181d21" x="0" y="1.5" width="12.2" height="24.65" shape-rendering="crispEdges"/><rect fill="#181d21" x="12.2" y="1.5" width="24.4" height="24.65" shape-rendering="crispEdges"/><rect fill="#181d21" x="36.6" y="1.5" width="134.2" height="24.65" shape-rendering="crispEdges"/><rect fill="#181d21" x="170.8" y="1.5" width="73.2" height="24.65" shape-rendering="crispEdges"/><rect fill="#181d21" x="244" y="1.5" width="866.2" height="24.65" shape-rendering="crispEdges"/><rect fill="#181d21" x="1110.2" y="1.5" width="97.6" height="24.65" shape-rendering="crispEdges"/><rect fill="#181d21" x="0" y="25.9" width="1207.8" height="24.65" shape-rendering="crispEdges"/><rect fill="#161b1f" x="0" y="50.3" width="24.4" height="24.65" shape-rendering="crispEdges"/><rect fill="#161b1f" x="24.4" y="50.3" width="85.4" height="24.65" shape-rendering="crispEdges"/><rect fill="#161b1f" x="109.8" y="50.3" width="841.8" height="24.65" shape-rendering="crispEdges"/><rect fill="#161b1f" x="951.6" y="50.3" width="256.2" height="24.65" shape-rendering="crispEdges"/><rect fill="#161b1f" x="0" y="74.7" width="24.4" height="24.65" shape-rendering="crispEdges"/><rect fill="#161b1f" x="24.4" y="74.7" width="536.8" height="24.65" shape-rendering="crispEdges"/><rect fill="#161b1f" x="561.2" y="74.7" width="646.6" height="24.65" shape-rendering="crispEdges"/><rect fill="#161b1f" x="0" y="99.1" width="1207.8" height="24.65" shape-rendering="crispEdges"/><rect fill="#101316" x="0" y="123.5" width="12.2" height="24.65" shape-rendering="crispEdges"/><rect fill="#101316" x="12.2" y="123.5" width="12.2" height="24.65" shape-rendering="crispEdges"/><rect fill="#151a1e" x="24.4" y="123.5" width="12.2" height="24.65" shape-rendering="crispEdges"/><rect fill="#151a1e" x="36.6" y="123.5" width="97.6" height="24.65" shape-rendering="crispEdges"/><rect fill="#151a1e" x="134.2" y="123.5" width="1037" height="24.65" shape-rendering="crispEdges"/><rect fill="#47545c" x="1171.2" y="123.5" width="24.4" height="24.65" shape-rendering="crispEdges"/><rect fill="#101316" x="1195.6" y="123.5" width="12.2" height="24.65" shape-rendering="crispEdges"/><rect fill="#101316" x="0" y="147.9" width="12.2" height="24.65" shape-rendering="crispEdges"/><rect fill="#101316" x="12.2" y="147.9" width="12.2" height="24.65" shape-rendering="crispEdges"/><rect fill="#151a1e" x="24.4" y="147.9" width="12.2" height="24.65" shape-rendering="crispEdges"/><rect fill="#151a1e" x="36.6" y="147.9" width="170.8" height="24.65" shape-rendering="crispEdges"/><rect fill="#151a1e" x="207.4" y="147.9" width="756.4" height="24.65" shape-rendering="crispEdges"/><rect fill="#151a1e" x="963.8" y="147.9" width="207.4" height="24.65" shape-rendering="crispEdges"/><rect fill="#47545c" x="1171.2" y="147.9" width="24.4" height="24.65" shape-rendering="crispEdges"/><rect fill="#101316" x="1195.6" y="147.9" width="12.2" height="24.65" shape-rendering="crispEdges"/><rect fill="#101316" x="0" y="172.3" width="12.2" height="24.65" shape-rendering="crispEdges"/><rect fill="#101316" x="12.2" y="172.3" width="12.2" height="24.65" shape-rendering="crispEdges"/><rect fill="#151a1e" x="24.4" y="172.3" width="12.2" height="24.65" shape-rendering="crispEdges"/><rect fill="#151a1e" x="36.6" y="172.3" width="170.8" height="24.65" shape-rendering="crispEdges"/><rect fill="#151a1e" x="207.4" y="172.3" width="951.6" height="24.65" shape-rendering="crispEdges"/><rect fill="#151a1e" x="1159" y="172.3" width="12.2" height="24.65" shape-rendering="crispEdges"/><rect fill="#47545c" x="1171.2" y="172.3" width="24.4" height="24.65" shape-rendering="crispEdges"/><rect fill="#101316" x="1195.6" y="172.3" width="12.2" height="24.65" shape-rendering="crispEdges"/><rect fill="#101316" x="0" y="196.7" width="12.2" height="24.65" shape-rendering="crispEdges"/><rect fill="#101316" x="12.2" y="196.7" width="12.2" height="24.65" shape-rendering="crispEdges"/><rect fill="#151a1e" x="24.4" y="196.7" width="12.2" height="24.65" shape-rendering="crispEdges"/><rect fill="#151a1e" x="36.6" y="196.7" width="549" height="24.65" shape-rendering="crispEdges"/><rect fill="#151a1e" x="585.6" y="196.7" width="585.6" height="24.65" shape-rendering="crispEdges"/><rect fill="#47545c" x="1171.2" y="196.7" width="24.4" height="24.65" shape-rendering="crispEdges"/><rect fill="#101316" x="1195.6" y="196.7" width="12.2" height="24.65" shape-rendering="crispEdges"/><rect fill="#101316" x="0" y="221.1" width="12.2" height="24.65" shape-rendering="crispEdges"/><rect fill="#101316" x="12.2" y="221.1" width="12.2" height="24.65" shape-rendering="crispEdges"/><rect fill="#151a1e" x="24.4" y="221.1" width="12.2" height="24.65" shape-rendering="crispEdges"/><rect fill="#151a1e" x="36.6" y="221.1" width="170.8" height="24.65" shape-rendering="crispEdges"/><rect fill="#151a1e" x="207.4" y="221.1" width="536.8" height="24.65" shape-rendering="crispEdges"/><rect fill="#151a1e" x="744.2" y="221.1" width="427" height="24.65" shape-rendering="crispEdges"/><rect fill="#47545c" x="1171.2" y="221.1" width="24.4" height="24.65" shape-rendering="crispEdges"/><rect fill="#101316" x="1195.6" y="221.1" width="12.2" height="24.65" shape-rendering="crispEdges"/><rect fill="#101316" x="0" y="245.5" width="12.2" height="24.65" shape-rendering="crispEdges"/><rect fill="#101316" x="12.2" y="245.5" width="12.2" height="24.65" shape-rendering="crispEdges"/><rect fill="#151a1e" x="24.4" y="245.5" width="12.2" height="24.65" shape-rendering="crispEdges"/><rect fill="#151a1e" x="36.6" y="245.5" width="170.8" height="24.65" shape-rendering="crispEdges"/><rect fill="#151a1e" x="207.4" y="245.5" width="48.8" height="24.65" shape-rendering="crispEdges"/><rect fill="#151a1e" x="256.2" y="245.5" width="915" height="24.65" shape-rendering="crispEdges"/><rect fill="#47545c" x="1171.2" y="245.5" width="24.4" height="24.65" shape-rendering="crispEdges"/><rect fill="#101316" x="1195.6" y="245.5" width="12.2" height="24.65" shape-rendering="crispEdges"/><rect fill="#101316" x="0" y="269.9" width="12.2" height="24.65" shape-rendering="crispEdges"/><rect fill="#101316" x="12.2" y="269.9" width="12.2" height="24.65" shape-rendering="crispEdges"/><rect fill="#151a1e" x="24.4" y="269.9" width="12.2" height="24.65" shape-rendering="crispEdges"/><rect fill="#151a1e" x="36.6" y="269.9" width="170.8" height="24.65" shape-rendering="crispEdges"/><rect fill="#151a1e" x="207.4" y="269.9" width="158.6" height="24.65" shape-rendering="crispEdges"/><rect fill="#151a1e" x="366" y="269.9" width="805.2" height="24.65" shape-rendering="crispEdges"/><rect fill="#47545c" x="1171.2" y="269.9" width="24.4" height="24.65" shape-rendering="crispEdges"/><rect fill="#101316" x="1195.6" y="269.9" width="12.2" height="24.65" shape-rendering="crispEdges"/><rect fill="#101316" x="0" y="294.3" width="12.2" height="24.65" shape-rendering="crispEdges"/><rect fill="#101316" x="12.2" y="294.3" width="12.2" height="24.65" shape-rendering="crispEdges"/><rect fill="#151a1e" x="24.4" y="294.3" width="12.2" height="24.65" shape-rendering="crispEdges"/><rect fill="#151a1e" x="36.6" y="294.3" width="0" height="24.65" shape-rendering="crispEdges"/><rect fill="#151a1e" x="36.6" y="294.3" width="1134.6" height="24.65" shape-rendering="crispEdges"/><rect fill="#47545c" x="1171.2" y="294.3" width="24.4" height="24.65" shape-rendering="crispEdges"/><rect fill="#101316" x="1195.6" y="294.3" width="12.2" height="24.65" shape-rendering="crispEdges"/><rect fill="#101316" x="0" y="318.7" width="12.2" height="24.65" shape-rendering="crispEdges"/><rect fill="#101316" x="12.2" y="318.7" width="12.2" height="24.65" shape-rendering="crispEdges"/><rect fill="#151a1e" x="24.4" y="318.7" width="12.2" height="24.65" shape-rendering="crispEdges"/><rect fill="#151a1e" x="36.6" y="318.7" width="73.2" height="24.65" shape-rendering="crispEdges"/><rect fill="#151a1e" x="109.8" y="318.7" width="1061.4" height="24.65" shape-rendering="crispEdges"/><rect fill="#47545c" x="1171.2" y="318.7" width="24.4" height="24.65" shape-rendering="crispEdges"/><rect fill="#101316" x="1195.6" y="318.7" width="12.2" height="24.65" shape-rendering="crispEdges"/><rect fill="#101316" x="0" y="343.1" width="12.2" height="24.65" shape-rendering="crispEdges"/><rect fill="#101316" x="12.2" y="343.1" width="12.2" height="24.65" shape-rendering="crispEdges"/><rect fill="#151a1e" x="24.4" y="343.1" width="12.2" height="24.65" shape-rendering="crispEdges"/><rect fill="#151a1e" x="36.6" y="343.1" width="170.8" height="24.65" shape-rendering="crispEdges"/><rect fill="#151a1e" x="207.4" y="343.1" width="97.6" height="24.65" shape-rendering="crispEdges"/><rect fill="#151a1e" x="305" y="343.1" width="866.2" height="24.65" shape-rendering="crispEdges"/><rect fill="#47545c" x="1171.2" y="343.1" width="24.4" height="24.65" shape-rendering="crispEdges"/><rect fill="#101316" x="1195.6" y="343.1" width="12.2" height="24.65" shape-rendering="crispEdges"/><rect fill="#101316" x="0" y="367.5" width="12.2" height="24.65" shape-rendering="crispEdges"/><rect fill="#101316" x="12.2" y="367.5" width="12.2" height="24.65" shape-rendering="crispEdges"/><rect fill="#151a1e" x="24.4" y="367.5" width="12.2" height="24.65" shape-rendering="crispEdges"/><rect fill="#151a1e" x="36.6" y="367.5" width="170.8" height="24.65" shape-rendering="crispEdges"/><rect fill="#151a1e" x="207.4" y="367.5" width="134.2" height="24.65" shape-rendering="crispEdges"/><rect fill="#151a1e" x="341.6" y="367.5" width="829.6" height="24.65" shape-rendering="crispEdges"/><rect fill="#47545c" x="1171.2" y="367.5" width="24.4" height="24.65" shape-rendering="crispEdges"/><rect fill="#101316" x="1195.6" y="367.5" width="12.2" height="24.65" shape-rendering="crispEdges"/><rect fill="#101316" x="0" y="391.9" width="12.2" height="24.65" shape-rendering="crispEdges"/><rect fill="#101316" x="12.2" y="391.9" width="12.2" height="24.65" shape-rendering="crispEdges"/><rect fill="#151a1e" x="24.4" y="391.9" width="12.2" height="24.65" shape-rendering="crispEdges"/><rect fill="#151a1e" x="36.6" y="391.9" width="170.8" height="24.65" shape-rendering="crispEdges"/><rect fill="#151a1e" x="207.4" y="391.9" width="73.2" height="24.65" shape-rendering="crispEdges"/><rect fill="#151a1e" x="280.6" y="391.9" width="890.6" height="24.65" shape-rendering="crispEdges"/><rect fill="#47545c" x="1171.2" y="391.9" width="24.4" height="24.65" shape-rendering="crispEdges"/><rect fill="#101316" x="1195.6" y="391.9" width="12.2" height="24.65" shape-rendering="crispEdges"/><rect fill="#101316" x="0" y="416.3" width="12.2" height="24.65" shape-rendering="crispEdges"/><rect fill="#101316" x="12.2" y="416.3" width="12.2" height="24.65" shape-rendering="crispEdges"/><rect fill="#151a1e" x="24.4" y="416.3" width="12.2" height="24.65" shape-rendering="crispEdges"/><rect fill="#151a1e" x="36.6" y="416.3" width="170.8" height="24.65" shape-rendering="crispEdges"/><rect fill="#151a1e" x="207.4" y="416.3" width="146.4" height="24.65" shape-rendering="crispEdges"/><rect fill="#151a1e" x="353.8" y="416.3" width="817.4" height="24.65" shape-rendering="crispEdges"/><rect fill="#47545c" x="1171.2" y="416.3" width="24.4" height="24.65" shape-rendering="crispEdges"/><rect fill="#101316" x="1195.6" y="416.3" width="12.2" height="24.65" shape-rendering="crispEdges"/><rect fill="#101316" x="0" y="440.7" width="12.2" height="24.65" shape-rendering="crispEdges"/><rect fill="#101316" x="12.2" y="440.7" width="12.2" height="24.65" shape-rendering="crispEdges"/><rect fill="#151a1e" x="24.4" y="440.7" width="12.2" height="24.65" shape-rendering="crispEdges"/><rect fill="#151a1e" x="36.6" y="440.7" width="170.8" height="24.65" shape-rendering="crispEdges"/><rect fill="#151a1e" x="207.4" y="440.7" width="12.2" height="24.65" shape-rendering="crispEdges"/><rect fill="#151a1e" x="219.6" y="440.7" width="951.6" height="24.65" shape-rendering="crispEdges"/><rect fill="#47545c" x="1171.2" y="440.7" width="24.4" height="24.65" shape-rendering="crispEdges"/><rect fill="#101316" x="1195.6" y="440.7" width="12.2" height="24.65" shape-rendering="crispEdges"/><rect fill="#101316" x="0" y="465.1" width="12.2" height="24.65" shape-rendering="crispEdges"/><rect fill="#101316" x="12.2" y="465.1" width="12.2" height="24.65" shape-rendering="crispEdges"/><rect fill="#151a1e" x="24.4" y="465.1" width="12.2" height="24.65" shape-rendering="crispEdges"/><rect fill="#151a1e" x="36.6" y="465.1" width="170.8" height="24.65" shape-rendering="crispEdges"/><rect fill="#151a1e" x="207.4" y="465.1" width="97.6" height="24.65" shape-rendering="crispEdges"/><rect fill="#151a1e" x="305" y="465.1" width="866.2" height="24.65" shape-rendering="crispEdges"/><rect fill="#47545c" x="1171.2" y="465.1" width="24.4" height="24.65" shape-rendering="crispEdges"/><rect fill="#101316" x="1195.6" y="465.1" width="12.2" height="24.65" shape-rendering="crispEdges"/><rect fill="#101316" x="0" y="489.5" width="12.2" height="24.65" shape-rendering="crispEdges"/><rect fill="#101316" x="12.2" y="489.5" width="12.2" height="24.65" shape-rendering="crispEdges"/><rect fill="#151a1e" x="24.4" y="489.5" width="12.2" height="24.65" shape-rendering="crispEdges"/><rect fill="#151a1e" x="36.6" y="489.5" width="170.8" height="24.65" shape-rendering="crispEdges"/><rect fill="#151a1e" x="207.4" y="489.5" width="36.6" height="24.65" shape-rendering="crispEdges"/><rect fill="#151a1e" x="244" y="489.5" width="927.2" height="24.65" shape-rendering="crispEdges"/><rect fill="#47545c" x="1171.2" y="489.5" width="24.4" height="24.65" shape-rendering="crispEdges"/><rect fill="#101316" x="1195.6" y="489.5" width="12.2" height="24.65" shape-rendering="crispEdges"/><rect fill="#101316" x="0" y="513.9" width="12.2" height="24.65" shape-rendering="crispEdges"/><rect fill="#101316" x="12.2" y="513.9" width="12.2" height="24.65" shape-rendering="crispEdges"/><rect fill="#151a1e" x="24.4" y="513.9" width="12.2" height="24.65" shape-rendering="crispEdges"/><rect fill="#151a1e" x="36.6" y="513.9" width="0" height="24.65" shape-rendering="crispEdges"/><rect fill="#151a1e" x="36.6" y="513.9" width="1134.6" height="24.65" shape-rendering="crispEdges"/><rect fill="#47545c" x="1171.2" y="513.9" width="24.4" height="24.65" shape-rendering="crispEdges"/><rect fill="#101316" x="1195.6" y="513.9" width="12.2" height="24.65" shape-rendering="crispEdges"/><rect fill="#101316" x="0" y="538.3" width="12.2" height="24.65" shape-rendering="crispEdges"/><rect fill="#101316" x="12.2" y="538.3" width="12.2" height="24.65" shape-rendering="crispEdges"/><rect fill="#151a1e" x="24.4" y="538.3" width="12.2" height="24.65" shape-rendering="crispEdges"/><rect fill="#151a1e" x="36.6" y="538.3" width="97.6" height="24.65" shape-rendering="crispEdges"/><rect fill="#151a1e" x="134.2" y="538.3" width="1037" height="24.65" shape-rendering="crispEdges"/><rect fill="#47545c" x="1171.2" y="538.3" width="24.4" height="24.65" shape-rendering="crispEdges"/><rect fill="#101316" x="1195.6" y="538.3" width="12.2" height="24.65" shape-rendering="crispEdges"/><rect fill="#101316" x="0" y="562.7" width="12.2" height="24.65" shape-rendering="crispEdges"/><rect fill="#101316" x="12.2" y="562.7" width="12.2" height="24.65" shape-rendering="crispEdges"/><rect fill="#151a1e" x="24.4" y="562.7" width="12.2" height="24.65" shape-rendering="crispEdges"/><rect fill="#151a1e" x="36.6" y="562.7" width="219.6" height="24.65" shape-rendering="crispEdges"/><rect fill="#151a1e" x="256.2" y="562.7" width="915" height="24.65" shape-rendering="crispEdges"/><rect fill="#47545c" x="1171.2" y="562.7" width="24.4" height="24.65" shape-rendering="crispEdges"/><rect fill="#101316" x="1195.6" y="562.7" width="12.2" height="24.65" shape-rendering="crispEdges"/><rect fill="#101316" x="0" y="587.1" width="12.2" height="24.65" shape-rendering="crispEdges"/><rect fill="#101316" x="12.2" y="587.1" width="12.2" height="24.65" shape-rendering="crispEdges"/><rect fill="#151a1e" x="24.4" y="587.1" width="12.2" height="24.65" shape-rendering="crispEdges"/><rect fill="#151a1e" x="36.6" y="587.1" width="414.8" height="24.65" shape-rendering="crispEdges"/><rect fill="#151a1e" x="451.4" y="587.1" width="719.8" height="24.65" shape-rendering="crispEdges"/><rect fill="#101316" x="1171.2" y="587.1" width="24.4" height="24.65" shape-rendering="crispEdges"/><rect fill="#101316" x="1195.6" y="587.1" width="12.2" height="24.65" shape-rendering="crispEdges"/><rect fill="#101316" x="0" y="611.5" width="12.2" height="24.65" shape-rendering="crispEdges"/><rect fill="#101316" x="12.2" y="611.5" width="12.2" height="24.65" shape-rendering="crispEdges"/><rect fill="#151a1e" x="24.4" y="611.5" width="12.2" height="24.65" shape-rendering="crispEdges"/><rect fill="#151a1e" x="36.6" y="611.5" width="158.6" height="24.65" shape-rendering="crispEdges"/><rect fill="#151a1e" x="195.2" y="611.5" width="976" height="24.65" shape-rendering="crispEdges"/><rect fill="#101316" x="1171.2" y="611.5" width="24.4" height="24.65" shape-rendering="crispEdges"/><rect fill="#101316" x="1195.6" y="611.5" width="12.2" height="24.65" shape-rendering="crispEdges"/><rect fill="#101316" x="0" y="635.9" width="12.2" height="24.65" shape-rendering="crispEdges"/><rect fill="#101316" x="12.2" y="635.9" width="12.2" height="24.65" shape-rendering="crispEdges"/><rect fill="#151a1e" x="24.4" y="635.9" width="12.2" height="24.65" shape-rendering="crispEdges"/><rect fill="#151a1e" x="36.6" y="635.9" width="866.2" height="24.65" shape-rendering="crispEdges"/><rect fill="#2c4c68" x="902.8" y="635.9" width="12.2" height="24.65" shape-rendering="crispEdges"/><rect fill="#2c4c68" x="915" y="635.9" width="109.8" height="24.65" shape-rendering="crispEdges"/><rect fill="#2c4c68" x="1024.8" y="635.9" width="12.2" height="24.65" shape-rendering="crispEdges"/><rect fill="#151a1e" x="1037" y="635.9" width="36.6" height="24.65" shape-rendering="crispEdges"/><rect fill="#151a1e" x="1073.6" y="635.9" width="61" height="24.65" shape-rendering="crispEdges"/><rect fill="#151a1e" x="1134.6" y="635.9" width="36.6" height="24.65" shape-rendering="crispEdges"/><rect fill="#101316" x="1171.2" y="635.9" width="24.4" height="24.65" shape-rendering="crispEdges"/><rect fill="#101316" x="1195.6" y="635.9" width="12.2" height="24.65" shape-rendering="crispEdges"/><rect fill="#101316" x="0" y="660.3" width="12.2" height="24.65" shape-rendering="crispEdges"/><rect fill="#101316" x="12.2" y="660.3" width="12.2" height="24.65" shape-rendering="crispEdges"/><rect fill="#151a1e" x="24.4" y="660.3" width="12.2" height="24.65" shape-rendering="crispEdges"/><rect fill="#0b0e10" x="36.6" y="660.3" width="1134.6" height="24.65" shape-rendering="crispEdges"/><rect fill="#101316" x="1171.2" y="660.3" width="24.4" height="24.65" shape-rendering="crispEdges"/><rect fill="#101316" x="1195.6" y="660.3" width="12.2" height="24.65" shape-rendering="crispEdges"/><rect fill="#181d21" x="0" y="684.7" width="1207.8" height="24.65" shape-rendering="crispEdges"/><rect fill="#181d21" x="0" y="709.1" width="12.2" height="24.65" shape-rendering="crispEdges"/><rect fill="#181d21" x="12.2" y="709.1" width="890.6" height="24.65" shape-rendering="crispEdges"/><rect fill="#181d21" x="902.8" y="709.1" width="292.8" height="24.65" shape-rendering="crispEdges"/><rect fill="#181d21" x="1195.6" y="709.1" width="12.2" height="24.65" shape-rendering="crispEdges"/>
    <g class="terminal-matrix">
    <text class="terminal-r2" x="12.2" y="20" textLength="24.4" clip-path="url(#terminal-line-0)">WF</text><text class="terminal-r3" x="36.6" y="20" textLength="134.2" clip-path="url(#terminal-line-0)">&#160;&#160;Session&#160;&#160;</text><text class="terminal-r4" x="170.8" y="20" textLength="73.2" clip-path="url(#terminal-line-0)">CLAUDE</text><text class="terminal-r5" x="244" y="20" textLength="866.2" clip-path="url(#terminal-line-0)">&#160;&#160;claude-api-authentication-and-authorization-refactor-with-a-long-name</text><text class="terminal-r1" x="1207.8" y="20" textLength="12.2" clip-path="url(#terminal-line-0)">
</text><text class="terminal-r6" x="0" y="44.4" textLength="1207.8" clip-path="url(#terminal-line-1)">───────────────────────────────────────────────────────────────────────────────────────────────────</text><text class="terminal-r1" x="1207.8" y="44.4" textLength="12.2" clip-path="url(#terminal-line-1)">
</text><text class="terminal-r4" x="24.4" y="68.8" textLength="85.4" clip-path="url(#terminal-line-2)">CLAUDE&#160;</text><text class="terminal-r5" x="109.8" y="68.8" textLength="841.8" clip-path="url(#terminal-line-2)">claude-api-authentication-and-authorization-refactor-with-a-long-name</text><text class="terminal-r1" x="1207.8" y="68.8" textLength="12.2" clip-path="url(#terminal-line-2)">
</text><text class="terminal-r7" x="24.4" y="93.2" textLength="536.8" clip-path="url(#terminal-line-3)">Detached&#160;·&#160;In&#160;progress&#160;·&#160;Last&#160;active&#160;&lt;1m&#160;ago</text><text class="terminal-r1" x="1207.8" y="93.2" textLength="12.2" clip-path="url(#terminal-line-3)">
</text><text class="terminal-r6" x="0" y="117.6" textLength="1207.8" clip-path="url(#terminal-line-4)">───────────────────────────────────────────────────────────────────────────────────────────────────</text><text class="terminal-r1" x="1207.8" y="117.6" textLength="12.2" clip-path="url(#terminal-line-4)">
</text><text class="terminal-r8" x="0" y="142" textLength="12.2" clip-path="url(#terminal-line-5)">│</text><text class="terminal-r9" x="24.4" y="142" textLength="12.2" clip-path="url(#terminal-line-5)">│</text><text class="terminal-r10" x="36.6" y="142" textLength="97.6" clip-path="url(#terminal-line-5)">OVERVIEW</text><text class="terminal-r1" x="1207.8" y="142" textLength="12.2" clip-path="url(#terminal-line-5)">
</text><text class="terminal-r8" x="0" y="166.4" textLength="12.2" clip-path="url(#terminal-line-6)">│</text><text class="terminal-r9" x="24.4" y="166.4" textLength="12.2" clip-path="url(#terminal-line-6)">│</text><text class="terminal-r12" x="36.6" y="166.4" textLength="170.8" clip-path="url(#terminal-line-6)">Name&#160;&#160;&#160;&#160;&#160;&#160;&#160;&#160;&#160;&#160;</text><text class="terminal-r13" x="207.4" y="166.4" textLength="756.4" clip-path="url(#terminal-line-6)">api-authentication-and-authorization-refactor-with-a-long-name</text><text class="terminal-r1" x="1207.8" y="166.4" textLength="12.2" clip-path="url(#terminal-line-6)">
</text><text class="terminal-r8" x="0" y="190.8" textLength="12.2" clip-path="url(#terminal-line-7)">│</text><text class="terminal-r9" x="24.4" y="190.8" textLength="12.2" clip-path="url(#terminal-line-7)">│</text><text class="terminal-r12" x="36.6" y="190.8" textLength="170.8" clip-path="url(#terminal-line-7)">Task&#160;&#160;&#160;&#160;&#160;&#160;&#160;&#160;&#160;&#160;</text><text class="terminal-r13" x="207.4" y="190.8" textLength="951.6" clip-path="url(#terminal-line-7)">Refactor&#160;API&#160;authentication,&#160;authorization,&#160;token&#160;rotation,&#160;audit&#160;logging,&#160;and</text><text class="terminal-r1" x="1207.8" y="190.8" textLength="12.2" clip-path="url(#terminal-line-7)">
</text><text class="terminal-r8" x="0" y="215.2" textLength="12.2" clip-path="url(#terminal-line-8)">│</text><text class="terminal-r9" x="24.4" y="215.2" textLength="12.2" clip-path="url(#terminal-line-8)">│</text><text class="terminal-r13" x="36.6" y="215.2" textLength="549" clip-path="url(#terminal-line-8)">failure&#160;recovery&#160;across&#160;all&#160;public&#160;endpoints.</text><text class="terminal-r1" x="1207.8" y="215.2" textLength="12.2" clip-path="url(#terminal-line-8)">
</text><text class="terminal-r8" x="0" y="239.6" textLength="12.2" clip-path="url(#terminal-line-9)">│</text><text class="terminal-r9" x="24.4" y="239.6" textLength="12.2" clip-path="url(#terminal-line-9)">│</text><text class="terminal-r12" x="36.6" y="239.6" textLength="170.8" clip-path="url(#terminal-line-9)">Project&#160;&#160;&#160;&#160;&#160;&#160;&#160;</text><text class="terminal-r13" x="207.4" y="239.6" textLength="536.8" clip-path="url(#terminal-line-9)">enterprise-api-platform-with-shared-services</text><text class="terminal-r1" x="1207.8" y="239.6" textLength="12.2" clip-path="url(#terminal-line-9)">
</text><text class="terminal-r8" x="0" y="264" textLength="12.2" clip-path="url(#terminal-line-10)">│</text><text class="terminal-r9" x="24.4" y="264" textLength="12.2" clip-path="url(#terminal-line-10)">│</text><text class="terminal-r12" x="36.6" y="264" textLength="170.8" clip-path="url(#terminal-line-10)">Directory&#160;&#160;&#160;&#160;&#160;</text><text class="terminal-r13" x="207.4" y="264" textLength="48.8" clip-path="url(#terminal-line-10)">/tmp</text><text class="terminal-r1" x="1207.8" y="264" textLength="12.2" clip-path="url(#terminal-line-10)">
</text><text class="terminal-r8" x="0" y="288.4" textLength="12.2" clip-path="url(#terminal-line-11)">│</text><text class="terminal-r9" x="24.4" y="288.4" textLength="12.2" clip-path="url(#terminal-line-11)">│</text><text class="terminal-r12" x="36.6" y="288.4" textLength="170.8" clip-path="url(#terminal-line-11)">Ownership&#160;&#160;&#160;&#160;&#160;</text><text class="terminal-r13" x="207.4" y="288.4" textLength="158.6" clip-path="url(#terminal-line-11)">Managed&#160;by&#160;WF</text><text class="terminal-r1" x="1207.8" y="288.4" textLength="12.2" clip-path="url(#terminal-line-11)">
</text><text class="terminal-r8" x="0" y="312.8" textLength="12.2" clip-path="url(#terminal-line-12)">│</text><text class="terminal-r9" x="24.4" y="312.8" textLength="12.2" clip-path="url(#terminal-line-12)">│</text><text class="terminal-r1" x="1207.8" y="312.8" textLength="12.2" clip-path="url(#terminal-line-12)">
</text><text class="terminal-r8" x="0" y="337.2" textLength="12.2" clip-path="url(#terminal-line-13)">│</text><text class="terminal-r9" x="24.4" y="337.2" textLength="12.2" clip-path="url(#terminal-line-13)">│</text><text class="terminal-r10" x="36.6" y="337.2" textLength="73.2" clip-path="url(#terminal-line-13)">STATUS</text><text class="terminal-r1" x="1207.8" y="337.2" textLength="12.2" clip-path="url(#terminal-line-13)">
</text><text class="terminal-r8" x="0" y="361.6" textLength="12.2" clip-path="url(#terminal-line-14)">│</text><text class="terminal-r9" x="24.4" y="361.6" textLength="12.2" clip-path="url(#terminal-line-14)">│</text><text class="terminal-r12" x="36.6" y="361.6" textLength="170.8" clip-path="url(#terminal-line-14)">Runtime&#160;&#160;&#160;&#160;&#160;&#160;&#160;</text><text class="terminal-r13" x="207.4" y="361.6" textLength="97.6" clip-path="url(#terminal-line-14)">Detached</text><text class="terminal-r1" x="1207.8" y="361.6" textLength="12.2" clip-path="url(#terminal-line-14)">
</text><text class="terminal-r8" x="0" y="386" textLength="12.2" clip-path="url(#terminal-line-15)">│</text><text class="terminal-r9" x="24.4" y="386" textLength="12.2" clip-path="url(#terminal-line-15)">│</text><text class="terminal-r12" x="36.6" y="386" textLength="170.8" clip-path="url(#terminal-line-15)">Task&#160;&#160;&#160;&#160;&#160;&#160;&#160;&#160;&#160;&#160;</text><text class="terminal-r13" x="207.4" y="386" textLength="134.2" clip-path="url(#terminal-line-15)">In&#160;progress</text><text class="terminal-r1" x="1207.8" y="386" textLength="12.2" clip-path="url(#terminal-line-15)">
</text><text class="terminal-r8" x="0" y="410.4" textLength="12.2" clip-path="url(#terminal-line-16)">│</text><text class="terminal-r9" x="24.4" y="410.4" textLength="12.2" clip-path="url(#terminal-line-16)">│</text><text class="terminal-r12" x="36.6" y="410.4" textLength="170.8" clip-path="url(#terminal-line-16)">Agent&#160;&#160;&#160;&#160;&#160;&#160;&#160;&#160;&#160;</text><text class="terminal-r13" x="207.4" y="410.4" textLength="73.2" clip-path="url(#terminal-line-16)">Active</text><text class="terminal-r1" x="1207.8" y="410.4" textLength="12.2" clip-path="url(#terminal-line-16)">
</text><text class="terminal-r8" x="0" y="434.8" textLength="12.2" clip-path="url(#terminal-line-17)">│</text><text class="terminal-r9" x="24.4" y="434.8" textLength="12.2" clip-path="url(#terminal-line-17)">│</text><text class="terminal-r12" x="36.6" y="434.8" textLength="170.8" clip-path="url(#terminal-line-17)">Input&#160;&#160;&#160;&#160;&#160;&#160;&#160;&#160;&#160;</text><text class="terminal-r13" x="207.4" y="434.8" textLength="146.4" clip-path="url(#terminal-line-17)">Not&#160;required</text><text class="terminal-r1" x="1207.8" y="434.8" textLength="12.2" clip-path="url(#terminal-line-17)">
</text><text class="terminal-r8" x="0" y="459.2" textLength="12.2" clip-path="url(#terminal-line-18)">│</text><text class="terminal-r9" x="24.4" y="459.2" textLength="12.2" clip-path="url(#terminal-line-18)">│</text><text class="terminal-r12" x="36.6" y="459.2" textLength="170.8" clip-path="url(#terminal-line-18)">Windows&#160;&#160;&#160;&#160;&#160;&#160;&#160;</text><text class="terminal-r13" x="207.4" y="459.2" textLength="12.2" clip-path="url(#terminal-line-18)">1</text><text class="terminal-r1" x="1207.8" y="459.2" textLength="12.2" clip-path="url(#terminal-line-18)">
</text><text class="terminal-r8" x="0" y="483.6" textLength="12.2" clip-path="url(#terminal-line-19)">│</text><text class="terminal-r9" x="24.4" y="483.6" textLength="12.2" clip-path="url(#terminal-line-19)">│</text><text class="terminal-r12" x="36.6" y="483.6" textLength="170.8" clip-path="url(#terminal-line-19)">Logging&#160;&#160;&#160;&#160;&#160;&#160;&#160;</text><text class="terminal-r13" x="207.4" y="483.6" textLength="97.6" clip-path="url(#terminal-line-19)">Disabled</text><text class="terminal-r1" x="1207.8" y="483.6" textLength="12.2" clip-path="url(#terminal-line-19)">
</text><text class="terminal-r8" x="0" y="508" textLength="12.2" clip-path="url(#terminal-line-20)">│</text><text class="terminal-r9" x="24.4" y="508" textLength="12.2" clip-path="url(#terminal-line-20)">│</text><text class="terminal-r12" x="36.6" y="508" textLength="170.8" clip-path="url(#terminal-line-20)">Last&#160;active&#160;&#160;&#160;</text><text class="terminal-r13" x="207.4" y="508" textLength="36.6" clip-path="url(#terminal-line-20)">&lt;1m</text><text class="terminal-r1" x="1207.8" y="508" textLength="12.2" clip-path="url(#terminal-line-20)">
</text><text class="terminal-r8" x="0" y="532.4" textLength="12.2" clip-path="url(#terminal-line-21)">│</text><text class="terminal-r9" x="24.4" y="532.4" textLength="12.2" clip-path="url(#terminal-line-21)">│</text><text class="terminal-r1" x="1207.8" y="532.4" textLength="12.2" clip-path="url(#terminal-line-21)">
</text><text class="terminal-r8" x="0" y="556.8" textLength="12.2" clip-path="url(#terminal-line-22)">│</text><text class="terminal-r14" x="24.4" y="556.8" textLength="12.2" clip-path="url(#terminal-line-22)">│</text><text class="terminal-r10" x="36.6" y="556.8" textLength="97.6" clip-path="url(#terminal-line-22)">ACTIVITY</text><text class="terminal-r1" x="1207.8" y="556.8" textLength="12.2" clip-path="url(#terminal-line-22)">
</text><text class="terminal-r8" x="0" y="581.2" textLength="12.2" clip-path="url(#terminal-line-23)">│</text><text class="terminal-r14" x="24.4" y="581.2" textLength="12.2" clip-path="url(#terminal-line-23)">│</text><text class="terminal-r15" x="36.6" y="581.2" textLength="219.6" clip-path="url(#terminal-line-23)">No&#160;action&#160;required</text><text class="terminal-r1" x="1207.8" y="581.2" textLength="12.2" clip-path="url(#terminal-line-23)">
</text><text class="terminal-r8" x="0" y="605.6" textLength="12.2" clip-path="url(#terminal-line-24)">│</text><text class="terminal-r14" x="24.4" y="605.6" textLength="12.2" clip-path="url(#terminal-line-24)">│</text><text class="terminal-r15" x="36.6" y="605.6" textLength="414.8" clip-path="url(#terminal-line-24)">The&#160;session&#160;can&#160;continue&#160;normally.</text><text class="terminal-r1" x="1207.8" y="605.6" textLength="12.2" clip-path="url(#terminal-line-24)">
</text><text class="terminal-r8" x="0" y="630" textLength="12.2" clip-path="url(#terminal-line-25)">│</text><text class="terminal-r9" x="24.4" y="630" textLength="12.2" clip-path="url(#terminal-line-25)">│</text><text class="terminal-r10" x="36.6" y="630" textLength="158.6" clip-path="url(#terminal-line-25)">RECENT&#160;OUTPUT</text><text class="terminal-r1" x="1207.8" y="630" textLength="12.2" clip-path="url(#terminal-line-25)">
</text><text class="terminal-r8" x="0" y="654.4" textLength="12.2" clip-path="url(#terminal-line-26)">│</text><text class="terminal-r9" x="24.4" y="654.4" textLength="12.2" clip-path="url(#terminal-line-26)">│</text><text class="terminal-r17" x="915" y="654.4" textLength="109.8" clip-path="url(#terminal-line-26)">&#160;Summary&#160;</text><text class="terminal-r18" x="1073.6" y="654.4" textLength="61" clip-path="url(#terminal-line-26)">&#160;Raw&#160;</text><text class="terminal-r1" x="1207.8" y="654.4" textLength="12.2" clip-path="url(#terminal-line-26)">
</text><text class="terminal-r8" x="0" y="678.8" textLength="12.2" clip-path="url(#terminal-line-27)">│</text><text class="terminal-r9" x="24.4" y="678.8" textLength="12.2" clip-path="url(#terminal-line-27)">│</text><text class="terminal-r19" x="36.6" y="678.8" textLength="1134.6" clip-path="url(#terminal-line-27)">─────────────────────────────────────────────────────────────────────────────────────────────</text><text class="terminal-r1" x="1207.8" y="678.8" textLength="12.2" clip-path="url(#terminal-line-27)">
</text><text class="terminal-r6" x="0" y="703.2" textLength="1207.8" clip-path="url(#terminal-line-28)">───────────────────────────────────────────────────────────────────────────────────────────────────</text><text class="terminal-r1" x="1207.8" y="703.2" textLength="12.2" clip-path="url(#terminal-line-28)">
</text><text class="terminal-r20" x="12.2" y="727.6" textLength="890.6" clip-path="url(#terminal-line-29)">Esc&#160;Back&#160;&#160;Enter&#160;Attach&#160;&#160;e&#160;Edit&#160;&#160;n&#160;Task&#160;&#160;l&#160;Logs&#160;&#160;r&#160;Reload&#160;&#160;*&#160;Pin&#160;&#160;d&#160;Manage</text>
    </g>
    </g>
</svg>
