<svg class="rich-terminal" viewBox="0 0 994 635.5999999999999" xmlns="http://www.w3.org/2000/svg">
    <!-- Generated with Rich https://www.textualize.io -->
    <style>

    @font-face {
        font-family: "Fira Code";
        src: local("FiraCode-Regular"),
                url("https://cdnjs.cloudflare.com/ajax/libs/firacode/6.2.0/woff2/FiraCode-Regular.woff2") format("woff2"),
                url("https://cdnjs.cloudflare.com/ajax/libs/firacode/6.2.0/woff/FiraCode-Regular.woff") format("woff");
        font-style: normal;
        font-weight: 400;
    }
    @font-face {
        font-family: "Fira Code";
        src: local("FiraCode-Bold"),
                url("https://cdnjs.cloudflare.com/ajax/libs/firacode/6.2.0/woff2/FiraCode-Bold.woff2") format("woff2"),
                url("https://cdnjs.cloudflare.com/ajax/libs/firacode/6.2.0/woff/FiraCode-Bold.woff") format("woff");
        font-style: bold;
        font-weight: 700;
    }

    .terminal-matrix {
        font-family: Fira Code, monospace;
        font-size: 20px;
        line-height: 24.4px;
        font-variant-east-asian: full-width;
    }

    .terminal-title {
        font-size: 18px;
        font-weight: bold;
        font-family: arial;
    }

    .terminal-r1 { fill: #c5c8c6 }
.terminal-r2 { fill: #72c78e;font-weight: bold }
.terminal-r3 { fill: #9d9d9d }
.terminal-r4 { fill: #9e9e9e }
.terminal-r5 { fill: #909090 }
.terminal-r6 { fill: #646464;font-weight: bold }
.terminal-r7 { fill: #e6e6e6 }
.terminal-r8 { fill: #66aaff;font-weight: bold }
.terminal-r9 { fill: #e9b44c;font-weight: bold }
.terminal-r10 { fill: #ffffff }
.terminal-r11 { fill: #d7d7d7 }
.terminal-r12 { fill: #c792ea;font-weight: bold }
.terminal-r13 { fill: #ffffff;font-weight: bold }
.terminal-r14 { fill: #dedede }
.terminal-r15 { fill: #72c78e }
.terminal-r16 { fill: #d0d0d0 }
    </style>

    <defs>
    <clipPath id="terminal-clip-terminal">
      <rect x="0" y="0" width="975.0" height="584.5999999999999" />
    </clipPath>
    <clipPath id="terminal-line-0">
    <rect x="0" y="1.5" width="976" height="24.65"/>
            </clipPath>
<clipPath id="terminal-line-1">
    <rect x="0" y="25.9" width="976" height="24.65"/>
            </clipPath>
<clipPath id="terminal-line-2">
    <rect x="0" y="50.3" width="976" height="24.65"/>
            </clipPath>
<clipPath id="terminal-line-3">
    <rect x="0" y="74.7" width="976" height="24.65"/>
            </clipPath>
<clipPath id="terminal-line-4">
    <rect x="0" y="99.1" width="976" height="24.65"/>
            </clipPath>
<clipPath id="terminal-line-5">
    <rect x="0" y="123.5" width="976" height="24.65"/>
            </clipPath>
<clipPath id="terminal-line-6">
    <rect x="0" y="147.9" width="976" height="24.65"/>
            </clipPath>
<clipPath id="terminal-line-7">
    <rect x="0" y="172.3" width="976" height="24.65"/>
            </clipPath>
<clipPath id="terminal-line-8">
    <rect x="0" y="196.7" width="976" height="24.65"/>
            </clipPath>
<clipPath id="terminal-line-9">
    <rect x="0" y="221.1" width="976" height="24.65"/>
            </clipPath>
<clipPath id="terminal-line-10">
    <rect x="0" y="245.5" width="976" height="24.65"/>
            </clipPath>
<clipPath id="terminal-line-11">
    <rect x="0" y="269.9" width="976" height="24.65"/>
            </clipPath>
<clipPath id="terminal-line-12">
    <rect x="0" y="294.3" width="976" height="24.65"/>
            </clipPath>
<clipPath id="terminal-line-13">
    <rect x="0" y="318.7" width="976" height="24.65"/>
            </clipPath>
<clipPath id="terminal-line-14">
    <rect x="0" y="343.1" width="976" height="24.65"/>
            </clipPath>
<clipPath id="terminal-line-15">
    <rect x="0" y="367.5" width="976" height="24.65"/>
            </clipPath>
<clipPath id="terminal-line-16">
    <rect x="0" y="391.9" width="976" height="24.65"/>
            </clipPath>
<clipPath id="terminal-line-17">
    <rect x="0" y="416.3" width="976" height="24.65"/>
            </clipPath>
<clipPath id="terminal-line-18">
    <rect x="0" y="440.7" width="976" height="24.65"/>
            </clipPath>
<clipPath id="terminal-line-19">
    <rect x="0" y="465.1" width="976" height="24.65"/>
            </clipPath>
<clipPath id="terminal-line-20">
    <rect x="0" y="489.5" width="976" height="24.65"/>
            </clipPath>
<clipPath id="terminal-line-21">
    <rect x="0" y="513.9" width="976" height="24.65"/>
            </clipPath>
<clipPath id="terminal-line-22">
    <rect x="0" y="538.3" width="976" height="24.65"/>
            </clipPath>
    </defs>

    <rect fill="#292929" stroke="rgba(255,255,255,0.35)" stroke-width="1" x="1" y="1" width="992" height="633.6" rx="8"/><text class="terminal-title" fill="#c5c8c6" text-anchor="middle" x="496" y="27">Workspace</text>
            <g transform="translate(26,22)">
            <circle cx="0" cy="0" r="7" fill="#ff5f57"/>
            <circle cx="22" cy="0" r="7" fill="#febc2e"/>
            <circle cx="44" cy="0" r="7" fill="#28c840"/>
            </g>
        
    <g transform="translate(9, 41)" clip-path="url(#terminal-clip-terminal)">
    <rect fill="#111111" x="0" y="1.5" width="12.2" height="24.65" shape-rendering="crispEdges"/><rect fill="#111111" x="12.2" y="1.5" width="24.4" height="24.65" shape-rendering="crispEdges"/><rect fill="#111111" x="36.6" y="1.5" width="756.4" height="24.65" shape-rendering="crispEdges"/><rect fill="#111111" x="793" y="1.5" width="183" height="24.65" shape-rendering="crispEdges"/><rect fill="#111111" x="0" y="25.9" width="976" height="24.65" shape-rendering="crispEdges"/><rect fill="#1b1b1b" x="0" y="50.3" width="12.2" height="24.65" shape-rendering="crispEdges"/><rect fill="#111111" x="12.2" y="50.3" width="12.2" height="24.65" shape-rendering="crispEdges"/><rect fill="#111111" x="24.4" y="50.3" width="158.6" height="24.65" shape-rendering="crispEdges"/><rect fill="#111111" x="183" y="50.3" width="780.8" height="24.65" shape-rendering="crispEdges"/><rect fill="#1b1b1b" x="963.8" y="50.3" width="12.2" height="24.65" shape-rendering="crispEdges"/><rect fill="#1b1b1b" x="0" y="74.7" width="12.2" height="24.65" shape-rendering="crispEdges"/><rect fill="#1b1b1b" x="12.2" y="74.7" width="12.2" height="24.65" shape-rendering="crispEdges"/><rect fill="#1b1b1b" x="24.4" y="74.7" width="24.4" height="24.65" shape-rendering="crispEdges"/><rect fill="#1b1b1b" x="48.8" y="74.7" width="170.8" height="24.65" shape-rendering="crispEdges"/><rect fill="#1b1b1b" x="219.6" y="74.7" width="744.2" height="24.65" shape-rendering="crispEdges"/><rect fill="#1b1b1b" x="963.8" y="74.7" width="12.2" height="24.65" shape-rendering="crispEdges"/><rect fill="#1b1b1b" x="0" y="99.1" width="12.2" height="24.65" shape-rendering="crispEdges"/><rect fill="#1b1b1b" x="12.2" y="99.1" width="12.2" height="24.65" shape-rendering="crispEdges"/><rect fill="#1b1b1b" x="24.4" y="99.1" width="24.4" height="24.65" shape-rendering="crispEdges"/><rect fill="#1b1b1b" x="48.8" y="99.1" width="158.6" height="24.65" shape-rendering="crispEdges"/><rect fill="#1b1b1b" x="207.4" y="99.1" width="756.4" height="24.65" shape-rendering="crispEdges"/><rect fill="#1b1b1b" x="963.8" y="99.1" width="12.2" height="24.65" shape-rendering="crispEdges"/><rect fill="#1b1b1b" x="0" y="123.5" width="12.2" height="24.65" shape-rendering="crispEdges"/><rect fill="#1b1b1b" x="12.2" y="123.5" width="12.2" height="24.65" shape-rendering="crispEdges"/><rect fill="#1b1b1b" x="24.4" y="123.5" width="24.4" height="24.65" shape-rendering="crispEdges"/><rect fill="#1b1b1b" x="48.8" y="123.5" width="122" height="24.65" shape-rendering="crispEdges"/><rect fill="#1b1b1b" x="170.8" y="123.5" width="793" height="24.65" shape-rendering="crispEdges"/><rect fill="#1b1b1b" x="963.8" y="123.5" width="12.2" height="24.65" shape-rendering="crispEdges"/><rect fill="#1b1b1b" x="0" y="147.9" width="12.2" height="24.65" shape-rendering="crispEdges"/><rect fill="#1b1b1b" x="12.2" y="147.9" width="12.2" height="24.65" shape-rendering="crispEdges"/><rect fill="#1b1b1b" x="24.4" y="147.9" width="24.4" height="24.65" shape-rendering="crispEdges"/><rect fill="#1b1b1b" x="48.8" y="147.9" width="73.2" height="24.65" shape-rendering="crispEdges"/><rect fill="#1b1b1b" x="122" y="147.9" width="841.8" height="24.65" shape-rendering="crispEdges"/><rect fill="#1b1b1b" x="963.8" y="147.9" width="12.2" height="24.65" shape-rendering="crispEdges"/><rect fill="#1b1b1b" x="0" y="172.3" width="12.2" height="24.65" shape-rendering="crispEdges"/><rect fill="#1b1b1b" x="12.2" y="172.3" width="12.2" height="24.65" shape-rendering="crispEdges"/><rect fill="#1b1b1b" x="24.4" y="172.3" width="24.4" height="24.65" shape-rendering="crispEdges"/><rect fill="#1b1b1b" x="48.8" y="172.3" width="183" height="24.65" shape-rendering="crispEdges"/><rect fill="#1b1b1b" x="231.8" y="172.3" width="732" height="24.65" shape-rendering="crispEdges"/><rect fill="#1b1b1b" x="963.8" y="172.3" width="12.2" height="24.65" shape-rendering="crispEdges"/><rect fill="#1b1b1b" x="0" y="196.7" width="12.2" height="24.65" shape-rendering="crispEdges"/><rect fill="#1b1b1b" x="12.2" y="196.7" width="12.2" height="24.65" shape-rendering="crispEdges"/><rect fill="#1b1b1b" x="24.4" y="196.7" width="24.4" height="24.65" shape-rendering="crispEdges"/><rect fill="#1b1b1b" x="48.8" y="196.7" width="183" height="24.65" shape-rendering="crispEdges"/><rect fill="#1b1b1b" x="231.8" y="196.7" width="732" height="24.65" shape-rendering="crispEdges"/><rect fill="#1b1b1b" x="963.8" y="196.7" width="12.2" height="24.65" shape-rendering="crispEdges"/><rect fill="#1b1b1b" x="0" y="221.1" width="12.2" height="24.65" shape-rendering="crispEdges"/><rect fill="#1b1b1b" x="12.2" y="221.1" width="12.2" height="24.65" shape-rendering="crispEdges"/><rect fill="#1b1b1b" x="24.4" y="221.1" width="24.4" height="24.65" shape-rendering="crispEdges"/><rect fill="#1b1b1b" x="48.8" y="221.1" width="268.4" height="24.65" shape-rendering="crispEdges"/><rect fill="#1b1b1b" x="317.2" y="221.1" width="646.6" height="24.65" shape-rendering="crispEdges"/><rect fill="#1b1b1b" x="963.8" y="221.1" width="12.2" height="24.65" shape-rendering="crispEdges"/><rect fill="#1b1b1b" x="0" y="245.5" width="12.2" height="24.65" shape-rendering="crispEdges"/><rect fill="#1b1b1b" x="12.2" y="245.5" width="12.2" height="24.65" shape-rendering="crispEdges"/><rect fill="#1b1b1b" x="24.4" y="245.5" width="24.4" height="24.65" shape-rendering="crispEdges"/><rect fill="#1b1b1b" x="48.8" y="245.5" width="158.6" height="24.65" shape-rendering="crispEdges"/><rect fill="#1b1b1b" x="207.4" y="245.5" width="756.4" height="24.65" shape-rendering="crispEdges"/><rect fill="#1b1b1b" x="963.8" y="245.5" width="12.2" height="24.65" shape-rendering="crispEdges"/><rect fill="#1b1b1b" x="0" y="269.9" width="12.2" height="24.65" shape-rendering="crispEdges"/><rect fill="#111111" x="12.2" y="269.9" width="12.2" height="24.65" shape-rendering="crispEdges"/><rect fill="#111111" x="24.4" y="269.9" width="134.2" height="24.65" shape-rendering="crispEdges"/><rect fill="#111111" x="158.6" y="269.9" width="805.2" height="24.65" shape-rendering="crispEdges"/><rect fill="#1b1b1b" x="963.8" y="269.9" width="12.2" height="24.65" shape-rendering="crispEdges"/><rect fill="#1b1b1b" x="0" y="294.3" width="12.2" height="24.65" shape-rendering="crispEdges"/><rect fill="#9e9e9e" x="12.2" y="294.3" width="12.2" height="24.65" shape-rendering="crispEdges"/><rect fill="#9e9e9e" x="24.4" y="294.3" width="24.4" height="24.65" shape-rendering="crispEdges"/><rect fill="#9e9e9e" x="48.8" y="294.3" width="85.4" height="24.65" shape-rendering="crispEdges"/><rect fill="#9e9e9e" x="134.2" y="294.3" width="732" height="24.65" shape-rendering="crispEdges"/><rect fill="#9e9e9e" x="866.2" y="294.3" width="36.6" height="24.65" shape-rendering="crispEdges"/><rect fill="#9e9e9e" x="902.8" y="294.3" width="61" height="24.65" shape-rendering="crispEdges"/><rect fill="#1b1b1b" x="963.8" y="294.3" width="12.2" height="24.65" shape-rendering="crispEdges"/><rect fill="#1b1b1b" x="0" y="318.7" width="12.2" height="24.65" shape-rendering="crispEdges"/><rect fill="#9e9e9e" x="12.2" y="318.7" width="12.2" height="24.65" shape-rendering="crispEdges"/><rect fill="#9e9e9e" x="24.4" y="318.7" width="24.4" height="24.65" shape-rendering="crispEdges"/><rect fill="#9e9e9e" x="48.8" y="318.7" width="475.8" height="24.65" shape-rendering="crispEdges"/><rect fill="#9e9e9e" x="524.6" y="318.7" width="439.2" height="24.65" shape-rendering="crispEdges"/><rect fill="#1b1b1b" x="963.8" y="318.7" width="12.2" height="24.65" shape-rendering="crispEdges"/><rect fill="#1b1b1b" x="0" y="343.1" width="12.2" height="24.65" shape-rendering="crispEdges"/><rect fill="#111111" x="12.2" y="343.1" width="12.2" height="24.65" shape-rendering="crispEdges"/><rect fill="#111111" x="24.4" y="343.1" width="134.2" height="24.65" shape-rendering="crispEdges"/><rect fill="#111111" x="158.6" y="343.1" width="805.2" height="24.65" shape-rendering="crispEdges"/><rect fill="#1b1b1b" x="963.8" y="343.1" width="12.2" height="24.65" shape-rendering="crispEdges"/><rect fill="#1b1b1b" x="0" y="367.5" width="12.2" height="24.65" shape-rendering="crispEdges"/><rect fill="#1b1b1b" x="12.2" y="367.5" width="12.2" height="24.65" shape-rendering="crispEdges"/><rect fill="#1b1b1b" x="24.4" y="367.5" width="24.4" height="24.65" shape-rendering="crispEdges"/><rect fill="#1b1b1b" x="48.8" y="367.5" width="134.2" height="24.65" shape-rendering="crispEdges"/><rect fill="#1b1b1b" x="183" y="367.5" width="780.8" height="24.65" shape-rendering="crispEdges"/><rect fill="#1b1b1b" x="963.8" y="367.5" width="12.2" height="24.65" shape-rendering="crispEdges"/><rect fill="#1b1b1b" x="0" y="391.9" width="12.2" height="24.65" shape-rendering="crispEdges"/><rect fill="#1b1b1b" x="12.2" y="391.9" width="951.6" height="24.65" shape-rendering="crispEdges"/><rect fill="#1b1b1b" x="963.8" y="391.9" width="12.2" height="24.65" shape-rendering="crispEdges"/><rect fill="#1b1b1b" x="0" y="416.3" width="12.2" height="24.65" shape-rendering="crispEdges"/><rect fill="#1b1b1b" x="12.2" y="416.3" width="951.6" height="24.65" shape-rendering="crispEdges"/><rect fill="#1b1b1b" x="963.8" y="416.3" width="12.2" height="24.65" shape-rendering="crispEdges"/><rect fill="#1b1b1b" x="0" y="440.7" width="12.2" height="24.65" shape-rendering="crispEdges"/><rect fill="#1b1b1b" x="12.2" y="440.7" width="951.6" height="24.65" shape-rendering="crispEdges"/><rect fill="#1b1b1b" x="963.8" y="440.7" width="12.2" height="24.65" shape-rendering="crispEdges"/><rect fill="#1b1b1b" x="0" y="465.1" width="12.2" height="24.65" shape-rendering="crispEdges"/><rect fill="#1b1b1b" x="12.2" y="465.1" width="951.6" height="24.65" shape-rendering="crispEdges"/><rect fill="#1b1b1b" x="963.8" y="465.1" width="12.2" height="24.65" shape-rendering="crispEdges"/><rect fill="#1b1b1b" x="0" y="489.5" width="12.2" height="24.65" shape-rendering="crispEdges"/><rect fill="#1b1b1b" x="12.2" y="489.5" width="951.6" height="24.65" shape-rendering="crispEdges"/><rect fill="#1b1b1b" x="963.8" y="489.5" width="12.2" height="24.65" shape-rendering="crispEdges"/><rect fill="#1b1b1b" x="0" y="513.9" width="12.2" height="24.65" shape-rendering="crispEdges"/><rect fill="#1b1b1b" x="12.2" y="513.9" width="951.6" height="24.65" shape-rendering="crispEdges"/><rect fill="#1b1b1b" x="963.8" y="513.9" width="12.2" height="24.65" shape-rendering="crispEdges"/><rect fill="#111111" x="0" y="538.3" width="976" height="24.65" shape-rendering="crispEdges"/><rect fill="#111111" x="0" y="562.7" width="12.2" height="24.65" shape-rendering="crispEdges"/><rect fill="#111111" x="12.2" y="562.7" width="927.2" height="24.65" shape-rendering="crispEdges"/><rect fill="#111111" x="939.4" y="562.7" width="24.4" height="24.65" shape-rendering="crispEdges"/><rect fill="#111111" x="963.8" y="562.7" width="12.2" height="24.65" shape-rendering="crispEdges"/>
    <g class="terminal-matrix">
    <text class="terminal-r2" x="12.2" y="20" textLength="24.4" clip-path="url(#terminal-line-0)">ws</text><text class="terminal-r3" x="36.6" y="20" textLength="756.4" clip-path="url(#terminal-line-0)">&#160;&#160;4&#160;sessions&#160;•&#160;1&#160;attached&#160;•&#160;3&#160;detached&#160;•&#160;1&#160;warning&#160;•&#160;Attention</text><text class="terminal-r1" x="976" y="20" textLength="12.2" clip-path="url(#terminal-line-0)">
</text><text class="terminal-r4" x="0" y="44.4" textLength="976" clip-path="url(#terminal-line-1)">────────────────────────────────────────────────────────────────────────────────</text><text class="terminal-r1" x="976" y="44.4" textLength="12.2" clip-path="url(#terminal-line-1)">
</text><text class="terminal-r6" x="24.4" y="68.8" textLength="158.6" clip-path="url(#terminal-line-2)">QUICK&#160;ACTIONS</text><text class="terminal-r1" x="976" y="68.8" textLength="12.2" clip-path="url(#terminal-line-2)">
</text><text class="terminal-r8" x="24.4" y="93.2" textLength="24.4" clip-path="url(#terminal-line-3)">+&#160;</text><text class="terminal-r7" x="48.8" y="93.2" textLength="170.8" clip-path="url(#terminal-line-3)">Create&#160;session</text><text class="terminal-r1" x="976" y="93.2" textLength="12.2" clip-path="url(#terminal-line-3)">
</text><text class="terminal-r8" x="24.4" y="117.6" textLength="24.4" clip-path="url(#terminal-line-4)">&gt;&#160;</text><text class="terminal-r7" x="48.8" y="117.6" textLength="158.6" clip-path="url(#terminal-line-4)">Resume&#160;recent</text><text class="terminal-r1" x="976" y="117.6" textLength="12.2" clip-path="url(#terminal-line-4)">
</text><text class="terminal-r8" x="24.4" y="142" textLength="24.4" clip-path="url(#terminal-line-5)">$&#160;</text><text class="terminal-r7" x="48.8" y="142" textLength="122" clip-path="url(#terminal-line-5)">Open&#160;shell</text><text class="terminal-r1" x="976" y="142" textLength="12.2" clip-path="url(#terminal-line-5)">
</text><text class="terminal-r8" x="24.4" y="166.4" textLength="24.4" clip-path="url(#terminal-line-6)">/&#160;</text><text class="terminal-r7" x="48.8" y="166.4" textLength="73.2" clip-path="url(#terminal-line-6)">Search</text><text class="terminal-r1" x="976" y="166.4" textLength="12.2" clip-path="url(#terminal-line-6)">
</text><text class="terminal-r8" x="24.4" y="190.8" textLength="24.4" clip-path="url(#terminal-line-7)">=&#160;</text><text class="terminal-r7" x="48.8" y="190.8" textLength="183" clip-path="url(#terminal-line-7)">Filter&#160;sessions</text><text class="terminal-r1" x="976" y="190.8" textLength="12.2" clip-path="url(#terminal-line-7)">
</text><text class="terminal-r8" x="24.4" y="215.2" textLength="24.4" clip-path="url(#terminal-line-8)">@&#160;</text><text class="terminal-r7" x="48.8" y="215.2" textLength="183" clip-path="url(#terminal-line-8)">Recent&#160;activity</text><text class="terminal-r1" x="976" y="215.2" textLength="12.2" clip-path="url(#terminal-line-8)">
</text><text class="terminal-r8" x="24.4" y="239.6" textLength="24.4" clip-path="url(#terminal-line-9)">◐&#160;</text><text class="terminal-r7" x="48.8" y="239.6" textLength="268.4" clip-path="url(#terminal-line-9)">Show&#160;all&#160;tmux&#160;sessions</text><text class="terminal-r1" x="976" y="239.6" textLength="12.2" clip-path="url(#terminal-line-9)">
</text><text class="terminal-r9" x="24.4" y="264" textLength="24.4" clip-path="url(#terminal-line-10)">!&#160;</text><text class="terminal-r7" x="48.8" y="264" textLength="158.6" clip-path="url(#terminal-line-10)">Attention&#160;(1)</text><text class="terminal-r1" x="976" y="264" textLength="12.2" clip-path="url(#terminal-line-10)">
</text><text class="terminal-r6" x="24.4" y="288.4" textLength="134.2" clip-path="url(#terminal-line-11)">NEEDS&#160;INPUT</text><text class="terminal-r1" x="976" y="288.4" textLength="12.2" clip-path="url(#terminal-line-11)">
</text><text class="terminal-r11" x="24.4" y="312.8" textLength="24.4" clip-path="url(#terminal-line-12)">!&#160;</text><text class="terminal-r12" x="48.8" y="312.8" textLength="85.4" clip-path="url(#terminal-line-12)">CLAUDE&#160;</text><text class="terminal-r13" x="134.2" y="312.8" textLength="732" clip-path="url(#terminal-line-12)">claude-astrology-pancha-pakshi&#160;&#160;&#160;&#160;&#160;&#160;&#160;&#160;&#160;&#160;&#160;&#160;&#160;&#160;&#160;&#160;&#160;&#160;&#160;&#160;&#160;&#160;&#160;&#160;&#160;&#160;&#160;&#160;&#160;&#160;</text><text class="terminal-r14" x="866.2" y="312.8" textLength="36.6" clip-path="url(#terminal-line-12)">&lt;1m</text><text class="terminal-r1" x="976" y="312.8" textLength="12.2" clip-path="url(#terminal-line-12)">
</text><text class="terminal-r15" x="48.8" y="337.2" textLength="475.8" clip-path="url(#terminal-line-13)">Attached&#160;·&#160;In&#160;progress&#160;·&#160;Input&#160;required</text><text class="terminal-r1" x="976" y="337.2" textLength="12.2" clip-path="url(#terminal-line-13)">
</text><text class="terminal-r6" x="24.4" y="361.6" textLength="134.2" clip-path="url(#terminal-line-14)">MAINTENANCE</text><text class="terminal-r1" x="976" y="361.6" textLength="12.2" clip-path="url(#terminal-line-14)">
</text><text class="terminal-r8" x="24.4" y="386" textLength="24.4" clip-path="url(#terminal-line-15)">&gt;&#160;</text><text class="terminal-r7" x="48.8" y="386" textLength="134.2" clip-path="url(#terminal-line-15)">Diagnostics</text><text class="terminal-r1" x="976" y="386" textLength="12.2" clip-path="url(#terminal-line-15)">
</text><text class="terminal-r1" x="976" y="410.4" textLength="12.2" clip-path="url(#terminal-line-16)">
</text><text class="terminal-r1" x="976" y="434.8" textLength="12.2" clip-path="url(#terminal-line-17)">
</text><text class="terminal-r1" x="976" y="459.2" textLength="12.2" clip-path="url(#terminal-line-18)">
</text><text class="terminal-r1" x="976" y="483.6" textLength="12.2" clip-path="url(#terminal-line-19)">
</text><text class="terminal-r1" x="976" y="508" textLength="12.2" clip-path="url(#terminal-line-20)">
</text><text class="terminal-r1" x="976" y="532.4" textLength="12.2" clip-path="url(#terminal-line-21)">
</text><text class="terminal-r4" x="0" y="556.8" textLength="976" clip-path="url(#terminal-line-22)">────────────────────────────────────────────────────────────────────────────────</text><text class="terminal-r1" x="976" y="556.8" textLength="12.2" clip-path="url(#terminal-line-22)">
</text><text class="terminal-r16" x="12.2" y="581.2" textLength="927.2" clip-path="url(#terminal-line-23)">ATTENTION&#160;&#160;↑↓/jk&#160;Nav&#160;&#160;&#160;Enter&#160;Open&#160;&#160;&#160;Esc&#160;Back&#160;&#160;&#160;f&#160;Filter&#160;&#160;&#160;r&#160;Refresh&#160;&#160;&#160;?&#160;Help</text>
    </g>
    </g>
</svg>
