<svg class="rich-terminal" viewBox="0 0 994 635.5999999999999" xmlns="http://www.w3.org/2000/svg">
    <!-- Generated with Rich https://www.textualize.io -->
    <style>

    @font-face {
        font-family: "Fira Code";
        src: local("FiraCode-Regular"),
                url("https://cdnjs.cloudflare.com/ajax/libs/firacode/6.2.0/woff2/FiraCode-Regular.woff2") format("woff2"),
                url("https://cdnjs.cloudflare.com/ajax/libs/firacode/6.2.0/woff/FiraCode-Regular.woff") format("woff");
        font-style: normal;
        font-weight: 400;
    }
    @font-face {
        font-family: "Fira Code";
        src: local("FiraCode-Bold"),
                url("https://cdnjs.cloudflare.com/ajax/libs/firacode/6.2.0/woff2/FiraCode-Bold.woff2") format("woff2"),
                url("https://cdnjs.cloudflare.com/ajax/libs/firacode/6.2.0/woff/FiraCode-Bold.woff") format("woff");
        font-style: bold;
        font-weight: 700;
    }

    .terminal-matrix {
        font-family: Fira Code, monospace;
        font-size: 20px;
        line-height: 24.4px;
        font-variant-east-asian: full-width;
    }

    .terminal-title {
        font-size: 18px;
        font-weight: bold;
        font-family: arial;
    }

    .terminal-r1 { fill: #c5c8c6 }
.terminal-r2 { fill: #c9d8e0;font-weight: bold }
.terminal-r3 { fill: #72c78e;font-weight: bold }
.terminal-r4 { fill: #c9d8e0 }
.terminal-r5 { fill: #3f8a9d }
.terminal-r6 { fill: #8a949c }
.terminal-r7 { fill: #ffffff;font-weight: bold }
.terminal-r8 { fill: #939ea8;font-weight: bold }
.terminal-r9 { fill: #aaacaf }
.terminal-r10 { fill: #b4c3ca }
.terminal-r11 { fill: #282c34 }
    </style>

    <defs>
    <clipPath id="terminal-clip-terminal">
      <rect x="0" y="0" width="975.0" height="584.5999999999999" />
    </clipPath>
    <clipPath id="terminal-line-0">
    <rect x="0" y="1.5" width="976" height="24.65"/>
            </clipPath>
<clipPath id="terminal-line-1">
    <rect x="0" y="25.9" width="976" height="24.65"/>
            </clipPath>
<clipPath id="terminal-line-2">
    <rect x="0" y="50.3" width="976" height="24.65"/>
            </clipPath>
<clipPath id="terminal-line-3">
    <rect x="0" y="74.7" width="976" height="24.65"/>
            </clipPath>
<clipPath id="terminal-line-4">
    <rect x="0" y="99.1" width="976" height="24.65"/>
            </clipPath>
<clipPath id="terminal-line-5">
    <rect x="0" y="123.5" width="976" height="24.65"/>
            </clipPath>
<clipPath id="terminal-line-6">
    <rect x="0" y="147.9" width="976" height="24.65"/>
            </clipPath>
<clipPath id="terminal-line-7">
    <rect x="0" y="172.3" width="976" height="24.65"/>
            </clipPath>
<clipPath id="terminal-line-8">
    <rect x="0" y="196.7" width="976" height="24.65"/>
            </clipPath>
<clipPath id="terminal-line-9">
    <rect x="0" y="221.1" width="976" height="24.65"/>
            </clipPath>
<clipPath id="terminal-line-10">
    <rect x="0" y="245.5" width="976" height="24.65"/>
            </clipPath>
<clipPath id="terminal-line-11">
    <rect x="0" y="269.9" width="976" height="24.65"/>
            </clipPath>
<clipPath id="terminal-line-12">
    <rect x="0" y="294.3" width="976" height="24.65"/>
            </clipPath>
<clipPath id="terminal-line-13">
    <rect x="0" y="318.7" width="976" height="24.65"/>
            </clipPath>
<clipPath id="terminal-line-14">
    <rect x="0" y="343.1" width="976" height="24.65"/>
            </clipPath>
<clipPath id="terminal-line-15">
    <rect x="0" y="367.5" width="976" height="24.65"/>
            </clipPath>
<clipPath id="terminal-line-16">
    <rect x="0" y="391.9" width="976" height="24.65"/>
            </clipPath>
<clipPath id="terminal-line-17">
    <rect x="0" y="416.3" width="976" height="24.65"/>
            </clipPath>
<clipPath id="terminal-line-18">
    <rect x="0" y="440.7" width="976" height="24.65"/>
            </clipPath>
<clipPath id="terminal-line-19">
    <rect x="0" y="465.1" width="976" height="24.65"/>
            </clipPath>
<clipPath id="terminal-line-20">
    <rect x="0" y="489.5" width="976" height="24.65"/>
            </clipPath>
<clipPath id="terminal-line-21">
    <rect x="0" y="513.9" width="976" height="24.65"/>
            </clipPath>
<clipPath id="terminal-line-22">
    <rect x="0" y="538.3" width="976" height="24.65"/>
            </clipPath>
    </defs>

    <rect fill="#292929" stroke="rgba(255,255,255,0.35)" stroke-width="1" x="1" y="1" width="992" height="633.6" rx="8"/><text class="terminal-title" fill="#c5c8c6" text-anchor="middle" x="496" y="27">Workspace</text>
            <g transform="translate(26,22)">
            <circle cx="0" cy="0" r="7" fill="#ff5f57"/>
            <circle cx="22" cy="0" r="7" fill="#febc2e"/>
            <circle cx="44" cy="0" r="7" fill="#28c840"/>
            </g>
        
    <g transform="translate(9, 41)" clip-path="url(#terminal-clip-terminal)">
    <rect fill="#333844" x="0" y="1.5" width="24.4" height="24.65" shape-rendering="crispEdges"/><rect fill="#333844" x="24.4" y="1.5" width="122" height="24.65" shape-rendering="crispEdges"/><rect fill="#333844" x="146.4" y="1.5" width="61" height="24.65" shape-rendering="crispEdges"/><rect fill="#333844" x="207.4" y="1.5" width="170.8" height="24.65" shape-rendering="crispEdges"/><rect fill="#333844" x="378.2" y="1.5" width="573.4" height="24.65" shape-rendering="crispEdges"/><rect fill="#333844" x="951.6" y="1.5" width="24.4" height="24.65" shape-rendering="crispEdges"/><rect fill="#333844" x="0" y="25.9" width="976" height="24.65" shape-rendering="crispEdges"/><rect fill="#2c3038" x="0" y="50.3" width="24.4" height="24.65" shape-rendering="crispEdges"/><rect fill="#2c3038" x="24.4" y="50.3" width="866.2" height="24.65" shape-rendering="crispEdges"/><rect fill="#2c3038" x="890.6" y="50.3" width="85.4" height="24.65" shape-rendering="crispEdges"/><rect fill="#2c3038" x="0" y="74.7" width="24.4" height="24.65" shape-rendering="crispEdges"/><rect fill="#2c3038" x="24.4" y="74.7" width="927.2" height="24.65" shape-rendering="crispEdges"/><rect fill="#2c3038" x="951.6" y="74.7" width="24.4" height="24.65" shape-rendering="crispEdges"/><rect fill="#2c3038" x="0" y="99.1" width="24.4" height="24.65" shape-rendering="crispEdges"/><rect fill="#3f8a9d" x="24.4" y="99.1" width="24.4" height="24.65" shape-rendering="crispEdges"/><rect fill="#3f8a9d" x="48.8" y="99.1" width="73.2" height="24.65" shape-rendering="crispEdges"/><rect fill="#3f8a9d" x="122" y="99.1" width="24.4" height="24.65" shape-rendering="crispEdges"/><rect fill="#2c3038" x="146.4" y="99.1" width="12.2" height="24.65" shape-rendering="crispEdges"/><rect fill="#434855" x="158.6" y="99.1" width="12.2" height="24.65" shape-rendering="crispEdges"/><rect fill="#434855" x="170.8" y="99.1" width="85.4" height="24.65" shape-rendering="crispEdges"/><rect fill="#434855" x="256.2" y="99.1" width="24.4" height="24.65" shape-rendering="crispEdges"/><rect fill="#2c3038" x="280.6" y="99.1" width="12.2" height="24.65" shape-rendering="crispEdges"/><rect fill="#3f8a9d" x="292.8" y="99.1" width="122" height="24.65" shape-rendering="crispEdges"/><rect fill="#2c3038" x="414.8" y="99.1" width="170.8" height="24.65" shape-rendering="crispEdges"/><rect fill="#2c3038" x="585.6" y="99.1" width="366" height="24.65" shape-rendering="crispEdges"/><rect fill="#2c3038" x="951.6" y="99.1" width="24.4" height="24.65" shape-rendering="crispEdges"/><rect fill="#2c3038" x="0" y="123.5" width="976" height="24.65" shape-rendering="crispEdges"/><rect fill="#181c23" x="0" y="147.9" width="12.2" height="24.65" shape-rendering="crispEdges"/><rect fill="#181c23" x="12.2" y="147.9" width="12.2" height="24.65" shape-rendering="crispEdges"/><rect fill="#181c23" x="24.4" y="147.9" width="939.4" height="24.65" shape-rendering="crispEdges"/><rect fill="#181c23" x="963.8" y="147.9" width="12.2" height="24.65" shape-rendering="crispEdges"/><rect fill="#181c23" x="0" y="172.3" width="12.2" height="24.65" shape-rendering="crispEdges"/><rect fill="#181c23" x="12.2" y="172.3" width="12.2" height="24.65" shape-rendering="crispEdges"/><rect fill="#181c23" x="24.4" y="172.3" width="939.4" height="24.65" shape-rendering="crispEdges"/><rect fill="#181c23" x="963.8" y="172.3" width="12.2" height="24.65" shape-rendering="crispEdges"/><rect fill="#181c23" x="0" y="196.7" width="12.2" height="24.65" shape-rendering="crispEdges"/><rect fill="#181c23" x="12.2" y="196.7" width="12.2" height="24.65" shape-rendering="crispEdges"/><rect fill="#181c23" x="24.4" y="196.7" width="939.4" height="24.65" shape-rendering="crispEdges"/><rect fill="#181c23" x="963.8" y="196.7" width="12.2" height="24.65" shape-rendering="crispEdges"/><rect fill="#181c23" x="0" y="221.1" width="12.2" height="24.65" shape-rendering="crispEdges"/><rect fill="#181c23" x="12.2" y="221.1" width="12.2" height="24.65" shape-rendering="crispEdges"/><rect fill="#181c23" x="24.4" y="221.1" width="414.8" height="24.65" shape-rendering="crispEdges"/><rect fill="#c9d8e0" x="439.2" y="221.1" width="12.2" height="24.65" shape-rendering="crispEdges"/><rect fill="#181c23" x="451.4" y="221.1" width="512.4" height="24.65" shape-rendering="crispEdges"/><rect fill="#181c23" x="963.8" y="221.1" width="12.2" height="24.65" shape-rendering="crispEdges"/><rect fill="#181c23" x="0" y="245.5" width="12.2" height="24.65" shape-rendering="crispEdges"/><rect fill="#181c23" x="12.2" y="245.5" width="12.2" height="24.65" shape-rendering="crispEdges"/><rect fill="#181c23" x="24.4" y="245.5" width="939.4" height="24.65" shape-rendering="crispEdges"/><rect fill="#181c23" x="963.8" y="245.5" width="12.2" height="24.65" shape-rendering="crispEdges"/><rect fill="#181c23" x="0" y="269.9" width="12.2" height="24.65" shape-rendering="crispEdges"/><rect fill="#181c23" x="12.2" y="269.9" width="12.2" height="24.65" shape-rendering="crispEdges"/><rect fill="#181c23" x="24.4" y="269.9" width="939.4" height="24.65" shape-rendering="crispEdges"/><rect fill="#181c23" x="963.8" y="269.9" width="12.2" height="24.65" shape-rendering="crispEdges"/><rect fill="#181c23" x="0" y="294.3" width="12.2" height="24.65" shape-rendering="crispEdges"/><rect fill="#181c23" x="12.2" y="294.3" width="12.2" height="24.65" shape-rendering="crispEdges"/><rect fill="#181c23" x="24.4" y="294.3" width="939.4" height="24.65" shape-rendering="crispEdges"/><rect fill="#181c23" x="963.8" y="294.3" width="12.2" height="24.65" shape-rendering="crispEdges"/><rect fill="#181c23" x="0" y="318.7" width="12.2" height="24.65" shape-rendering="crispEdges"/><rect fill="#181c23" x="12.2" y="318.7" width="12.2" height="24.65" shape-rendering="crispEdges"/><rect fill="#181c23" x="24.4" y="318.7" width="939.4" height="24.65" shape-rendering="crispEdges"/><rect fill="#181c23" x="963.8" y="318.7" width="12.2" height="24.65" shape-rendering="crispEdges"/><rect fill="#181c23" x="0" y="343.1" width="12.2" height="24.65" shape-rendering="crispEdges"/><rect fill="#181c23" x="12.2" y="343.1" width="12.2" height="24.65" shape-rendering="crispEdges"/><rect fill="#181c23" x="24.4" y="343.1" width="939.4" height="24.65" shape-rendering="crispEdges"/><rect fill="#181c23" x="963.8" y="343.1" width="12.2" height="24.65" shape-rendering="crispEdges"/><rect fill="#181c23" x="0" y="367.5" width="12.2" height="24.65" shape-rendering="crispEdges"/><rect fill="#181c23" x="12.2" y="367.5" width="12.2" height="24.65" shape-rendering="crispEdges"/><rect fill="#181c23" x="24.4" y="367.5" width="939.4" height="24.65" shape-rendering="crispEdges"/><rect fill="#181c23" x="963.8" y="367.5" width="12.2" height="24.65" shape-rendering="crispEdges"/><rect fill="#181c23" x="0" y="391.9" width="12.2" height="24.65" shape-rendering="crispEdges"/><rect fill="#181c23" x="12.2" y="391.9" width="12.2" height="24.65" shape-rendering="crispEdges"/><rect fill="#181c23" x="24.4" y="391.9" width="939.4" height="24.65" shape-rendering="crispEdges"/><rect fill="#181c23" x="963.8" y="391.9" width="12.2" height="24.65" shape-rendering="crispEdges"/><rect fill="#181c23" x="0" y="416.3" width="12.2" height="24.65" shape-rendering="crispEdges"/><rect fill="#181c23" x="12.2" y="416.3" width="12.2" height="24.65" shape-rendering="crispEdges"/><rect fill="#181c23" x="24.4" y="416.3" width="939.4" height="24.65" shape-rendering="crispEdges"/><rect fill="#181c23" x="963.8" y="416.3" width="12.2" height="24.65" shape-rendering="crispEdges"/><rect fill="#181c23" x="0" y="440.7" width="12.2" height="24.65" shape-rendering="crispEdges"/><rect fill="#181c23" x="12.2" y="440.7" width="12.2" height="24.65" shape-rendering="crispEdges"/><rect fill="#181c23" x="24.4" y="440.7" width="939.4" height="24.65" shape-rendering="crispEdges"/><rect fill="#181c23" x="963.8" y="440.7" width="12.2" height="24.65" shape-rendering="crispEdges"/><rect fill="#181c23" x="0" y="465.1" width="12.2" height="24.65" shape-rendering="crispEdges"/><rect fill="#181c23" x="12.2" y="465.1" width="12.2" height="24.65" shape-rendering="crispEdges"/><rect fill="#181c23" x="24.4" y="465.1" width="939.4" height="24.65" shape-rendering="crispEdges"/><rect fill="#181c23" x="963.8" y="465.1" width="12.2" height="24.65" shape-rendering="crispEdges"/><rect fill="#181c23" x="0" y="489.5" width="12.2" height="24.65" shape-rendering="crispEdges"/><rect fill="#181c23" x="12.2" y="489.5" width="12.2" height="24.65" shape-rendering="crispEdges"/><rect fill="#181c23" x="24.4" y="489.5" width="939.4" height="24.65" shape-rendering="crispEdges"/><rect fill="#181c23" x="963.8" y="489.5" width="12.2" height="24.65" shape-rendering="crispEdges"/><rect fill="#181c23" x="0" y="513.9" width="12.2" height="24.65" shape-rendering="crispEdges"/><rect fill="#181c23" x="12.2" y="513.9" width="12.2" height="24.65" shape-rendering="crispEdges"/><rect fill="#181c23" x="24.4" y="513.9" width="939.4" height="24.65" shape-rendering="crispEdges"/><rect fill="#181c23" x="963.8" y="513.9" width="12.2" height="24.65" shape-rendering="crispEdges"/><rect fill="#333844" x="0" y="538.3" width="976" height="24.65" shape-rendering="crispEdges"/><rect fill="#333844" x="0" y="562.7" width="24.4" height="24.65" shape-rendering="crispEdges"/><rect fill="#333844" x="24.4" y="562.7" width="768.6" height="24.65" shape-rendering="crispEdges"/><rect fill="#333844" x="793" y="562.7" width="183" height="24.65" shape-rendering="crispEdges"/>
    <g class="terminal-matrix">
    <text class="terminal-r2" x="24.4" y="20" textLength="122" clip-path="url(#terminal-line-0)">ws&#160;&#160;Logs&#160;&#160;</text><text class="terminal-r3" x="146.4" y="20" textLength="61" clip-path="url(#terminal-line-0)">SHELL</text><text class="terminal-r2" x="207.4" y="20" textLength="170.8" clip-path="url(#terminal-line-0)">&#160;&#160;api-refactor</text><text class="terminal-r1" x="976" y="20" textLength="12.2" clip-path="url(#terminal-line-0)">
</text><text class="terminal-r5" x="0" y="44.4" textLength="976" clip-path="url(#terminal-line-1)">────────────────────────────────────────────────────────────────────────────────</text><text class="terminal-r1" x="976" y="44.4" textLength="12.2" clip-path="url(#terminal-line-1)">
</text><text class="terminal-r6" x="24.4" y="68.8" textLength="866.2" clip-path="url(#terminal-line-2)">Attached&#160;&#160;|&#160;&#160;In&#160;progress&#160;&#160;|&#160;&#160;Agent&#160;Active&#160;&#160;|&#160;&#160;Live&#160;pane&#160;&#160;|&#160;&#160;Updated&#160;now</text><text class="terminal-r1" x="976" y="68.8" textLength="12.2" clip-path="url(#terminal-line-2)">
</text><text class="terminal-r1" x="976" y="93.2" textLength="12.2" clip-path="url(#terminal-line-3)">
</text><text class="terminal-r7" x="48.8" y="117.6" textLength="73.2" clip-path="url(#terminal-line-4)">&#160;Live&#160;</text><text class="terminal-r8" x="170.8" y="117.6" textLength="85.4" clip-path="url(#terminal-line-4)">&#160;Saved&#160;</text><text class="terminal-r7" x="292.8" y="117.6" textLength="122" clip-path="url(#terminal-line-4)">&#160;Followin&#160;</text><text class="terminal-r9" x="585.6" y="117.6" textLength="366" clip-path="url(#terminal-line-4)">4&#160;sanitized&#160;lines&#160;&#160;|&#160;&#160;Complete</text><text class="terminal-r1" x="976" y="117.6" textLength="12.2" clip-path="url(#terminal-line-4)">
</text><text class="terminal-r5" x="0" y="142" textLength="976" clip-path="url(#terminal-line-5)">────────────────────────────────────────────────────────────────────────────────</text><text class="terminal-r1" x="976" y="142" textLength="12.2" clip-path="url(#terminal-line-5)">
</text><text class="terminal-r5" x="0" y="166.4" textLength="12.2" clip-path="url(#terminal-line-6)">│</text><text class="terminal-r10" x="24.4" y="166.4" textLength="939.4" clip-path="url(#terminal-line-6)">Loading&#160;project&#160;context&#160;&#160;&#160;&#160;&#160;&#160;&#160;&#160;&#160;&#160;&#160;&#160;&#160;&#160;&#160;&#160;&#160;&#160;&#160;&#160;&#160;&#160;&#160;&#160;&#160;&#160;&#160;&#160;&#160;&#160;&#160;&#160;&#160;&#160;&#160;&#160;&#160;&#160;&#160;&#160;&#160;&#160;&#160;&#160;&#160;&#160;&#160;&#160;&#160;&#160;&#160;&#160;&#160;&#160;</text><text class="terminal-r1" x="976" y="166.4" textLength="12.2" clip-path="url(#terminal-line-6)">
</text><text class="terminal-r5" x="0" y="190.8" textLength="12.2" clip-path="url(#terminal-line-7)">│</text><text class="terminal-r10" x="24.4" y="190.8" textLength="939.4" clip-path="url(#terminal-line-7)">Validated&#160;API&#160;configuration&#160;&#160;&#160;&#160;&#160;&#160;&#160;&#160;&#160;&#160;&#160;&#160;&#160;&#160;&#160;&#160;&#160;&#160;&#160;&#160;&#160;&#160;&#160;&#160;&#160;&#160;&#160;&#160;&#160;&#160;&#160;&#160;&#160;&#160;&#160;&#160;&#160;&#160;&#160;&#160;&#160;&#160;&#160;&#160;&#160;&#160;&#160;&#160;&#160;&#160;</text><text class="terminal-r1" x="976" y="190.8" textLength="12.2" clip-path="url(#terminal-line-7)">
</text><text class="terminal-r5" x="0" y="215.2" textLength="12.2" clip-path="url(#terminal-line-8)">│</text><text class="terminal-r10" x="24.4" y="215.2" textLength="939.4" clip-path="url(#terminal-line-8)">Completed&#160;authentication&#160;audit&#160;&#160;&#160;&#160;&#160;&#160;&#160;&#160;&#160;&#160;&#160;&#160;&#160;&#160;&#160;&#160;&#160;&#160;&#160;&#160;&#160;&#160;&#160;&#160;&#160;&#160;&#160;&#160;&#160;&#160;&#160;&#160;&#160;&#160;&#160;&#160;&#160;&#160;&#160;&#160;&#160;&#160;&#160;&#160;&#160;&#160;&#160;</text><text class="terminal-r1" x="976" y="215.2" textLength="12.2" clip-path="url(#terminal-line-8)">
</text><text class="terminal-r5" x="0" y="239.6" textLength="12.2" clip-path="url(#terminal-line-9)">│</text><text class="terminal-r10" x="24.4" y="239.6" textLength="414.8" clip-path="url(#terminal-line-9)">Ready&#160;for&#160;the&#160;next&#160;workflow&#160;action</text><text class="terminal-r1" x="976" y="239.6" textLength="12.2" clip-path="url(#terminal-line-9)">
</text><text class="terminal-r5" x="0" y="264" textLength="12.2" clip-path="url(#terminal-line-10)">│</text><text class="terminal-r1" x="976" y="264" textLength="12.2" clip-path="url(#terminal-line-10)">
</text><text class="terminal-r5" x="0" y="288.4" textLength="12.2" clip-path="url(#terminal-line-11)">│</text><text class="terminal-r1" x="976" y="288.4" textLength="12.2" clip-path="url(#terminal-line-11)">
</text><text class="terminal-r5" x="0" y="312.8" textLength="12.2" clip-path="url(#terminal-line-12)">│</text><text class="terminal-r1" x="976" y="312.8" textLength="12.2" clip-path="url(#terminal-line-12)">
</text><text class="terminal-r5" x="0" y="337.2" textLength="12.2" clip-path="url(#terminal-line-13)">│</text><text class="terminal-r1" x="976" y="337.2" textLength="12.2" clip-path="url(#terminal-line-13)">
</text><text class="terminal-r5" x="0" y="361.6" textLength="12.2" clip-path="url(#terminal-line-14)">│</text><text class="terminal-r1" x="976" y="361.6" textLength="12.2" clip-path="url(#terminal-line-14)">
</text><text class="terminal-r5" x="0" y="386" textLength="12.2" clip-path="url(#terminal-line-15)">│</text><text class="terminal-r1" x="976" y="386" textLength="12.2" clip-path="url(#terminal-line-15)">
</text><text class="terminal-r5" x="0" y="410.4" textLength="12.2" clip-path="url(#terminal-line-16)">│</text><text class="terminal-r1" x="976" y="410.4" textLength="12.2" clip-path="url(#terminal-line-16)">
</text><text class="terminal-r5" x="0" y="434.8" textLength="12.2" clip-path="url(#terminal-line-17)">│</text><text class="terminal-r1" x="976" y="434.8" textLength="12.2" clip-path="url(#terminal-line-17)">
</text><text class="terminal-r5" x="0" y="459.2" textLength="12.2" clip-path="url(#terminal-line-18)">│</text><text class="terminal-r1" x="976" y="459.2" textLength="12.2" clip-path="url(#terminal-line-18)">
</text><text class="terminal-r5" x="0" y="483.6" textLength="12.2" clip-path="url(#terminal-line-19)">│</text><text class="terminal-r1" x="976" y="483.6" textLength="12.2" clip-path="url(#terminal-line-19)">
</text><text class="terminal-r5" x="0" y="508" textLength="12.2" clip-path="url(#terminal-line-20)">│</text><text class="terminal-r1" x="976" y="508" textLength="12.2" clip-path="url(#terminal-line-20)">
</text><text class="terminal-r5" x="0" y="532.4" textLength="12.2" clip-path="url(#terminal-line-21)">│</text><text class="terminal-r1" x="976" y="532.4" textLength="12.2" clip-path="url(#terminal-line-21)">
</text><text class="terminal-r5" x="0" y="556.8" textLength="976" clip-path="url(#terminal-line-22)">────────────────────────────────────────────────────────────────────────────────</text><text class="terminal-r1" x="976" y="556.8" textLength="12.2" clip-path="url(#terminal-line-22)">
</text><text class="terminal-r10" x="24.4" y="581.2" textLength="768.6" clip-path="url(#terminal-line-23)">Esc&#160;Back&#160;&#160;&#160;/&#160;Find&#160;&#160;&#160;f&#160;Pause&#160;&#160;&#160;r&#160;Refresh&#160;&#160;&#160;c&#160;Copy&#160;&#160;&#160;Enter&#160;Attach</text>
    </g>
    </g>
</svg>
